<svg width="18" height="46" viewBox="0 0 18 46" fill="none" xmlns="http://www.w3.org/2000/svg">
<path d="M0.0164928 0.0607446C0.984071 0.044178 1.95714 0.027611 2.93572 0L2.99622 0.0717872C6.34975 3.62809 9.8792 7.01873 13.2877 10.5253C14.3378 11.5911 15.3438 12.7563 16.6743 13.4963C16.7897 13.5625 17.0316 13.7006 17.1525 13.7669C16.8942 14.4848 16.7127 15.2744 16.108 15.788C11.8583 20.0456 7.55923 24.2646 3.40854 28.6161C7.79013 32.9234 12.0892 37.3136 16.4048 41.6816C17.136 42.1897 16.9381 43.0677 16.7567 43.7966C16.5148 43.9789 16.0255 44.3433 15.7781 44.5256C15.5692 44.5753 15.1514 44.6692 14.9425 44.7189C11.2481 41.0576 7.76264 37.1645 3.88683 33.702C3.67792 33.5419 3.2656 33.2216 3.06219 33.0559C2.93574 32.9621 2.68834 32.7688 2.56739 32.6749C2.58388 37.1148 2.49044 41.5601 2.61688 46C1.74276 45.9669 0.879616 45.9448 0.0164928 45.9227C-0.0054976 30.6317 -0.0054976 15.3462 0.0164928 0.0607446ZM2.59487 4.62761C2.58937 11.2101 2.60039 17.7981 2.5839 24.3806C3.10617 24.1818 3.64494 23.9609 4.02977 23.5246C6.60265 20.9457 9.15352 18.3393 11.7484 15.7714C12.2377 15.3683 12.4246 14.7609 12.606 14.17C9.58233 11.3868 6.78406 8.37167 3.88132 5.46146C3.51298 5.09148 3.03468 4.87059 2.59487 4.62761Z" fill="url(#paint0_linear)"/>
<defs>
<linearGradient id="paint0_linear" x1="0" y1="0" x2="17" y2="46" gradientUnits="userSpaceOnUse">
<stop stop-color="#4D47B3"/>
<stop offset="0.9999" stop-color="#473FED"/>
<stop offset="1" stop-color="white" stop-opacity="0"/>
</linearGradient>
</defs>
</svg>
