<svg width="31" height="46" viewBox="0 0 31 46" fill="none" xmlns="http://www.w3.org/2000/svg">
<path d="M0.012345 0.0110627C1.04096 0.0331834 2.0751 0.0718947 3.10372 0.149317C2.94887 4.17529 2.8991 8.22891 3.11477 12.2493C11.1612 18.3547 19.556 24.0286 27.6632 30.062C27.9176 20.069 27.7241 10.0705 27.7683 0.0774306C28.7582 0.0497797 29.7536 0.0221207 30.7491 0C30.915 15.3131 30.7214 30.6317 30.8486 45.9447C29.82 45.9668 28.7969 45.9834 27.7738 46C27.7462 42.1455 27.8513 38.291 27.7462 34.4364C27.8291 33.535 26.8558 33.1202 26.2973 32.617C18.4942 27.1753 10.9344 21.3852 3.03735 16.0818C2.94334 26.0527 3.05947 36.0291 2.97652 46C1.99768 45.9945 1.01884 45.9945 0.0399976 45.9945C-0.0374249 30.6648 0.0234053 15.3352 0.012345 0.0110627Z" fill="url(#paint0_linear)"/>
<defs>
<linearGradient id="paint0_linear" x1="0" y1="0" x2="10.3081" y2="50.1644" gradientUnits="userSpaceOnUse">
<stop stop-color="#4D47B3"/>
<stop offset="0.9999" stop-color="#473FED"/>
<stop offset="1" stop-color="white" stop-opacity="0"/>
</linearGradient>
</defs>
</svg>
