<svg width="31" height="46" viewBox="0 0 31 46" fill="none" xmlns="http://www.w3.org/2000/svg">
<path d="M0.0242248 0.0551526C1.22648 0.0386079 2.42874 0.0275746 3.63099 0L3.93983 0.231617C7.65137 2.85121 11.4953 5.29984 15.3888 7.64368C19.3044 5.28329 23.1594 2.77401 26.9371 0.187505C28.1614 -0.0992707 29.4409 0.0551371 30.6927 0.0220476C30.8196 15.2984 30.6651 30.5747 30.7644 45.8511C29.7 45.8676 28.6301 45.8345 27.5768 45.7353C27.8856 37.3967 27.6264 29.0361 27.7147 20.692C28.1062 18.8335 26.1926 18.2103 24.9793 17.3775C21.9295 15.5411 19.0452 13.4509 15.9789 11.642C15.3226 11.1181 14.6112 11.7854 14.0321 12.0722C10.3371 14.3995 6.71935 16.8426 3.02987 19.1699C2.97472 26.4551 3.02434 33.7403 3.00228 41.031C3.0078 42.6855 2.86992 44.3731 3.31112 46C2.25225 45.8676 1.17133 45.8842 0.106945 45.8732C-0.102622 30.6023 0.0683442 15.326 0.0242248 0.0551526ZM3.02435 3.46888C3.01883 7.51683 2.92508 11.5648 3.0795 15.6128C6.28919 13.5943 9.52093 11.6089 12.6203 9.41949C9.39408 7.48375 6.38845 5.17299 3.02435 3.46888ZM18.1904 9.39192C21.185 11.6751 24.494 13.5171 27.6264 15.6072C27.7588 11.5538 27.7698 7.49478 27.6154 3.44683C24.3892 5.28881 21.356 7.45066 18.1904 9.39192Z" fill="url(#paint0_linear)"/>
<defs>
<linearGradient id="paint0_linear" x1="0" y1="0" x2="10.334" y2="50.1533" gradientUnits="userSpaceOnUse">
<stop stop-color="#4D47B3"/>
<stop offset="0.9999" stop-color="#473FED"/>
<stop offset="1" stop-color="white" stop-opacity="0"/>
</linearGradient>
</defs>
</svg>
