<svg width="33" height="46" viewBox="0 0 33 46" fill="none" xmlns="http://www.w3.org/2000/svg">
<path d="M15.8494 0C16.1771 0.0565041 16.8326 0.175165 17.1603 0.231669C22.4095 5.29444 27.4836 10.5324 32.6876 15.646C28.5515 19.9968 24.0821 24.0199 20.059 28.4781C19.8499 28.6589 19.4261 29.0092 19.2171 29.1844C19.0927 29.2861 18.8441 29.4838 18.7198 29.5799C23.1723 34.5014 28.1899 38.9709 32.7611 43.8076C31.9926 44.5309 31.2298 45.2542 30.4614 45.9718C26.0992 41.4627 21.5789 37.1063 17.2168 32.5972C16.9173 32.0887 16.0754 31.9644 15.7703 32.5351C11.363 37.0611 6.79745 41.4288 2.44098 46C1.49171 45.2033 0.6837 44.2653 0 43.2426C0.192114 43.1578 0.58199 42.9827 0.774104 42.8923C2.7687 42.0334 4.2152 40.31 5.25488 38.4511L5.32833 38.3324L5.52612 38.1742C8.40783 35.7954 10.8657 32.9476 13.5271 30.3258C14.143 29.8794 13.7079 29.0431 13.2502 28.6758C8.90506 24.3533 4.52598 20.0703 0.242964 15.6799C5.41309 10.425 10.7301 5.30574 15.8494 0ZM5.28312 15.0866C4.54292 15.9172 5.62216 16.6235 6.11375 17.1999C9.66786 20.5053 12.8773 24.1725 16.5218 27.3875C20.268 23.5566 24.1951 19.8951 27.8735 15.9963L27.9639 15.5499C24.3081 11.7303 20.5675 7.95578 16.7196 4.32822C16.4936 4.38472 16.0415 4.50904 15.8155 4.56554C12.2896 8.05185 8.78638 11.5777 5.28312 15.0866Z" fill="url(#paint0_linear)"/>
<defs>
<linearGradient id="paint0_linear" x1="0" y1="0" x2="9.75116" y2="50.3958" gradientUnits="userSpaceOnUse">
<stop stop-color="#4D47B3"/>
<stop offset="0.9999" stop-color="#473FED"/>
<stop offset="1" stop-color="white" stop-opacity="0"/>
</linearGradient>
</defs>
</svg>
