<svg width="414" height="414" viewBox="0 0 414 414" fill="none" xmlns="http://www.w3.org/2000/svg">
<circle cx="206.984" cy="207" r="199.5" stroke="white" stroke-opacity="0.4"/>
<circle cx="207" cy="207" r="206" stroke="white" stroke-opacity="0.4" stroke-width="2"/>
<line x1="207.484" y1="246" x2="207.484" y2="406" stroke="white" stroke-opacity="0.4"/>
<line x1="207.484" y1="8" x2="207.484" y2="168" stroke="white" stroke-opacity="0.4"/>
<circle cx="206.985" cy="206.999" r="30.5909" stroke="white" stroke-opacity="0.4"/>
<circle cx="207" cy="207" r="38.5" stroke="white" stroke-opacity="0.4"/>
<path d="M206.91 179.363C206.095 185.439 205.132 191.589 204.688 197.738C204.688 197.812 204.762 197.812 204.762 197.738C205.651 191.663 206.243 185.513 206.984 179.363C207.058 179.363 206.91 179.363 206.91 179.363Z" fill="white"/>
<path d="M206.91 179.436C207.725 185.586 208.244 191.736 209.133 197.811C209.133 197.885 209.207 197.811 209.207 197.811C208.762 191.662 207.799 185.512 206.984 179.436C207.058 179.362 206.91 179.362 206.91 179.436Z" fill="white"/>
<path d="M207.059 234.562C206.244 228.412 205.725 222.263 204.836 216.187C204.836 216.113 204.762 216.187 204.762 216.187C205.206 222.337 206.169 228.487 206.984 234.562C206.91 234.636 207.059 234.636 207.059 234.562Z" fill="white"/>
<path d="M207.06 234.636C207.875 228.56 208.838 222.41 209.282 216.261C209.282 216.187 209.208 216.187 209.208 216.261C208.319 222.336 207.727 228.486 206.986 234.636C206.911 234.636 207.06 234.636 207.06 234.636Z" fill="white"/>
<path d="M216.32 206.999C216.32 206.999 216.32 207.221 216.32 207.665C216.32 207.888 216.246 208.11 216.246 208.481C216.172 208.777 216.097 209.147 216.023 209.518C215.801 210.259 215.431 211.222 214.838 212.111C214.245 213.074 213.356 214.037 212.245 214.778C211.133 215.519 209.651 216.112 208.095 216.334C206.54 216.482 204.835 216.26 203.205 215.593C202.39 215.223 201.649 214.778 200.983 214.186C200.316 213.593 199.723 212.926 199.204 212.185C198.686 211.444 198.315 210.629 198.019 209.74C197.723 208.851 197.648 207.962 197.648 206.999C197.648 206.11 197.797 205.146 198.093 204.257C198.389 203.368 198.76 202.553 199.278 201.812C199.797 201.071 200.39 200.404 201.057 199.812C201.724 199.219 202.464 198.774 203.279 198.404C204.835 197.737 206.54 197.515 208.095 197.663C209.651 197.885 211.059 198.404 212.245 199.219C213.356 199.96 214.245 200.923 214.838 201.886C215.431 202.849 215.801 203.739 216.023 204.48C216.097 204.85 216.246 205.22 216.246 205.517C216.32 205.813 216.32 206.11 216.32 206.332C216.32 206.702 216.32 206.999 216.32 206.999ZM216.246 206.999C216.246 206.999 216.246 206.776 216.246 206.332C216.246 206.11 216.172 205.887 216.172 205.591C216.172 205.295 216.023 204.924 215.949 204.554C215.727 203.813 215.357 202.849 214.764 201.96C214.171 201.071 213.282 200.108 212.171 199.367C211.059 198.626 209.651 198.033 208.095 197.885C206.54 197.737 204.909 197.959 203.354 198.626C202.613 198.997 201.872 199.441 201.205 199.96C200.538 200.479 199.945 201.219 199.427 201.886C198.908 202.627 198.538 203.442 198.315 204.331C198.019 205.22 197.945 206.11 197.945 206.999C197.945 207.888 198.093 208.777 198.315 209.666C198.612 210.555 198.982 211.37 199.427 212.111C199.945 212.852 200.538 213.519 201.205 214.037C201.872 214.556 202.613 215.075 203.354 215.371C204.909 216.038 206.614 216.26 208.095 216.112C209.651 215.964 211.059 215.371 212.171 214.63C213.282 213.889 214.171 212.926 214.764 212.037C215.357 211.148 215.727 210.185 215.949 209.444C216.023 209.073 216.172 208.703 216.172 208.406C216.246 208.11 216.246 207.814 216.246 207.665C216.172 207.221 216.246 206.999 216.246 206.999Z" fill="white"/>
<path d="M215.654 207C215.654 207 215.654 207.223 215.654 207.593C215.654 207.815 215.654 208.038 215.58 208.334C215.58 208.63 215.506 208.927 215.357 209.297C215.135 210.038 214.839 210.853 214.246 211.742C213.653 212.631 212.838 213.52 211.801 214.187C210.764 214.928 209.43 215.447 207.948 215.595C206.466 215.743 204.91 215.521 203.429 214.928C202.688 214.632 202.021 214.187 201.354 213.669C200.687 213.15 200.168 212.483 199.65 211.816C199.205 211.149 198.835 210.334 198.538 209.519C198.316 208.704 198.168 207.815 198.168 207C198.168 206.111 198.316 205.296 198.538 204.481C198.761 203.666 199.131 202.851 199.65 202.184C200.094 201.517 200.687 200.851 201.354 200.332C202.021 199.813 202.688 199.369 203.429 199.072C204.91 198.406 206.54 198.183 207.948 198.406C209.43 198.554 210.764 199.147 211.801 199.813C212.838 200.554 213.653 201.443 214.246 202.258C214.839 203.148 215.135 203.963 215.357 204.703C215.431 205.074 215.506 205.37 215.58 205.667C215.654 205.963 215.654 206.185 215.654 206.408C215.654 206.778 215.654 207 215.654 207ZM215.58 207C215.58 207 215.58 206.778 215.58 206.408C215.58 206.185 215.58 205.963 215.506 205.667C215.506 205.37 215.431 205.074 215.283 204.703C215.061 203.963 214.765 203.148 214.172 202.258C213.579 201.369 212.838 200.554 211.727 199.813C210.69 199.147 209.356 198.628 207.948 198.406C206.54 198.257 204.984 198.48 203.503 199.072C202.762 199.369 202.095 199.813 201.502 200.332C200.909 200.851 200.317 201.443 199.872 202.184C199.428 202.851 199.057 203.666 198.835 204.407C198.613 205.222 198.464 206.037 198.464 206.852C198.464 207.667 198.613 208.556 198.835 209.297C199.057 210.112 199.428 210.853 199.872 211.52C200.317 212.187 200.909 212.854 201.502 213.372C202.095 213.891 202.836 214.335 203.503 214.632C204.91 215.299 206.54 215.521 207.948 215.299C209.356 215.15 210.69 214.632 211.727 213.891C212.764 213.224 213.579 212.335 214.172 211.446C214.765 210.557 215.061 209.742 215.283 209.001C215.357 208.63 215.431 208.334 215.506 208.038C215.58 207.741 215.58 207.519 215.58 207.297C215.58 207.149 215.58 207 215.58 207Z" fill="white"/>
<path d="M234.622 207.148C228.472 206.259 222.248 205.296 216.099 204.777C216.024 204.777 216.024 204.851 216.099 204.851C222.248 205.815 228.472 206.407 234.622 207.222C234.622 207.296 234.622 207.148 234.622 207.148Z" fill="white"/>
<path d="M234.548 207.148C228.399 207.889 222.249 208.408 216.174 209.223C216.099 209.223 216.174 209.297 216.174 209.297C222.323 208.853 228.473 208.038 234.548 207.223C234.623 207.297 234.623 207.148 234.548 207.148Z" fill="white"/>
<path d="M179.423 206.852C185.572 206.111 191.796 205.518 197.946 204.703C198.02 204.703 197.946 204.629 197.946 204.629C191.722 205.073 185.572 205.963 179.423 206.778C179.349 206.703 179.349 206.852 179.423 206.852Z" fill="white"/>
<path d="M179.348 206.851C185.423 207.74 191.573 208.703 197.723 209.222C197.797 209.222 197.797 209.148 197.723 209.148C191.647 208.184 185.497 207.592 179.348 206.777C179.348 206.703 179.348 206.851 179.348 206.851Z" fill="white"/>
<path d="M222.544 191.367C219.062 193.96 215.135 196.035 211.875 198.924C211.875 198.924 211.875 198.998 211.949 198.998C215.506 196.479 219.21 194.108 222.618 191.515C222.692 191.367 222.618 191.293 222.544 191.367Z" fill="white"/>
<path d="M222.546 191.367C219.879 194.849 217.582 198.479 215.062 202.036C215.062 202.036 215.063 202.11 215.137 202.11C217.952 198.85 220.101 194.923 222.694 191.441C222.694 191.367 222.62 191.293 222.546 191.367Z" fill="white"/>
<path d="M191.426 222.634C194.093 219.152 196.39 215.521 198.909 211.965C198.909 211.965 198.909 211.891 198.835 211.891C196.019 215.151 193.871 219.078 191.277 222.56C191.277 222.634 191.351 222.708 191.426 222.634Z" fill="white"/>
<path d="M191.425 222.633C194.907 220.04 198.834 217.966 202.094 215.076C202.094 215.076 202.094 215.002 202.02 215.002C198.464 217.521 194.759 219.892 191.351 222.485C191.277 222.633 191.351 222.708 191.425 222.633Z" fill="white"/>
<path d="M222.542 222.706C220.023 219.224 217.948 215.297 215.133 211.963C215.133 211.963 215.059 211.963 215.059 212.037C217.504 215.593 219.875 219.298 222.468 222.78C222.468 222.78 222.542 222.78 222.542 222.706Z" fill="white"/>
<path d="M222.47 222.706C218.987 220.038 215.283 217.593 211.726 215C211.726 215 211.652 215 211.652 215.074C214.986 217.964 218.913 220.186 222.396 222.854C222.47 222.78 222.544 222.706 222.47 222.706Z" fill="white"/>
<path d="M191.502 191.293C194.91 193.96 198.615 196.331 202.171 198.85C202.171 198.85 202.245 198.85 202.245 198.776C198.985 195.886 195.132 193.738 191.65 191.145C191.502 191.219 191.428 191.293 191.502 191.293Z" fill="white"/>
<path d="M191.426 191.293C193.945 194.775 196.02 198.702 198.835 202.036C198.835 202.036 198.909 202.036 198.909 201.962C196.464 198.406 194.093 194.701 191.5 191.219C191.5 191.219 191.426 191.219 191.426 191.293Z" fill="white"/>
<path d="M212.689 193.515C211.577 195.071 210.392 196.331 209.132 197.738C209.058 197.812 209.132 197.887 209.206 197.812C209.873 197.368 210.466 196.627 210.91 196.034C211.577 195.219 212.17 194.404 212.763 193.589C212.837 193.515 212.689 193.441 212.689 193.515Z" fill="white"/>
<path d="M212.542 193.886C212.393 194.627 212.245 195.442 212.097 196.183C211.949 196.923 211.652 197.738 211.727 198.479C211.727 198.553 211.801 198.553 211.801 198.479C212.245 196.998 212.393 195.367 212.616 193.886C212.69 193.812 212.542 193.812 212.542 193.886Z" fill="white"/>
<path d="M215.06 202.332C215.653 202.406 216.32 202.258 216.913 202.184C217.802 202.036 218.617 201.666 219.506 201.443C219.58 201.443 219.58 201.369 219.506 201.369C218.024 201.369 216.616 202.258 215.134 202.332C214.986 202.258 214.986 202.332 215.06 202.332Z" fill="white"/>
<path d="M216.025 204.554C216.618 204.406 216.988 203.887 217.507 203.517C218.322 202.924 219.063 202.331 219.804 201.739C219.878 201.665 219.804 201.516 219.73 201.591C218.989 202.109 218.322 202.628 217.655 203.146C217.137 203.517 216.618 204.184 216.025 204.406C215.877 204.48 215.877 204.628 216.025 204.554Z" fill="white"/>
<path d="M214.839 212.039C215.654 212.261 216.543 212.261 217.358 212.261C218.766 212.335 220.174 212.409 221.656 212.409C220.544 212.335 219.359 212.187 218.248 212.113C217.21 212.039 215.951 212.113 214.913 211.891C214.839 211.891 214.765 212.039 214.839 212.039Z" fill="white"/>
<path d="M216.097 209.297C217.875 210.482 219.654 211.593 221.654 212.409C221.728 212.409 221.728 212.334 221.654 212.334C219.876 211.223 218.023 210.186 216.171 209.148C216.097 209.223 216.023 209.297 216.097 209.297Z" fill="white"/>
<path d="M209.058 216.188C209.28 216.41 209.428 216.707 209.577 217.003C209.799 217.373 210.169 217.67 210.392 217.966C211.133 218.707 211.799 219.522 212.614 220.189C212.689 220.189 212.763 220.189 212.689 220.115C212.17 219.3 211.429 218.633 210.762 217.892C210.392 217.522 210.021 217.151 209.725 216.707C209.577 216.41 209.428 216.188 209.132 216.04C209.058 215.966 208.984 216.114 209.058 216.188Z" fill="white"/>
<path d="M211.652 215.001C211.652 215.816 211.949 216.631 212.097 217.446C212.245 218.261 212.245 219.224 212.541 220.039H212.616C212.541 219.298 212.541 218.483 212.393 217.742C212.171 216.853 211.949 215.964 211.801 215.001C211.801 214.927 211.652 214.927 211.652 215.001Z" fill="white"/>
<path d="M201.87 215.224C201.722 215.891 201.5 216.706 201.426 217.447C201.426 218.41 201.5 219.3 201.574 220.263C201.574 220.337 201.648 220.337 201.648 220.263C201.722 219.448 201.722 218.633 201.722 217.818C201.796 216.929 202.093 216.188 201.944 215.299C202.019 215.15 201.87 215.15 201.87 215.224Z" fill="white"/>
<path d="M204.538 216.187C203.723 217.669 202.315 218.855 201.574 220.41C201.574 220.485 201.574 220.485 201.648 220.485C202.241 219.892 202.686 219.077 203.204 218.41C203.649 217.743 204.39 217.002 204.612 216.187C204.612 216.187 204.538 216.113 204.538 216.187Z" fill="white"/>
<path d="M197.648 209.149C197.055 209.742 196.314 210.187 195.647 210.631C194.906 211.224 194.091 211.743 193.276 212.335C193.128 212.409 193.276 212.632 193.424 212.558C194.239 212.113 195.054 211.52 195.795 210.927C196.462 210.409 197.203 209.964 197.796 209.297C197.87 209.149 197.722 209.001 197.648 209.149Z" fill="white"/>
<path d="M193.203 212.63C194.833 212.334 196.537 212.556 198.167 212.26C198.241 212.26 198.241 212.186 198.167 212.186C197.204 212.26 196.167 212.26 195.204 212.334C194.537 212.334 193.796 212.186 193.203 212.63C193.203 212.556 193.203 212.63 193.203 212.63Z" fill="white"/>
<path d="M192.609 200.702C192.979 201.369 193.943 201.962 194.609 202.406C195.647 203.147 196.906 203.666 197.869 204.481H197.944C197.277 203.814 196.388 203.295 195.647 202.777C195.128 202.48 194.683 202.11 194.165 201.739C193.72 201.443 193.053 201.072 192.757 200.628C192.757 200.48 192.535 200.628 192.609 200.702Z" fill="white"/>
<path d="M192.831 200.553C193.127 200.627 193.498 200.85 193.794 200.924C194.313 200.998 194.831 201.146 195.276 201.22C196.313 201.442 197.351 201.739 198.388 201.961C198.462 201.961 198.462 201.887 198.388 201.887C197.276 201.442 196.165 201.146 194.98 200.924C194.387 200.776 193.424 200.331 192.831 200.553C192.683 200.553 192.757 200.627 192.757 200.627C192.757 200.627 192.757 200.627 192.831 200.627C192.905 200.627 192.905 200.553 192.831 200.553Z" fill="white"/>
<path d="M201.502 192.106C201.428 194.181 201.502 196.552 201.873 198.626C201.873 198.701 201.947 198.701 201.947 198.626C202.243 196.478 201.799 194.255 201.576 192.106C201.651 192.032 201.502 192.032 201.502 192.106Z" fill="white"/>
<path d="M201.501 192.181C202.76 193.811 203.353 195.886 204.538 197.664H204.613C204.316 196.701 203.798 195.886 203.427 194.996C202.983 193.959 202.538 192.922 201.649 192.107C201.575 192.033 201.427 192.107 201.501 192.181Z" fill="white"/>
<path d="M206.541 188.55C206.097 191.587 205.726 194.625 205.578 197.737C205.578 197.737 205.652 197.811 205.652 197.737C206.171 194.699 206.245 191.587 206.541 188.55C206.615 188.476 206.615 188.476 206.541 188.55Z" fill="white"/>
<path d="M206.761 192.107C206.761 193.737 206.539 195.293 206.613 196.923H206.687C206.835 195.367 206.835 193.737 206.761 192.107C206.835 192.107 206.761 192.107 206.761 192.107Z" fill="white"/>
<path d="M207.579 194.849C207.505 195.589 207.653 196.33 207.727 197.071H207.801C207.801 196.33 207.579 195.589 207.579 194.849C207.653 194.774 207.579 194.774 207.579 194.849Z" fill="white"/>
<path d="M206.91 182.179C207.355 185.809 207.873 189.514 208.318 193.144C208.022 189.44 207.503 185.809 206.984 182.179C206.984 182.105 206.91 182.105 206.91 182.179Z" fill="white"/>
<path d="M208.168 193.515C208.39 194.848 208.168 196.404 208.761 197.664C208.761 197.738 208.835 197.664 208.835 197.664C208.464 196.33 208.538 194.848 208.242 193.515C208.242 193.44 208.168 193.44 208.168 193.515Z" fill="white"/>
<path d="M209.799 197.813C210.243 197.294 210.762 196.85 211.206 196.331C211.651 195.812 211.947 195.146 212.466 194.701V194.627C211.947 194.997 211.725 195.59 211.354 196.109C210.836 196.702 210.243 197.22 209.799 197.813C209.724 197.813 209.799 197.887 209.799 197.813Z" fill="white"/>
<path d="M210.687 198.035C210.687 197.739 210.984 197.443 211.132 197.22C211.28 196.998 211.428 196.702 211.576 196.479C211.576 196.405 211.576 196.405 211.502 196.479C211.28 196.776 211.058 197.072 210.835 197.369C210.687 197.591 210.539 197.739 210.539 198.035C210.613 198.035 210.687 198.035 210.687 198.035Z" fill="white"/>
<path d="M211.949 196.183C211.8 196.553 211.726 196.924 211.726 197.294C211.652 197.813 211.578 198.258 211.578 198.702C211.578 198.776 211.652 198.776 211.652 198.702C211.726 197.887 211.726 196.998 212.023 196.257C212.023 196.183 211.949 196.109 211.949 196.183Z" fill="white"/>
<path d="M212.617 199.368C213.654 198.775 214.395 197.886 215.284 197.071C216.396 196.108 217.581 195.145 218.618 194.107C218.618 194.107 218.618 194.033 218.544 194.033C217.581 194.996 216.47 195.811 215.432 196.626C214.395 197.441 213.58 198.553 212.469 199.22C212.469 199.294 212.543 199.368 212.617 199.368Z" fill="white"/>
<path d="M213.504 199.516C214.319 198.923 214.986 198.182 215.727 197.515C216.69 196.7 217.727 195.959 218.542 194.996C218.542 194.996 218.542 194.922 218.468 194.922C217.653 195.737 216.764 196.404 215.801 197.145C215.06 197.886 214.393 198.775 213.504 199.516Z" fill="white"/>
<path d="M220.541 193.516C218.911 196.109 216.689 198.183 215.059 200.777C215.059 200.777 215.059 200.851 215.133 200.851C216.985 198.406 219.06 196.257 220.541 193.516C220.616 193.516 220.541 193.516 220.541 193.516Z" fill="white"/>
<path d="M215.356 202.924C216.468 202.924 217.505 202.257 218.468 201.812V201.738C217.431 202.035 216.468 202.701 215.356 202.776C215.282 202.85 215.282 202.924 215.356 202.924Z" fill="white"/>
<path d="M216.023 203.592C216.69 203.296 217.282 202.999 217.875 202.629C217.949 202.629 217.875 202.555 217.801 202.555C217.208 202.851 216.541 203.147 215.949 203.444C215.875 203.444 215.949 203.592 216.023 203.592Z" fill="white"/>
<path d="M216.247 205.889C220.618 206.333 224.842 207.148 229.361 207C229.435 207 229.435 206.926 229.361 206.926C224.99 206.852 220.693 205.963 216.247 205.814C216.173 205.814 216.173 205.889 216.247 205.889Z" fill="white"/>
<path d="M216.246 206.777C218.617 207.222 221.284 206.851 223.655 206.703C223.729 206.703 223.729 206.629 223.655 206.629C221.284 206.629 218.691 207.073 216.246 206.777Z" fill="white"/>
<path d="M217.876 207.591C221.729 207.443 225.656 207.147 229.508 206.999C229.582 206.999 229.582 206.925 229.508 206.925C225.656 206.776 221.729 207.295 217.876 207.517C217.802 207.443 217.802 207.591 217.876 207.591Z" fill="white"/>
<path d="M216.024 209.075C218.173 209.075 220.396 208.705 222.544 208.557C222.619 208.557 222.619 208.482 222.544 208.482C220.396 208.557 218.173 208.927 216.024 209.001C215.95 209.001 215.95 209.075 216.024 209.075Z" fill="white"/>
<path d="M216.247 210.111C217.729 210.704 219.062 211.445 220.47 212.112C220.47 212.112 220.544 212.112 220.47 212.037C219.062 211.297 217.729 210.482 216.247 209.963C216.173 209.963 216.173 210.037 216.247 210.111Z" fill="white"/>
<path d="M215.951 210.334C216.099 210.704 216.544 210.778 216.914 210.926C217.877 211.223 218.766 211.741 219.656 212.038C219.656 212.038 219.73 212.038 219.656 211.964C218.989 211.593 218.248 211.297 217.581 211.001C217.21 210.852 216.247 210.778 215.951 210.334C215.951 210.26 215.877 210.334 215.951 210.334Z" fill="white"/>
<path d="M215.134 211.741C215.357 211.963 215.653 211.889 215.95 211.963C216.468 212.112 216.913 212.112 217.431 212.186C217.505 212.186 217.505 212.112 217.431 212.112C217.061 212.037 216.69 212.037 216.246 211.963C216.098 211.963 215.95 211.889 215.727 211.889C215.579 211.741 215.357 211.741 215.134 211.741C215.134 211.667 215.06 211.667 215.134 211.741Z" fill="white"/>
<path d="M214.688 212.853C214.688 212.704 214.614 212.778 214.614 212.927C214.688 213.149 214.911 213.371 215.059 213.593C215.355 214.038 215.726 214.483 216.022 214.853C217.134 216.187 218.097 217.594 219.134 219.002H219.208C218.541 217.891 217.8 216.779 216.985 215.742C216.17 214.705 215.281 213.742 214.614 212.63C214.614 212.556 214.466 212.63 214.54 212.704C214.54 212.853 214.614 212.853 214.688 212.853C214.614 212.927 214.688 212.927 214.688 212.853Z" fill="white"/>
<path d="M214.172 213.593C215.728 215.742 217.654 217.594 219.581 219.372C219.581 219.372 219.655 219.372 219.655 219.298C217.802 217.446 215.95 215.594 214.32 213.519C214.246 213.445 214.172 213.519 214.172 213.593Z" fill="white"/>
<path d="M212.32 214.78C212.987 216.04 214.839 217.077 215.951 217.892C217.729 219.226 219.507 220.633 221.36 221.745C221.36 221.745 221.434 221.745 221.434 221.671C219.952 220.559 218.544 219.374 217.062 218.263C216.025 217.522 214.988 216.707 214.024 215.966C213.506 215.595 212.691 215.225 212.32 214.78C212.32 214.706 212.32 214.706 212.32 214.78Z" fill="white"/>
<path d="M214.023 214.556C214.838 215.445 215.653 216.26 216.543 217.076C217.358 217.891 218.173 218.78 218.988 219.521C219.062 219.521 219.062 219.521 219.062 219.446C217.432 217.816 215.876 216.112 214.023 214.556C214.098 214.482 214.023 214.556 214.023 214.556Z" fill="white"/>
<path d="M209.579 216.262C210.098 216.855 210.543 217.448 210.987 218.114C211.283 218.559 211.58 219.078 211.95 219.448H212.024C211.654 219.004 211.432 218.411 211.061 217.892C210.617 217.299 210.172 216.707 209.653 216.114C209.653 216.04 209.505 216.188 209.579 216.262Z" fill="white"/>
<path d="M210.465 216.188C210.909 217.151 211.502 218.04 212.021 218.929H212.095C211.873 217.892 211.132 217.003 210.687 216.114C210.613 215.966 210.465 216.04 210.465 216.188Z" fill="white"/>
<path d="M211.504 215.964C211.652 216.409 211.874 216.779 211.874 217.224C211.874 217.298 211.948 217.298 211.948 217.224C211.948 216.779 211.726 216.335 211.578 215.89C211.652 215.816 211.504 215.89 211.504 215.964Z" fill="white"/>
<path d="M205.355 216.927C205.874 218.409 205.8 220.262 205.948 221.743C206.096 223.522 206.245 225.3 206.689 227.004C206.689 227.078 206.763 227.004 206.763 227.004C206.467 225.004 206.245 223.003 206.096 221.003C205.948 219.743 205.948 218.187 205.355 216.927C205.43 216.853 205.355 216.927 205.355 216.927Z" fill="white"/>
<path d="M206.393 217.52C205.948 222.188 207.06 227.152 207.282 231.82H207.356C207.579 227.078 206.319 222.262 206.467 217.52C206.467 217.446 206.393 217.446 206.393 217.52Z" fill="white"/>
<path d="M208.541 217.521C207.652 221.152 207.355 224.931 207.207 228.635C207.207 228.709 207.281 228.709 207.281 228.635C207.577 224.931 208.022 221.226 208.615 217.596C208.615 217.521 208.541 217.521 208.541 217.521Z" fill="white"/>
<path d="M207.429 217.965C207.429 219.15 207.281 220.336 207.133 221.521C207.133 221.595 207.281 221.595 207.281 221.521C207.429 220.336 207.651 219.15 207.503 217.965C207.503 217.816 207.429 217.816 207.429 217.965Z" fill="white"/>
<path d="M202.464 215.446C202.464 215.372 202.464 215.372 202.464 215.298C202.464 215.224 202.39 215.224 202.39 215.298C202.167 216.409 201.871 217.521 201.797 218.632C201.797 218.706 201.871 218.706 201.871 218.632C202.019 217.965 202.167 217.372 202.316 216.78C202.39 216.557 202.464 216.261 202.464 216.039C202.464 215.89 202.464 215.742 202.464 215.594C202.538 215.52 202.464 215.298 202.464 215.446Z" fill="white"/>
<path d="M203.206 215.521C203.132 215.892 202.91 216.262 202.836 216.633C202.761 217.077 202.687 217.522 202.613 217.966C202.613 218.04 202.687 218.04 202.687 217.966C202.761 217.522 202.836 216.929 203.058 216.484C203.206 216.188 203.28 215.892 203.28 215.521C203.28 215.521 203.206 215.447 203.206 215.521Z" fill="white"/>
<path d="M202.911 217.817C203.43 217.224 203.652 216.483 204.245 215.965C204.319 215.965 204.245 215.891 204.171 215.891C203.504 216.261 203.281 217.15 202.911 217.817C202.837 217.817 202.837 217.817 202.911 217.817Z" fill="white"/>
<path d="M193.723 220.559C194.612 219.077 195.575 217.743 196.539 216.336C197.279 215.298 198.391 214.113 198.613 212.853C198.613 212.853 198.539 212.779 198.539 212.853C198.095 214.113 197.205 215.224 196.39 216.336C195.427 217.669 194.464 219.077 193.575 220.559C193.501 220.559 193.649 220.633 193.723 220.559Z" fill="white"/>
<path d="M195.501 219.002C196.835 217.075 198.094 215.149 199.428 213.222C199.428 213.222 199.428 213.148 199.354 213.222C197.872 215.001 196.686 217.001 195.501 219.002C195.427 219.002 195.427 219.002 195.501 219.002Z" fill="white"/>
<path d="M194.981 219.448C196.167 218.707 197.13 217.818 198.316 217.077C199.279 216.484 200.242 215.891 201.057 215.15C201.057 215.15 201.057 215.076 200.983 215.076C198.908 216.41 196.908 217.818 194.981 219.448C194.907 219.448 194.907 219.448 194.981 219.448Z" fill="white"/>
<path d="M194.834 219.076C195.945 218.113 197.131 217.223 198.316 216.408C199.279 215.816 200.317 215.075 201.132 214.334C201.132 214.334 201.132 214.26 201.057 214.26C198.909 215.742 196.834 217.298 194.834 219.076C194.76 219.076 194.834 219.076 194.834 219.076Z" fill="white"/>
<path d="M199.277 214.78C199.573 214.336 200.092 213.965 200.314 213.447C200.314 213.372 200.24 213.298 200.166 213.372C199.796 213.817 199.499 214.262 199.129 214.706C199.129 214.78 199.277 214.854 199.277 214.78Z" fill="white"/>
<path d="M195.426 211.371C195.87 211.445 196.315 211.223 196.759 211C197.278 210.778 197.871 210.63 198.315 210.185C198.315 210.185 198.315 210.111 198.241 210.111C197.797 210.26 197.426 210.482 196.982 210.704C196.463 211 196.019 211.297 195.426 211.371C195.426 211.297 195.426 211.371 195.426 211.371Z" fill="white"/>
<path d="M196.242 211.52C196.909 211.446 197.724 211.297 198.391 211.149C198.391 211.149 198.465 211.075 198.391 211.075C197.724 210.927 196.909 211.297 196.242 211.52C196.242 211.446 196.242 211.52 196.242 211.52Z" fill="white"/>
<path d="M194.61 212.038C195.277 212.038 195.944 211.964 196.537 211.816C197.278 211.668 198.018 211.668 198.759 211.593C198.834 211.593 198.834 211.519 198.759 211.519C197.352 211.223 196.018 211.816 194.61 211.964C194.536 211.89 194.536 212.038 194.61 212.038Z" fill="white"/>
<path d="M183.348 206.851C185.645 206.48 188.756 207.444 190.979 207.74C192.757 207.962 194.98 207.74 196.684 208.333C196.758 208.333 196.758 208.259 196.684 208.259C196.017 208.036 195.277 208.036 194.536 207.962C192.683 207.814 190.831 207.592 188.979 207.295C187.349 207.147 185.126 206.48 183.348 206.851Z" fill="white"/>
<path d="M190.165 207.223C192.462 207.297 194.685 207.964 196.981 207.889C197.056 207.889 197.056 207.815 196.981 207.815C194.759 207.667 192.462 207.223 190.165 207.223C190.091 207.223 190.091 207.223 190.165 207.223Z" fill="white"/>
<path d="M187.349 206.408C190.609 206.408 193.869 206.334 197.129 206.26C197.203 206.26 197.203 206.186 197.129 206.186C193.869 206.186 190.609 206.334 187.349 206.334C187.274 206.334 187.274 206.408 187.349 206.408Z" fill="white"/>
<path d="M193.278 205.74C194.76 205.665 196.242 205.665 197.724 205.517C197.798 205.517 197.798 205.443 197.724 205.443C196.242 205.221 194.76 205.591 193.278 205.665C193.204 205.665 193.204 205.74 193.278 205.74Z" fill="white"/>
<path d="M194.017 201.072C194.388 201.294 194.758 201.665 195.129 201.887C195.573 202.109 196.018 202.332 196.388 202.702C196.833 203.072 197.5 203.739 198.166 203.813C198.241 203.813 198.241 203.739 198.166 203.665C197.5 203.443 196.833 202.776 196.24 202.332C195.87 202.109 195.499 201.887 195.129 201.739C194.832 201.517 194.462 201.22 194.017 201.072C194.017 200.998 193.943 201.072 194.017 201.072Z" fill="white"/>
<path d="M195.205 201.295C195.575 201.591 196.094 201.739 196.538 201.961C197.205 202.258 197.872 202.554 198.613 202.776C198.687 202.776 198.687 202.702 198.613 202.702C197.576 202.11 196.168 201.961 195.205 201.295C195.205 201.221 195.131 201.295 195.205 201.295Z" fill="white"/>
<path d="M193.646 193.59C194.832 195.071 196.017 196.479 197.203 197.961C198.018 198.924 198.833 200.332 199.944 200.999C200.018 201.073 200.092 200.925 200.018 200.851C198.833 200.11 197.869 198.48 196.98 197.442C195.795 196.183 194.758 194.849 193.646 193.59C193.646 193.515 193.572 193.59 193.646 193.59Z" fill="white"/>
<path d="M197.203 196.923C197.722 197.664 198.389 198.331 198.981 199.071C199.352 199.59 199.796 200.183 200.315 200.479C200.463 200.553 200.537 200.405 200.389 200.331C199.796 199.886 199.352 199.368 198.907 198.775C198.463 198.108 197.796 197.515 197.203 196.923C197.277 196.849 197.203 196.849 197.203 196.923Z" fill="white"/>
<path d="M199.129 197.663C199.722 198.33 200.388 199.293 201.203 199.664C201.278 199.664 201.352 199.59 201.278 199.516C200.907 199.219 200.537 198.923 200.166 198.627C199.796 198.33 199.499 197.96 199.129 197.589C199.203 197.515 199.129 197.589 199.129 197.663Z" fill="white"/>
<path d="M202.094 193.589C202.094 194.552 202.464 195.589 202.612 196.552C202.686 196.997 202.761 198.108 203.205 198.331C203.279 198.331 203.279 198.331 203.279 198.257C202.909 196.701 202.39 195.145 202.094 193.589C202.168 193.515 202.094 193.515 202.094 193.589Z" fill="white"/>
<path d="M203.059 195.738C202.984 196.257 203.281 196.627 203.429 197.072C203.503 197.442 203.651 197.887 203.948 198.109C204.022 198.109 204.096 198.109 204.022 198.035C203.948 197.664 203.725 197.368 203.577 196.998C203.429 196.553 203.059 196.257 203.133 195.738C203.133 195.664 203.059 195.738 203.059 195.738Z" fill="white"/>
<path d="M206.688 198.258C203.798 200.481 200.686 203.815 201.724 207.816C202.687 211.594 204.91 214.41 208.91 215.003C208.985 215.003 208.985 214.929 208.91 214.929C205.132 213.669 202.983 211.669 201.946 207.742C200.909 203.815 203.946 200.555 206.688 198.332C206.836 198.332 206.762 198.258 206.688 198.258Z" fill="white"/>
<path d="M202.318 202.183C200.762 204.406 200.614 206.925 201.8 209.37C201.8 209.444 201.874 209.37 201.874 209.37C201.059 206.777 200.836 204.628 202.392 202.257C202.466 202.183 202.392 202.109 202.318 202.183Z" fill="white"/>
<path d="M200.612 204.406C200.39 205.591 200.242 206.703 200.612 207.962C200.612 208.036 200.686 207.962 200.686 207.962C200.39 206.703 200.464 205.739 200.686 204.48C200.686 204.406 200.612 204.332 200.612 204.406Z" fill="white"/>
<path d="M200.762 201.814C200.984 201.295 201.577 200.776 201.947 200.406C202.54 199.887 203.207 199.517 203.948 199.146C204.022 199.146 203.948 199.072 203.874 199.072C203.133 199.369 202.466 199.813 201.873 200.406C201.503 200.702 200.91 201.295 200.762 201.814Z" fill="white"/>
<path d="M201.947 201.073C202.614 200.11 203.651 199.888 204.54 199.295V199.221C203.577 199.591 202.54 200.11 201.947 201.073C201.873 201.073 201.947 201.073 201.947 201.073Z" fill="white"/>
<path d="M200.168 211.001C200.613 212.038 201.057 212.631 201.946 213.298C202.835 213.89 203.947 214.483 204.984 214.557C205.058 214.557 205.058 214.483 204.984 214.483C204.095 214.113 203.132 213.816 202.317 213.298C201.428 212.705 200.761 211.964 200.168 211.001C200.242 210.927 200.168 210.927 200.168 211.001Z" fill="white"/>
<path d="M202.02 212.556C202.242 213.668 203.946 214.186 204.909 214.112C204.983 214.112 204.983 214.038 204.909 214.038C204.02 213.89 202.39 213.594 202.094 212.556C202.094 212.482 202.02 212.556 202.02 212.556Z" fill="white"/>
<path d="M207.059 199.59C207.874 199.442 208.689 199.59 209.505 199.887C210.023 200.109 210.32 200.85 210.542 201.368C210.542 201.442 210.69 201.368 210.69 201.368C210.542 199.516 208.541 199.072 207.059 199.59C206.985 199.59 206.985 199.664 207.059 199.59Z" fill="white"/>
<path d="M208.91 200.331C209.651 200.479 209.873 200.998 209.502 201.887C209.28 202.109 208.984 202.183 208.613 202.183C208.317 202.183 207.947 202.183 207.724 202.257C207.28 202.406 206.835 202.702 206.687 203.147C206.391 204.184 207.131 205.147 208.169 205.147C208.243 205.147 208.243 205.073 208.169 205.073C207.65 204.999 207.28 204.777 206.983 204.332C206.316 203.221 207.428 202.554 208.391 202.554C208.836 202.554 209.28 202.48 209.577 202.183C210.392 201.516 209.651 200.479 208.836 200.405C208.836 200.257 208.836 200.331 208.91 200.331Z" fill="white"/>
<path d="M208.391 203.146C208.095 203.369 207.65 203.665 207.873 204.11C208.095 204.48 208.465 204.554 208.836 204.554C208.91 204.554 208.91 204.48 208.836 204.48C208.688 204.406 208.465 204.258 208.317 204.184C207.873 203.961 208.169 203.517 208.465 203.295C208.539 203.221 208.465 203.146 208.391 203.146Z" fill="white"/>
<path d="M209.132 203.517C208.984 203.814 209.132 204.036 209.429 204.11C209.429 204.11 209.503 204.036 209.429 204.036C209.281 203.962 209.206 203.814 209.206 203.592C209.206 203.443 209.132 203.443 209.132 203.517Z" fill="white"/>
<path d="M211.356 200.85C212.394 201.517 213.283 202.332 213.357 203.592C213.431 204.926 212.468 205.815 211.505 206.556C211.43 206.556 211.505 206.63 211.579 206.63C214.172 205.296 214.172 201.962 211.356 200.85C211.282 200.776 211.282 200.776 211.356 200.85Z" fill="white"/>
<path d="M212.097 203.665C212.022 204.184 211.948 204.628 211.578 204.999C211.282 205.369 210.837 205.517 210.467 205.74C210.392 205.74 210.467 205.814 210.467 205.814C211.578 205.665 212.097 204.702 212.171 203.665C212.245 203.591 212.097 203.591 212.097 203.665Z" fill="white"/>
<path d="M211.354 203.222C211.428 203.888 210.909 204.185 210.465 204.481V204.555C211.058 204.259 211.502 203.888 211.428 203.222C211.502 203.147 211.354 203.147 211.354 203.222Z" fill="white"/>
<path d="M205.724 201.517C204.539 202.406 203.576 203.74 203.427 205.222C203.353 206.111 204.02 207.667 205.132 207.222C205.206 207.222 205.206 207.074 205.132 207.074C203.724 206.926 203.65 205.296 203.946 204.258C204.242 203.221 204.983 202.332 205.798 201.591C205.873 201.517 205.798 201.443 205.724 201.517Z" fill="white"/>
<path d="M204.686 204.851C204.686 205.37 204.612 205.889 204.761 206.333C204.909 206.63 205.131 207 205.502 206.778V206.704C205.057 206.778 204.909 206.037 204.909 205.74C204.909 205.444 204.909 205.148 204.909 204.851C204.909 204.703 204.686 204.703 204.686 204.851Z" fill="white"/>
<path d="M205.43 205.296C205.504 205.667 205.578 206.037 205.948 206.185C206.022 206.185 206.022 206.111 206.022 206.111C205.726 205.889 205.726 205.518 205.652 205.222C205.578 205.148 205.43 205.222 205.43 205.296Z" fill="white"/>
<path d="M206.318 207.889C206.763 207.222 207.355 206.481 208.17 206.259C208.837 206.037 209.504 206.704 209.875 207.148C210.245 207.593 210.171 208.185 210.171 208.778H210.245C210.393 208.111 210.467 207.593 210.097 207C209.8 206.481 209.282 206.111 208.763 205.963C207.652 205.592 206.689 207.074 206.318 207.889C206.244 207.889 206.318 207.889 206.318 207.889Z" fill="white"/>
<path d="M206.837 207.889C207.355 207.445 208.022 206.926 208.763 207.296C209.208 207.519 209.06 208.185 209.134 208.556H209.208C209.356 208.037 209.356 207.37 208.763 207.074C208.022 206.704 207.281 207.37 206.837 207.889C206.763 207.889 206.763 207.889 206.837 207.889Z" fill="white"/>
<path d="M207.799 208.557C208.244 208.482 208.318 208.779 208.614 209.001H208.689C208.689 208.482 208.17 208.26 207.725 208.408C207.577 208.408 207.651 208.631 207.799 208.557Z" fill="white"/>
<path d="M212.614 207.222C213.206 207 213.503 208.334 213.577 208.63C213.725 209.297 213.651 210.038 213.355 210.705C212.688 212.038 210.539 212.853 209.872 211.075C209.872 211.001 209.724 211.001 209.798 211.075C210.02 212.928 212.095 212.483 213.132 211.52C213.873 210.853 214.021 209.89 213.947 208.927C213.873 208.26 213.577 207.222 212.836 207.074C212.836 207.074 212.836 207.074 212.762 207.074C212.688 207.148 212.614 207.222 212.614 207.222Z" fill="white"/>
<path d="M211.875 208.63C212.245 209.075 212.467 209.52 212.467 210.112C212.467 210.779 211.875 211.372 211.134 211.224C211.06 211.224 211.06 211.298 211.134 211.298C211.726 211.742 212.393 211.224 212.616 210.631C212.986 209.964 212.467 209.075 211.875 208.63C211.949 208.482 211.875 208.556 211.875 208.63Z" fill="white"/>
<path d="M213.43 205.813C213.875 206.11 213.949 206.702 213.875 207.147C213.875 207.221 213.875 207.221 213.949 207.221C214.245 207.369 214.245 206.777 214.245 206.628C214.171 206.184 214.023 205.887 213.652 205.591C213.43 205.517 213.356 205.739 213.43 205.813Z" fill="white"/>
<path d="M214.172 205.667C214.246 206.037 214.172 206.482 214.32 206.852H214.394C214.543 206.482 214.468 206.037 214.394 205.592C214.394 205.444 214.098 205.518 214.172 205.667Z" fill="white"/>
<path d="M205.945 209.371C205.352 210.112 204.908 211.001 205.352 211.964C205.723 212.705 206.76 213.742 207.575 213.15C207.649 213.15 207.575 213.075 207.575 213.075C206.76 213.224 205.871 212.335 205.649 211.668C205.278 210.853 205.575 210.038 205.945 209.371C206.019 209.371 205.945 209.297 205.945 209.371Z" fill="white"/>
<path d="M206.02 210.63C205.946 210.926 205.798 211.297 205.872 211.667C205.946 212.038 206.168 212.408 206.464 212.63C206.761 212.927 207.576 213.297 207.872 212.779C207.872 212.704 207.872 212.63 207.798 212.704C207.354 212.853 206.909 212.63 206.613 212.408C206.39 212.186 206.168 211.889 206.168 211.593C206.168 211.371 206.242 211.074 206.316 210.778C206.316 210.556 206.02 210.482 206.02 210.63Z" fill="white"/>
<path d="M206.912 210.778C206.912 211.149 206.763 211.519 206.986 211.89C207.134 212.186 207.504 212.334 207.875 212.186C207.949 212.186 207.949 212.112 207.875 212.112C207.578 211.964 207.282 211.964 207.134 211.667C207.06 211.371 207.06 211.075 207.06 210.778C207.06 210.704 206.912 210.704 206.912 210.778Z" fill="white"/>
<path d="M204.169 208.112C203.65 208.482 203.428 208.927 203.502 209.52C203.576 209.89 203.873 210.409 204.317 210.112C204.391 210.112 204.317 210.038 204.317 210.038C203.947 209.964 203.799 209.594 203.799 209.297C203.799 208.927 204.021 208.557 204.243 208.26C204.317 208.186 204.243 208.038 204.169 208.112Z" fill="white"/>
<path d="M204.613 209.148C204.613 209.371 204.613 209.593 204.761 209.815C204.761 209.889 204.836 209.815 204.836 209.741C204.761 209.519 204.761 209.296 204.761 209.074C204.761 209.074 204.613 209.074 204.613 209.148Z" fill="white"/>
<path d="M208.465 213.076C208.539 213.669 209.947 213.669 210.243 213.298C210.317 213.224 210.243 213.076 210.169 213.15C209.799 213.298 208.761 213.447 208.539 213.002C208.539 213.002 208.465 213.076 208.465 213.076Z" fill="white"/>
</svg>
