<svg width="12" height="12" viewBox="0 0 12 12" fill="none" xmlns="http://www.w3.org/2000/svg">
<path fill-rule="evenodd" clip-rule="evenodd" d="M5.9985 0C2.686 0 0 2.6865 0 6C0 9.3135 2.686 12 5.9985 12C9.3115 12 11.997 9.3135 11.997 6C11.997 2.6865 9.3115 0 5.9985 0ZM8.2045 8.3545L8.0295 8.5295C7.884 8.675 7.6385 8.682 7.4855 8.544L5.2255 6.5665C5.0715 6.429 4.955 6.1475 4.965 5.9415L5.1745 2.3745C5.1855 2.168 5.363 2 5.5695 2H5.816C6.0225 2 6.1995 2.168 6.2095 2.374L6.381 5.341C6.3915 5.5475 6.512 5.841 6.6485 5.9955L8.2205 7.8095C8.357 7.964 8.3505 8.209 8.2045 8.3545Z" fill="#777777"/>
</svg>
