<svg width="74" height="10" viewBox="0 0 74 10" fill="none" xmlns="http://www.w3.org/2000/svg">
<path d="M9.78059 0.500679C9.11253 0.162338 8.36691 -0.00706799 7.62379 0.000225877C6.86026 0.00963732 6.09627 0.206807 5.42481 0.585382V0.590794C5.667 0.654557 5.89105 0.777611 6.11396 0.892901C6.83985 1.29806 7.4519 1.91663 7.86938 2.65355C8.2347 3.29282 8.45195 4.02268 8.49231 4.765C8.54424 5.68874 8.33017 6.62824 7.87936 7.42727C7.35575 8.36347 6.5074 9.09074 5.53388 9.47379C6.12621 9.78225 6.78134 9.95848 7.44305 9.9933C8.3363 10.042 9.24156 9.82436 10.0219 9.37026C10.6303 9.01851 11.1661 8.53099 11.5759 7.94607C12.1533 7.12751 12.4769 6.12308 12.5 5.10993V4.86688C12.4739 3.86127 12.1487 2.86648 11.5743 2.05569C11.1122 1.39453 10.4911 0.853138 9.78059 0.500679Z" fill="#544C71"/>
<circle r="4.99975" transform="matrix(-1 0 0 1 5.00025 4.99975)" fill="#0E0035"/>
<path d="M22.8548 0.500679C22.1867 0.162338 21.4411 -0.00706799 20.698 0.000225877C19.9345 0.00963732 19.1705 0.206807 18.499 0.585382V0.590794C18.7412 0.654557 18.9653 0.777611 19.1882 0.892901C19.9141 1.29806 20.5261 1.91663 20.9436 2.65355C21.3089 3.29282 21.5262 4.02268 21.5665 4.765C21.6185 5.68874 21.4044 6.62824 20.9536 7.42727C20.43 8.36347 19.5816 9.09074 18.6081 9.47379C19.2004 9.78225 19.8556 9.95848 20.5173 9.9933C21.4105 10.042 22.3158 9.82436 23.0961 9.37026C23.7045 9.01851 24.2404 8.53099 24.6501 7.94607C25.2275 7.12751 25.5511 6.12308 25.5742 5.10993V4.86688C25.5481 3.86127 25.223 2.86648 24.6485 2.05569C24.1864 1.39453 23.5653 0.853138 22.8548 0.500679Z" fill="#544C71"/>
<circle cx="36.574" cy="4.99975" r="4.99975" fill="#544C71"/>
<path d="M50.2936 0.500679C50.9617 0.162338 51.7073 -0.00706799 52.4504 0.000225877C53.214 0.00963732 53.9779 0.206807 54.6494 0.585382V0.590794C54.4072 0.654557 54.1832 0.777611 53.9603 0.892901C53.2344 1.29806 52.6223 1.91663 52.2048 2.65355C51.8395 3.29282 51.6223 4.02268 51.5819 4.765C51.53 5.68874 51.744 6.62824 52.1949 7.42727C52.7185 8.36347 53.5668 9.09074 54.5403 9.47379C53.948 9.78225 53.2929 9.95848 52.6312 9.9933C51.7379 10.042 50.8327 9.82436 50.0523 9.37026C49.4439 9.01851 48.9081 8.53099 48.4983 7.94607C47.9209 7.12751 47.5973 6.12308 47.5742 5.10993V4.86688C47.6003 3.86127 47.9255 2.86648 48.4999 2.05569C48.962 1.39453 49.5832 0.853138 50.2936 0.500679Z" fill="#544C71"/>
<path d="M63.3679 0.500679C64.0359 0.162338 64.7815 -0.00706799 65.5247 0.000225877C66.2882 0.00963732 67.0522 0.206807 67.7236 0.585382V0.590794C67.4814 0.654557 67.2574 0.777611 67.0345 0.892901C66.3086 1.29806 65.6965 1.91663 65.2791 2.65355C64.9137 3.29282 64.6965 4.02268 64.6561 4.765C64.6042 5.68874 64.8183 6.62824 65.2691 7.42727C65.7927 8.36347 66.641 9.09074 67.6146 9.47379C67.0222 9.78225 66.3671 9.95848 65.7054 9.9933C64.8121 10.042 63.9069 9.82436 63.1266 9.37026C62.5181 9.01851 61.9823 8.53099 61.5725 7.94607C60.9952 7.12751 60.6716 6.12308 60.6484 5.10993V4.86688C60.6745 3.86127 60.9997 2.86648 61.5741 2.05569C62.0363 1.39453 62.6574 0.853138 63.3679 0.500679Z" fill="#544C71"/>
<circle cx="68.1482" cy="4.99975" r="4.99975" fill="#0E0035"/>
</svg>
