<svg width="200" height="201" viewBox="0 0 200 201" fill="none" xmlns="http://www.w3.org/2000/svg">
<path d="M99.9553 100.645C99.8687 100.645 99.7819 100.645 99.6952 100.558L43.7785 41.0867C43.6051 40.9133 43.6051 40.6533 43.7785 40.5666C43.9519 40.3932 44.2119 40.3932 44.2986 40.5666L100.215 100.038C100.389 100.211 100.389 100.471 100.215 100.558C100.215 100.645 100.129 100.645 99.9553 100.645Z" fill="url(#paint0_radial)"/>
<path d="M99.9554 100.645C99.8687 100.645 99.6953 100.558 99.6953 100.472L37.45 22.2748C37.2766 22.1014 37.3633 21.8414 37.5367 21.7547C37.7101 21.5813 37.9701 21.668 38.0568 21.8413L100.302 100.038C100.476 100.212 100.389 100.472 100.215 100.558C100.129 100.645 100.042 100.645 99.9554 100.645Z" fill="url(#paint1_radial)"/>
<path d="M99.9549 100.645C99.8682 100.645 99.6948 100.558 99.6082 100.471L54.2679 32.5908C54.1812 32.4174 54.1812 32.1573 54.3546 32.0706C54.5279 31.9839 54.7881 31.9839 54.8747 32.1573L100.215 100.038C100.302 100.211 100.302 100.471 100.128 100.558C100.128 100.645 100.042 100.645 99.9549 100.645Z" fill="url(#paint2_radial)"/>
<path d="M99.9553 100.645C99.7819 100.645 99.6952 100.558 99.6085 100.472L51.1473 13.0854C51.0606 12.912 51.1473 12.652 51.3207 12.5653C51.494 12.4786 51.7541 12.5652 51.8408 12.7386L100.302 100.125C100.389 100.298 100.302 100.558 100.129 100.645C100.129 100.645 100.042 100.645 99.9553 100.645Z" fill="url(#paint3_radial)"/>
<path d="M99.9582 100.645C99.7848 100.645 99.6981 100.558 99.6114 100.385L66.0614 26.0024C65.9747 25.8291 66.0614 25.5689 66.2347 25.4823C66.4081 25.3956 66.6682 25.4823 66.7549 25.6556L100.305 100.038C100.392 100.211 100.305 100.471 100.132 100.558C100.132 100.645 100.045 100.645 99.9582 100.645Z" fill="url(#paint4_radial)"/>
<path d="M99.9552 100.645C99.7818 100.645 99.6084 100.558 99.6084 100.385L66.2317 6.23624C66.145 6.06285 66.2317 5.8028 66.4918 5.71611C66.6652 5.62941 66.9253 5.71609 67.012 5.97617L100.389 100.211C100.475 100.385 100.389 100.645 100.129 100.731C100.042 100.645 100.042 100.645 99.9552 100.645Z" fill="url(#paint5_radial)"/>
<path d="M99.9573 100.644C99.784 100.644 99.6106 100.557 99.6106 100.384L78.8043 21.4936C78.7176 21.3202 78.891 21.0602 79.0644 21.0602C79.2378 20.9735 79.4978 21.1469 79.4978 21.3202L100.304 100.211C100.391 100.384 100.217 100.644 100.044 100.644C100.044 100.644 100.044 100.644 99.9573 100.644Z" fill="url(#paint6_radial)"/>
<path d="M99.9549 100.644C99.7815 100.644 99.6081 100.558 99.6081 100.297L82.2695 1.90124C82.2695 1.72785 82.3562 1.46777 82.6163 1.46777C82.7897 1.46777 83.0498 1.55449 83.0498 1.81457L100.388 100.211C100.388 100.471 100.302 100.644 99.9549 100.644C100.042 100.644 100.042 100.644 99.9549 100.644Z" fill="url(#paint7_radial)"/>
<path d="M99.9586 100.644C99.7852 100.644 99.6118 100.471 99.6118 100.297L92.1562 19.0663C92.1562 18.8929 92.3296 18.6328 92.503 18.6328C92.6764 18.6328 92.9365 18.8062 92.9365 18.9796L100.392 100.211C100.392 100.471 100.219 100.644 99.9586 100.644C100.045 100.644 100.045 100.644 99.9586 100.644Z" fill="url(#paint8_radial)"/>
<path d="M99.9569 100.645C99.7835 100.645 99.6101 100.471 99.6101 100.298L99.5234 0.427847C99.5234 0.254461 99.6968 0.0810547 99.8702 0.0810547C100.044 0.0810547 100.217 0.254461 100.217 0.427847L100.304 100.298C100.39 100.558 100.217 100.645 99.9569 100.645Z" fill="url(#paint9_radial)"/>
<path d="M99.9553 100.645C99.6952 100.645 99.5218 100.471 99.6085 100.211L105.677 18.8067C105.677 18.6333 105.85 18.46 106.11 18.46C106.284 18.46 106.457 18.6333 106.457 18.8934L100.389 100.298C100.389 100.558 100.215 100.645 99.9553 100.645Z" fill="url(#paint10_radial)"/>
<path d="M99.9553 100.645C99.6952 100.645 99.5218 100.384 99.6085 100.211L115.213 1.5548C115.213 1.38141 115.473 1.20801 115.647 1.20801C115.82 1.20801 115.993 1.46809 115.993 1.64147L100.389 100.298C100.302 100.558 100.215 100.645 99.9553 100.645Z" fill="url(#paint11_radial)"/>
<path d="M99.9558 100.644H99.8691C99.6957 100.557 99.5223 100.384 99.609 100.211L119.028 20.9736C119.115 20.8002 119.288 20.6268 119.462 20.7135C119.635 20.8002 119.808 20.9736 119.722 21.147L100.303 100.384C100.303 100.557 100.129 100.644 99.9558 100.644Z" fill="url(#paint12_radial)"/>
<path d="M99.9558 100.644H99.8691C99.6957 100.558 99.5223 100.384 99.609 100.124L131.338 5.36906C131.425 5.19568 131.599 5.0223 131.859 5.109C132.032 5.19569 132.205 5.36911 132.119 5.62919L100.389 100.384C100.303 100.558 100.129 100.644 99.9558 100.644Z" fill="url(#paint13_radial)"/>
<path d="M99.955 100.644C99.8683 100.644 99.8683 100.644 99.7816 100.644C99.6082 100.558 99.5215 100.298 99.6082 100.124L131.858 25.1351C131.945 24.9618 132.205 24.875 132.378 24.9617C132.551 25.0484 132.638 25.3085 132.551 25.4819L100.302 100.471C100.302 100.558 100.128 100.644 99.955 100.644Z" fill="url(#paint14_radial)"/>
<path d="M99.955 100.645C99.8683 100.645 99.8683 100.645 99.7816 100.558C99.6082 100.471 99.5215 100.211 99.6082 100.038L146.509 11.8714C146.596 11.698 146.856 11.6114 147.029 11.6981C147.203 11.7848 147.289 12.0448 147.203 12.2182L100.302 100.385C100.302 100.645 100.128 100.645 99.955 100.645Z" fill="url(#paint15_radial)"/>
<path d="M99.9562 100.645C99.8695 100.645 99.7828 100.645 99.7828 100.558C99.6094 100.472 99.5227 100.211 99.6961 100.038L143.909 31.3775C143.996 31.2041 144.256 31.1174 144.43 31.2908C144.603 31.3775 144.69 31.6376 144.516 31.8109L100.303 100.472C100.216 100.645 100.13 100.645 99.9562 100.645Z" fill="url(#paint16_radial)"/>
<path d="M99.9584 100.645C99.8717 100.645 99.785 100.645 99.6983 100.558C99.5249 100.471 99.5249 100.211 99.6116 100.038L160.47 20.8009C160.557 20.6275 160.817 20.6275 160.99 20.7142C161.163 20.8009 161.163 21.061 161.077 21.2343L100.218 100.471C100.218 100.645 100.132 100.645 99.9584 100.645Z" fill="url(#paint17_radial)"/>
<path d="M99.9566 100.645C99.8699 100.645 99.7831 100.645 99.6964 100.558C99.5231 100.385 99.5231 100.212 99.6964 100.038L154.573 39.6134C154.746 39.4401 154.92 39.4401 155.093 39.6134C155.266 39.7868 155.266 39.9602 155.093 40.1336L100.217 100.558C100.217 100.645 100.13 100.645 99.9566 100.645Z" fill="url(#paint18_radial)"/>
<path d="M99.9566 100.644C99.8699 100.644 99.7831 100.644 99.6964 100.557C99.5231 100.384 99.5231 100.124 99.6964 100.037L172.778 31.8966C172.952 31.7233 173.212 31.7233 173.299 31.8966C173.472 32.07 173.472 32.3301 173.299 32.4168L100.217 100.557C100.217 100.644 100.13 100.644 99.9566 100.644Z" fill="url(#paint19_radial)"/>
<path d="M99.9562 100.644C99.8695 100.644 99.6961 100.558 99.6961 100.471C99.5227 100.298 99.6094 100.037 99.7828 99.9508L163.935 49.409C164.109 49.2356 164.369 49.3223 164.456 49.4956C164.629 49.669 164.542 49.9291 164.369 50.0158L100.216 100.558C100.13 100.644 100.043 100.644 99.9562 100.644Z" fill="url(#paint20_radial)"/>
<path d="M99.9584 100.645C99.8717 100.645 99.6983 100.558 99.6116 100.471C99.5249 100.298 99.5249 100.038 99.6983 99.9513L183.01 44.8147C183.183 44.7281 183.443 44.7281 183.53 44.9015C183.617 45.0749 183.617 45.3349 183.443 45.4216L100.132 100.558C100.132 100.645 100.045 100.645 99.9584 100.645Z" fill="url(#paint21_radial)"/>
<path d="M99.955 100.645C99.7816 100.645 99.6949 100.558 99.6082 100.471C99.5215 100.298 99.6082 100.038 99.7816 99.9513L171.39 60.6795C171.563 60.5928 171.823 60.6795 171.91 60.8529C171.997 61.0263 171.91 61.2864 171.737 61.3731L100.128 100.645C100.128 100.645 100.042 100.645 99.955 100.645Z" fill="url(#paint22_radial)"/>
<path d="M99.955 100.644C99.7816 100.644 99.6949 100.557 99.6082 100.384C99.5215 100.211 99.6082 99.9504 99.7816 99.8637L191.069 59.2049C191.242 59.1182 191.502 59.2049 191.589 59.3783C191.676 59.5517 191.589 59.8117 191.416 59.8984L100.128 100.557C100.128 100.644 100.042 100.644 99.955 100.644Z" fill="url(#paint23_radial)"/>
<path d="M99.9574 100.645C99.784 100.645 99.6106 100.558 99.6106 100.384C99.5239 100.211 99.6106 99.951 99.8707 99.8643L176.941 72.9895C177.114 72.9028 177.374 72.9896 177.461 73.2497C177.547 73.423 177.461 73.6831 177.201 73.7698L100.131 100.645C100.044 100.645 100.044 100.645 99.9574 100.645Z" fill="url(#paint24_radial)"/>
<path d="M99.9558 100.645C99.7824 100.645 99.609 100.558 99.609 100.385C99.5223 100.211 99.6957 99.9513 99.8691 99.9513L196.705 74.8971C196.878 74.8104 197.138 74.9838 197.138 75.1572C197.225 75.3305 197.052 75.5906 196.878 75.5906L100.129 100.645C100.042 100.645 100.042 100.645 99.9558 100.645Z" fill="url(#paint25_radial)"/>
<path d="M99.9562 100.644C99.7828 100.644 99.6094 100.471 99.6094 100.297C99.6094 100.124 99.6961 99.864 99.9562 99.864L180.407 85.9932C180.58 85.9932 180.84 86.0799 180.84 86.34C180.84 86.6 180.754 86.7734 180.494 86.7734L99.9562 100.644C100.043 100.644 100.043 100.644 99.9562 100.644Z" fill="url(#paint26_radial)"/>
<path d="M99.9562 100.645C99.7828 100.645 99.6094 100.471 99.6094 100.298C99.6094 100.124 99.7828 99.8643 99.9562 99.8643L199.566 91.1084C199.739 91.1084 199.999 91.2818 199.999 91.4552C199.999 91.6286 199.826 91.8887 199.653 91.8887L99.9562 100.645C100.043 100.645 100.043 100.645 99.9562 100.645Z" fill="url(#paint27_radial)"/>
<path d="M99.9562 100.645C99.7828 100.645 99.6094 100.471 99.6094 100.298C99.6094 100.125 99.7828 99.9513 99.9562 99.9513L181.621 99.6045C181.794 99.6045 181.967 99.7779 181.967 99.9513C181.967 100.125 181.794 100.298 181.621 100.298L99.9562 100.645Z" fill="url(#paint28_radial)"/>
<path d="M199.653 108.534L99.9562 100.731C99.7828 100.731 99.6094 100.558 99.6094 100.298C99.6094 100.125 99.7828 99.9512 100.043 99.9512L199.653 107.754C199.826 107.754 199.999 107.927 199.999 108.187C199.999 108.36 199.826 108.534 199.653 108.534Z" fill="url(#paint29_radial)"/>
<path d="M180.58 113.735L99.9562 100.645C99.7828 100.645 99.6094 100.384 99.6094 100.211C99.6094 100.038 99.8695 99.8643 100.043 99.8643L180.667 112.955C180.84 112.955 181.014 113.215 181.014 113.388C180.927 113.648 180.754 113.735 180.58 113.735Z" fill="url(#paint30_radial)"/>
<path d="M196.965 124.832H196.878L99.8691 100.731C99.6957 100.645 99.5223 100.471 99.609 100.298C99.6957 100.124 99.8691 99.951 100.042 100.038L197.052 124.138C197.225 124.225 197.398 124.398 197.312 124.572C197.312 124.658 197.138 124.832 196.965 124.832Z" fill="url(#paint31_radial)"/>
<path d="M177.372 126.912H177.285L99.9551 100.731C99.7817 100.644 99.6082 100.471 99.6949 100.211C99.7816 100.037 99.955 99.8641 100.215 99.9508L177.545 126.132C177.718 126.219 177.892 126.392 177.805 126.652C177.632 126.739 177.458 126.912 177.372 126.912Z" fill="url(#paint32_radial)"/>
<path d="M191.676 140.436C191.589 140.436 191.589 140.436 191.502 140.436L99.7816 100.645C99.6082 100.558 99.5215 100.298 99.6082 100.124C99.6949 99.951 99.955 99.8643 100.128 99.951L191.849 139.743C192.023 139.83 192.109 140.09 192.023 140.263C191.936 140.35 191.849 140.436 191.676 140.436Z" fill="url(#paint33_radial)"/>
<path d="M171.91 139.309C171.823 139.309 171.823 139.309 171.737 139.223L99.7816 100.645C99.6082 100.558 99.5215 100.298 99.6082 100.124C99.6949 99.951 99.955 99.8643 100.128 99.951L172.083 138.529C172.257 138.616 172.343 138.876 172.257 139.049C172.17 139.223 172.083 139.309 171.91 139.309Z" fill="url(#paint34_radial)"/>
<path d="M183.874 155.088C183.787 155.088 183.701 155.088 183.701 155.001L99.8687 100.645C99.6953 100.558 99.6086 100.298 99.782 100.125C99.8687 99.9512 100.129 99.8645 100.302 100.038L184.134 154.394C184.307 154.481 184.394 154.741 184.221 154.914C184.134 155.001 183.961 155.088 183.874 155.088Z" fill="url(#paint35_radial)"/>
<path d="M164.544 150.58C164.458 150.58 164.371 150.58 164.284 150.493L99.6983 100.558C99.5249 100.472 99.5249 100.212 99.6116 100.038C99.6983 99.8648 99.9584 99.8648 100.132 99.9515L164.718 149.886C164.891 149.973 164.891 150.233 164.805 150.407C164.805 150.58 164.718 150.58 164.544 150.58Z" fill="url(#paint36_radial)"/>
<path d="M173.731 168.091C173.645 168.091 173.558 168.091 173.471 168.004L99.7824 100.557C99.609 100.384 99.609 100.211 99.7824 100.037C99.9558 99.8639 100.129 99.8639 100.303 100.037L173.991 167.484C174.165 167.658 174.165 167.831 173.991 168.004C173.905 168.091 173.818 168.091 173.731 168.091Z" fill="url(#paint37_radial)"/>
<path d="M155.44 160.549C155.353 160.549 155.266 160.549 155.18 160.462L99.6964 100.557C99.5231 100.384 99.5231 100.124 99.6964 100.037C99.8698 99.8639 100.13 99.8639 100.217 100.037L155.7 159.942C155.873 160.115 155.873 160.375 155.7 160.462C155.613 160.549 155.527 160.549 155.44 160.549Z" fill="url(#paint38_radial)"/>
<path d="M161.595 179.362C161.509 179.362 161.335 179.275 161.335 179.189L99.7835 100.472C99.6968 100.298 99.6968 100.038 99.8702 99.9515C100.044 99.8648 100.304 99.8648 100.39 100.038L161.942 178.755C162.029 178.928 162.029 179.189 161.855 179.275C161.769 179.362 161.682 179.362 161.595 179.362Z" fill="url(#paint39_radial)"/>
<path d="M144.779 168.872C144.692 168.872 144.518 168.785 144.432 168.699L99.6116 100.472C99.5249 100.298 99.5249 100.038 99.6983 99.9515C99.8717 99.8648 100.132 99.8648 100.218 100.038L145.039 168.265C145.125 168.439 145.125 168.699 144.952 168.785C144.952 168.872 144.865 168.872 144.779 168.872Z" fill="url(#paint40_radial)"/>
<path d="M147.723 188.464C147.549 188.464 147.463 188.378 147.376 188.291L99.6082 100.558C99.5215 100.385 99.6082 100.125 99.7816 100.038C99.955 99.9512 100.215 100.038 100.302 100.211L148.069 187.944C148.156 188.118 148.069 188.378 147.896 188.464C147.896 188.378 147.809 188.464 147.723 188.464Z" fill="url(#paint41_radial)"/>
<path d="M132.898 175.374C132.725 175.374 132.638 175.287 132.551 175.114L99.6082 100.471C99.5215 100.298 99.6082 100.038 99.7816 99.951C99.955 99.8643 100.215 99.951 100.302 100.124L133.245 174.767C133.332 174.94 133.245 175.2 133.072 175.287C133.072 175.374 132.985 175.374 132.898 175.374Z" fill="url(#paint42_radial)"/>
<path d="M132.641 195.14C132.467 195.14 132.294 195.053 132.294 194.88L99.6106 100.472C99.5239 100.298 99.6106 100.038 99.8707 99.9515C100.044 99.8648 100.304 99.9514 100.391 100.212L132.987 194.62C133.074 194.793 132.987 195.053 132.727 195.14C132.641 195.14 132.641 195.14 132.641 195.14Z" fill="url(#paint43_radial)"/>
<path d="M120.155 179.795C119.982 179.795 119.808 179.708 119.808 179.535L99.609 100.384C99.5223 100.211 99.6957 99.9508 99.8691 99.9508C100.042 99.8641 100.303 100.037 100.303 100.211L120.415 179.275C120.502 179.448 120.329 179.708 120.155 179.708C120.242 179.708 120.155 179.795 120.155 179.795Z" fill="url(#paint44_radial)"/>
<path d="M116.514 199.214C116.341 199.214 116.168 199.041 116.168 198.868L99.6094 100.385C99.6094 100.211 99.6961 99.9512 99.9562 99.9512C100.13 99.9512 100.39 100.038 100.39 100.298L116.948 198.781C116.948 198.954 116.861 199.128 116.514 199.214C116.601 199.214 116.601 199.214 116.514 199.214Z" fill="url(#paint45_radial)"/>
<path d="M106.805 181.962C106.631 181.962 106.458 181.789 106.458 181.615L99.6094 100.298C99.6094 100.124 99.7828 99.8643 99.9562 99.8643C100.13 99.8643 100.39 100.038 100.39 100.211L107.238 181.529C107.238 181.789 107.065 181.962 106.805 181.962Z" fill="url(#paint46_radial)"/>
<path d="M100.043 200.601C99.8695 200.601 99.696 200.428 99.696 200.255L99.6094 100.298C99.6094 100.125 99.7828 99.9512 99.9562 99.9512C100.13 99.9512 100.303 100.125 100.303 100.298L100.39 200.168C100.476 200.428 100.303 200.601 100.043 200.601Z" fill="url(#paint47_radial)"/>
<path d="M93.2795 181.962C93.0194 181.962 92.846 181.789 92.9327 181.529L99.6081 100.211C99.6081 100.038 99.7814 99.8643 100.042 99.8643C100.215 99.8643 100.388 100.038 100.388 100.298L93.713 181.615C93.6263 181.876 93.4529 181.962 93.2795 181.962Z" fill="url(#paint48_radial)"/>
<path d="M83.5725 199.214C83.3124 199.214 83.139 198.954 83.2257 198.781L99.6106 100.211C99.6106 100.038 99.8707 99.8643 100.044 99.8643C100.217 99.8643 100.391 100.124 100.391 100.298L83.9193 198.781C83.9193 199.041 83.7459 199.214 83.5725 199.214Z" fill="url(#paint49_radial)"/>
<path d="M79.9323 179.795H79.8456C79.6722 179.708 79.4989 179.535 79.5856 179.361L99.6115 100.211C99.6982 100.037 99.8716 99.8641 100.045 99.9508C100.218 100.037 100.392 100.211 100.305 100.384L80.2791 179.448C80.2791 179.708 80.1057 179.795 79.9323 179.795Z" fill="url(#paint50_radial)"/>
<path d="M67.5339 195.139H67.4472C67.2739 195.053 67.1004 194.879 67.1871 194.619L99.6102 100.211C99.6969 100.037 99.8703 99.8641 100.13 99.9508C100.304 100.037 100.477 100.211 100.39 100.471L67.8807 194.966C67.794 195.053 67.7073 195.139 67.5339 195.139Z" fill="url(#paint51_radial)"/>
<path d="M67.1854 175.374C67.0987 175.374 67.0988 175.374 67.0121 175.374C66.8387 175.287 66.752 175.027 66.8387 174.853L99.6952 100.124C99.7819 99.951 100.042 99.8643 100.215 99.951C100.389 100.038 100.475 100.298 100.389 100.471L67.5322 175.2C67.4455 175.287 67.2721 175.374 67.1854 175.374Z" fill="url(#paint52_radial)"/>
<path d="M52.3612 188.464C52.2746 188.464 52.2745 188.464 52.1879 188.377C52.0145 188.291 51.9278 188.031 52.0145 187.857L99.6088 100.037C99.6954 99.8641 99.9555 99.7774 100.129 99.8641C100.302 99.9508 100.389 100.211 100.302 100.384L52.708 188.204C52.6213 188.464 52.5346 188.464 52.3612 188.464Z" fill="url(#paint53_radial)"/>
<path d="M55.3117 168.958C55.225 168.958 55.1383 168.958 55.1383 168.872C54.9649 168.785 54.8781 168.525 55.0515 168.351L99.785 100.038C99.8717 99.8642 100.132 99.7776 100.305 99.951C100.479 100.038 100.565 100.298 100.392 100.471L55.6584 168.785C55.485 168.872 55.3983 168.958 55.3117 168.958Z" fill="url(#paint54_radial)"/>
<path d="M38.4896 179.448C38.403 179.448 38.3163 179.448 38.2296 179.361C38.0562 179.275 38.0562 179.014 38.1429 178.841L99.608 100.124C99.6947 99.9507 99.9547 99.9507 100.128 100.037C100.302 100.124 100.302 100.384 100.215 100.558L38.7497 179.275C38.7497 179.361 38.663 179.448 38.4896 179.448Z" fill="url(#paint55_radial)"/>
<path d="M44.6479 160.635C44.5613 160.635 44.4745 160.635 44.3879 160.549C44.2145 160.375 44.2145 160.202 44.3879 160.029L99.7845 100.037C99.9579 99.8639 100.131 99.8639 100.305 100.037C100.478 100.211 100.478 100.384 100.305 100.557L44.908 160.549C44.8213 160.635 44.7346 160.635 44.6479 160.635Z" fill="url(#paint56_radial)"/>
<path d="M26.355 168.265C26.2683 168.265 26.1816 168.265 26.0949 168.178C25.9215 168.005 25.9215 167.744 26.0949 167.658L99.6969 100.124C99.8703 99.9508 100.13 99.9508 100.217 100.124C100.391 100.298 100.391 100.558 100.217 100.644L26.615 168.178C26.5283 168.178 26.4416 168.265 26.355 168.265Z" fill="url(#paint57_radial)"/>
<path d="M35.4576 150.667C35.371 150.667 35.1976 150.58 35.1976 150.493C35.1109 150.32 35.1109 150.06 35.2842 149.973L99.7836 99.9515C99.957 99.8648 100.217 99.8648 100.304 100.038C100.39 100.212 100.39 100.472 100.217 100.558L35.7177 150.58C35.631 150.667 35.5443 150.667 35.4576 150.667Z" fill="url(#paint58_radial)"/>
<path d="M16.2123 155.174C16.1256 155.174 15.9522 155.087 15.8655 155.001C15.7788 154.827 15.7788 154.567 15.9522 154.48L99.6973 100.037C99.8707 99.9507 100.131 99.9507 100.218 100.124C100.304 100.298 100.304 100.558 100.131 100.644L16.3857 155.087C16.3857 155.174 16.299 155.174 16.2123 155.174Z" fill="url(#paint59_radial)"/>
<path d="M28.0878 139.396C27.9144 139.396 27.8277 139.31 27.741 139.223C27.6544 139.05 27.741 138.79 27.9144 138.703L99.7827 100.038C99.956 99.9512 100.216 100.038 100.303 100.211C100.389 100.385 100.303 100.645 100.129 100.731L28.2612 139.396C28.2612 139.396 28.1745 139.396 28.0878 139.396Z" fill="url(#paint60_radial)"/>
<path d="M8.40812 140.61C8.23473 140.61 8.14804 140.523 8.06135 140.35C7.97466 140.176 8.06136 139.916 8.23475 139.83L99.8689 99.951C100.042 99.8643 100.302 99.951 100.389 100.124C100.476 100.298 100.389 100.558 100.216 100.645L8.58151 140.523C8.49482 140.61 8.40812 140.61 8.40812 140.61Z" fill="url(#paint61_radial)"/>
<path d="M22.7152 127C22.5418 127 22.3684 126.913 22.3684 126.739C22.2818 126.566 22.3685 126.306 22.6285 126.219L99.9584 99.9515C100.132 99.8648 100.392 99.9514 100.479 100.212C100.565 100.385 100.479 100.645 100.218 100.732L22.8886 127C22.8019 127 22.7152 127 22.7152 127Z" fill="url(#paint62_radial)"/>
<path d="M3.03389 124.918C2.8605 124.918 2.68712 124.832 2.68712 124.658C2.60043 124.485 2.7738 124.225 2.94719 124.225L99.8696 99.9508C100.043 99.8641 100.303 100.037 100.303 100.211C100.39 100.384 100.216 100.644 100.043 100.644L3.12059 124.918H3.03389Z" fill="url(#paint63_radial)"/>
<path d="M19.421 113.909C19.2476 113.909 19.0742 113.735 19.0742 113.562C19.0742 113.389 19.1609 113.128 19.421 113.128L100.045 99.9512C100.219 99.9512 100.479 100.038 100.479 100.298C100.479 100.471 100.392 100.731 100.132 100.731L19.421 113.909Z" fill="url(#paint64_radial)"/>
<path d="M0.346765 108.62C0.17338 108.62 0 108.447 0 108.273C0 108.1 0.17338 107.84 0.346765 107.84L99.9567 99.8643C100.13 99.8643 100.39 100.038 100.39 100.211C100.39 100.384 100.217 100.645 100.043 100.645L0.346765 108.62Z" fill="url(#paint65_radial)"/>
<path d="M99.9566 100.644L18.2921 100.384C18.1187 100.384 17.9453 100.211 17.9453 100.037C17.9453 99.8638 18.1187 99.6904 18.2921 99.6904L99.9566 99.9505C100.13 99.9505 100.303 100.124 100.303 100.297C100.39 100.471 100.217 100.644 99.9566 100.644Z" fill="url(#paint66_radial)"/>
<path d="M99.9567 100.645L0.346765 92.0624C0.17338 92.0624 0 91.889 0 91.629C0 91.4556 0.173385 91.2822 0.433463 91.2822L100.043 99.8648C100.217 99.8648 100.39 100.038 100.39 100.298C100.39 100.558 100.217 100.645 99.9567 100.645Z" fill="url(#paint67_radial)"/>
<path d="M99.9585 100.645L19.421 86.9472C19.2476 86.9472 19.0742 86.6872 19.0742 86.5138C19.0742 86.3404 19.3343 86.167 19.5077 86.167L99.9585 99.8644C100.132 99.8644 100.305 100.125 100.305 100.298C100.305 100.558 100.219 100.645 99.9585 100.645Z" fill="url(#paint68_radial)"/>
<path d="M99.9556 100.644H99.8689L3.03315 75.7635C2.85977 75.6768 2.68636 75.5034 2.77306 75.33C2.85975 75.1566 3.03314 74.9832 3.20652 75.0699L100.042 99.9507C100.216 100.037 100.389 100.211 100.302 100.384C100.302 100.558 100.129 100.644 99.9556 100.644Z" fill="url(#paint69_radial)"/>
<path d="M99.956 100.644H99.8693L22.7128 73.856C22.5394 73.7693 22.3661 73.5959 22.4527 73.3359C22.5394 73.1625 22.7128 72.9891 22.9729 73.0758L100.129 99.8638C100.303 99.9505 100.476 100.124 100.389 100.384C100.303 100.557 100.129 100.644 99.956 100.644Z" fill="url(#paint70_radial)"/>
<path d="M99.958 100.645C99.8713 100.645 99.8713 100.645 99.7846 100.645L8.41051 60.1592C8.23712 60.0725 8.15045 59.8124 8.23714 59.639C8.32383 59.4657 8.58391 59.379 8.7573 59.4656L100.131 99.9511C100.305 100.038 100.391 100.298 100.305 100.471C100.305 100.645 100.131 100.645 99.958 100.645Z" fill="url(#paint71_radial)"/>
<path d="M99.9577 100.645C99.871 100.645 99.871 100.645 99.7843 100.558L28.1762 61.3731C28.0028 61.2864 27.9161 61.0263 28.0028 60.8529C28.0895 60.6795 28.3495 60.5928 28.5229 60.6795L100.131 99.8646C100.304 99.9513 100.391 100.211 100.304 100.385C100.304 100.645 100.131 100.645 99.9577 100.645Z" fill="url(#paint72_radial)"/>
<path d="M99.9561 100.645C99.8694 100.645 99.7827 100.645 99.7827 100.558L16.3843 45.5949C16.2109 45.5082 16.1242 45.2482 16.2976 45.0748C16.3843 44.9014 16.6444 44.8147 16.8178 44.9881L100.216 100.038C100.39 100.125 100.476 100.385 100.303 100.558C100.216 100.645 100.129 100.645 99.9561 100.645Z" fill="url(#paint73_radial)"/>
<path d="M99.9548 100.645C99.8681 100.645 99.7813 100.645 99.6946 100.558L35.5421 50.1033C35.3687 50.0166 35.3687 49.7565 35.4554 49.5831C35.5421 49.4097 35.8022 49.4097 35.9755 49.4964L100.128 99.9516C100.301 100.038 100.302 100.298 100.215 100.472C100.215 100.645 100.128 100.645 99.9548 100.645Z" fill="url(#paint74_radial)"/>
<path d="M99.9572 100.644C99.8705 100.644 99.7838 100.644 99.6971 100.558L26.5285 32.5906C26.3551 32.4172 26.3551 32.2439 26.5285 32.0705C26.7019 31.8971 26.8752 31.8971 27.0486 32.0705L100.217 100.124C100.391 100.298 100.391 100.471 100.217 100.644C100.217 100.644 100.131 100.644 99.9572 100.644Z" fill="url(#paint75_radial)"/>
<mask id="mask0" mask-type="alpha" maskUnits="userSpaceOnUse" x="3" y="3" width="194" height="195">
<path d="M49.153 197.134C46.2055 197.134 43.3446 196.96 40.5705 196.527C30.3407 195.14 21.8449 191.152 15.4296 184.824C9.01435 178.408 5.11318 169.999 3.72609 159.769C2.33901 149.886 3.46603 138.79 6.93373 126.653C14.0425 101.859 30.3407 75.7641 52.8808 53.224C75.4209 30.6839 101.515 14.3857 126.396 7.27692C138.533 3.80921 149.63 2.76889 159.513 4.06928C169.743 5.45636 178.238 9.44423 184.654 15.7728C191.069 22.188 194.97 30.5973 196.357 40.827C197.744 50.71 196.617 61.8066 193.15 73.9436C186.041 98.7377 169.743 124.832 147.202 147.372C124.662 169.912 98.5679 186.211 73.6871 193.319C64.9311 195.834 56.6953 197.134 49.153 197.134ZM150.93 4.24268C143.388 4.24268 135.239 5.45636 126.57 7.97045C101.862 14.9926 75.8544 31.2908 53.401 53.7442C7.02043 100.038 -9.71126 158.642 16.0365 184.303C22.2783 190.545 30.6008 194.446 40.7439 195.833C50.5401 197.134 61.5501 196.094 73.6004 192.713C98.3078 185.69 124.316 169.392 146.769 146.939C169.222 124.485 185.521 98.4776 192.543 73.7702C195.924 61.8066 197.051 50.71 195.664 41.0004C194.277 30.944 190.375 22.6215 184.134 16.3797C177.892 10.1378 169.569 6.23662 159.426 4.84954C156.652 4.41607 153.791 4.24268 150.93 4.24268Z" fill="url(#paint76_linear)"/>
</mask>
<g mask="url(#mask0)">
<path d="M49.153 197.134C46.2055 197.134 43.3446 196.96 40.5705 196.527C30.3407 195.14 21.8449 191.152 15.4296 184.824C9.01435 178.408 5.11318 169.999 3.72609 159.769C2.33901 149.886 3.46603 138.79 6.93373 126.653C14.0425 101.859 30.3407 75.7641 52.8808 53.224C75.4209 30.6839 101.515 14.3857 126.396 7.27692C138.533 3.80921 149.63 2.76889 159.513 4.06928C169.743 5.45636 178.238 9.44423 184.654 15.7728C191.069 22.188 194.97 30.5973 196.357 40.827C197.744 50.71 196.617 61.8066 193.15 73.9436C186.041 98.7377 169.743 124.832 147.202 147.372C124.662 169.912 98.5679 186.211 73.6871 193.319C64.9311 195.834 56.6953 197.134 49.153 197.134ZM150.93 4.24268C143.388 4.24268 135.239 5.45636 126.57 7.97045C101.862 14.9926 75.8544 31.2908 53.401 53.7442C7.02043 100.038 -9.71126 158.642 16.0365 184.303C22.2783 190.545 30.6008 194.446 40.7439 195.833C50.5401 197.134 61.5501 196.094 73.6004 192.713C98.3078 185.69 124.316 169.392 146.769 146.939C169.222 124.485 185.521 98.4776 192.543 73.7702C195.924 61.8066 197.051 50.71 195.664 41.0004C194.277 30.944 190.375 22.6215 184.134 16.3797C177.892 10.1378 169.569 6.23662 159.426 4.84954C156.652 4.41607 153.791 4.24268 150.93 4.24268Z" fill="url(#paint77_linear)"/>
</g>
<path d="M30.6892 105.673C27.7417 67.3551 56.3503 33.9784 94.6684 30.9441C132.987 27.9966 166.45 56.6052 169.398 94.8367C172.345 133.155 143.737 166.532 105.418 169.566C67.1002 172.6 33.6368 143.991 30.6892 105.673Z" fill="#0E0035"/>
<path d="M99.9564 170.172C97.7024 170.172 95.4483 170.086 93.1943 169.825L93.281 169.045C96.5753 169.392 100.043 169.479 103.337 169.305V170.086C102.21 170.172 101.083 170.172 99.9564 170.172ZM104.378 170.086L104.291 169.305C104.638 169.305 104.984 169.219 105.331 169.219L105.418 169.999C105.071 169.999 104.724 170.086 104.378 170.086ZM106.372 169.912L106.285 169.132C109.666 168.785 112.96 168.265 116.255 167.485L116.428 168.265C113.134 169.045 109.753 169.565 106.372 169.912ZM92.154 169.739C91.8073 169.739 91.4605 169.652 91.1137 169.652L91.2004 168.872C91.5471 168.872 91.8939 168.959 92.2407 168.959L92.154 169.739ZM90.0734 169.479C86.6924 169.045 83.398 168.265 80.1037 167.311L80.2771 166.618C83.4847 167.571 86.779 168.265 90.16 168.785L90.0734 169.479ZM117.468 168.005L117.295 167.225C117.642 167.138 117.988 167.051 118.249 166.965L118.422 167.658C118.075 167.832 117.815 167.918 117.468 168.005ZM119.462 167.485L119.289 166.791C122.496 165.838 125.704 164.711 128.738 163.324L129.085 164.017C125.877 165.317 122.67 166.531 119.462 167.485ZM79.1501 167.051C78.8034 166.965 78.4566 166.878 78.1965 166.705L78.4565 166.011C78.8033 166.098 79.0634 166.184 79.4102 166.358L79.1501 167.051ZM77.2429 166.444C74.0352 165.317 70.9143 164.017 67.8801 162.457L68.2268 161.763C71.1744 163.324 74.2953 164.624 77.5029 165.751L77.2429 166.444ZM129.952 163.497L129.605 162.803C129.865 162.63 130.212 162.543 130.472 162.37L130.819 163.063C130.559 163.237 130.212 163.324 129.952 163.497ZM131.773 162.63L131.426 161.936C134.373 160.376 137.321 158.642 140.008 156.735L140.442 157.342C137.668 159.336 134.72 161.07 131.773 162.63ZM66.9264 161.936C66.6663 161.763 66.3196 161.59 66.0595 161.416L66.4063 160.723C66.6664 160.896 67.0131 161.07 67.2732 161.243L66.9264 161.936ZM65.1059 160.896C62.1583 159.249 59.2975 157.255 56.6967 155.174L57.1302 154.568C59.7309 156.648 62.5918 158.555 65.4526 160.203L65.1059 160.896ZM141.309 156.735L140.875 156.128C141.135 155.955 141.395 155.695 141.656 155.521L142.089 156.128C141.829 156.301 141.569 156.562 141.309 156.735ZM142.869 155.521L142.436 154.914C145.123 152.834 147.637 150.58 149.891 148.152L150.411 148.672C148.157 151.1 145.557 153.441 142.869 155.521ZM55.9164 154.568C55.6564 154.394 55.3963 154.134 55.1362 153.961L55.6564 153.354C55.9165 153.527 56.1765 153.787 56.4366 153.961L55.9164 154.568ZM54.356 153.267C51.7552 151.013 49.3278 148.672 47.1605 146.072L47.7674 145.552C49.9347 148.066 52.3621 150.493 54.8762 152.66L54.356 153.267ZM151.192 147.979L150.672 147.459C150.932 147.199 151.105 146.939 151.365 146.679L151.972 147.199C151.625 147.459 151.452 147.719 151.192 147.979ZM152.579 146.418L151.972 145.898C154.226 143.384 156.22 140.697 158.04 137.836L158.647 138.269C156.827 141.13 154.833 143.904 152.579 146.418ZM46.467 145.291C46.2069 145.031 46.0335 144.771 45.7734 144.511L46.3803 143.991C46.5537 144.251 46.8137 144.511 46.9871 144.771L46.467 145.291ZM45.1666 143.731C43.086 141.044 41.092 138.269 39.4449 135.322L40.1384 134.975C41.7855 137.836 43.6928 140.697 45.7734 143.298L45.1666 143.731ZM159.254 137.489L158.647 137.056C158.821 136.796 158.994 136.449 159.167 136.189L159.861 136.622C159.601 136.882 159.428 137.142 159.254 137.489ZM160.294 135.669L159.601 135.322C161.335 132.461 162.809 129.427 164.109 126.306L164.802 126.566C163.589 129.687 162.028 132.808 160.294 135.669ZM38.9247 134.368C38.7513 134.108 38.5779 133.761 38.4045 133.501L39.0981 133.154C39.2715 133.415 39.4448 133.761 39.6182 134.021L38.9247 134.368ZM37.9711 132.634C36.4106 129.6 35.0235 126.479 33.8965 123.271L34.5901 123.011C35.7171 126.219 37.0175 129.253 38.5779 132.288L37.9711 132.634ZM165.236 125.612L164.542 125.352C164.629 125.005 164.802 124.745 164.889 124.399L165.583 124.659C165.496 125.005 165.323 125.265 165.236 125.612ZM165.929 123.705L165.236 123.445C166.363 120.324 167.23 117.03 167.923 113.735L168.704 113.909C168.01 117.203 167.056 120.497 165.929 123.705ZM33.5497 122.318C33.463 121.971 33.3764 121.711 33.203 121.364L33.8965 121.104C33.9832 121.451 34.0699 121.711 34.2433 122.058L33.5497 122.318ZM32.9429 120.324C31.9893 117.116 31.2091 113.735 30.7756 110.354L31.5558 110.268C32.076 113.562 32.7695 116.943 33.7231 120.151L32.9429 120.324ZM168.79 112.868L168.01 112.695C168.097 112.348 168.097 112.001 168.183 111.741L168.964 111.828C168.964 112.175 168.877 112.522 168.79 112.868ZM169.137 110.874L168.357 110.788C168.877 107.493 169.137 104.112 169.137 100.731H169.917C169.917 104.112 169.657 107.493 169.137 110.874ZM30.6889 109.401C30.6022 109.054 30.6022 108.707 30.6022 108.36L31.3824 108.274C31.3824 108.62 31.4691 108.967 31.4691 109.314L30.6889 109.401ZM30.4288 107.32C30.3421 106.8 30.3421 106.193 30.2554 105.673C30.082 103.852 30.082 102.032 30.082 100.211C30.082 98.6508 30.1687 97.0903 30.2554 95.5298L31.0357 95.6166C30.949 97.177 30.8623 98.7375 30.8623 100.298C30.8623 102.118 30.949 103.939 31.0357 105.76C31.0357 106.28 31.1224 106.8 31.2091 107.407L30.4288 107.32ZM169.224 99.6911C169.224 99.3444 169.224 98.9976 169.224 98.6508H170.004C170.004 98.9976 170.004 99.3444 170.004 99.6911H169.224ZM169.137 97.6972C169.137 96.8302 169.05 95.8766 168.964 95.0097C168.79 92.5823 168.444 90.1549 168.01 87.7275L168.79 87.5542C169.224 89.9815 169.571 92.4956 169.744 94.923C169.831 95.8767 169.831 96.7435 169.917 97.6972H169.137ZM31.0357 94.5762L30.2554 94.4896C30.2554 94.1428 30.3421 93.796 30.3421 93.4492L31.1224 93.5359C31.1224 93.8827 31.0357 94.2295 31.0357 94.5762ZM31.2091 92.5823L30.4288 92.4956C30.7756 89.1146 31.4691 85.7336 32.336 82.4393L33.0296 82.6127C32.2494 85.907 31.6425 89.2013 31.2091 92.5823ZM167.837 86.6872C167.75 86.3405 167.663 85.9937 167.663 85.7336L168.444 85.5602C168.53 85.9069 168.617 86.2537 168.617 86.6005L167.837 86.6872ZM167.403 84.6933C166.623 81.3989 165.669 78.1913 164.456 75.0704L165.149 74.8103C166.363 77.9313 167.403 81.2256 168.183 84.5199L167.403 84.6933ZM33.3764 81.659L32.6828 81.4857C32.7695 81.1389 32.8562 80.7921 32.9429 80.532L33.6364 80.7054C33.5497 81.0522 33.4631 81.3989 33.3764 81.659ZM33.8965 79.7518L33.203 79.4917C34.2433 76.2841 35.457 73.0765 36.9308 70.0422L37.6243 70.389C36.1505 73.4232 34.9368 76.5442 33.8965 79.7518ZM164.022 74.1168C163.936 73.77 163.762 73.5099 163.675 73.1631L164.369 72.9031C164.542 73.2498 164.629 73.5099 164.802 73.8567L164.022 74.1168ZM163.242 72.2962C161.855 69.262 160.294 66.2277 158.474 63.4535L159.081 63.0201C160.901 65.8809 162.548 68.9152 163.849 72.0361L163.242 72.2962ZM38.0578 69.4354L37.3642 69.0886C37.5376 68.7418 37.711 68.4817 37.7977 68.135L38.4912 68.4818C38.4045 68.8285 38.2312 69.1753 38.0578 69.4354ZM39.0114 67.7015L38.3178 67.3547C39.8783 64.4072 41.7856 61.4596 43.7795 58.7722L44.3863 59.2056C42.3924 61.8064 40.5719 64.6673 39.0114 67.7015ZM157.954 62.4999C157.78 62.2399 157.607 61.9798 157.434 61.633L158.04 61.1996C158.214 61.4596 158.387 61.8064 158.561 62.0665L157.954 62.4999ZM156.827 60.8528C154.92 58.0786 152.752 55.4778 150.498 53.0504L151.018 52.5303C153.359 55.0444 155.526 57.6451 157.434 60.4193L156.827 60.8528ZM44.9932 58.3387L44.3863 57.9052C44.5597 57.6452 44.8198 57.3851 44.9932 57.125L45.6 57.5585C45.4267 57.8185 45.2533 58.0786 44.9932 58.3387ZM46.2936 56.7783L45.6867 56.2581C47.854 53.6573 50.1947 51.1432 52.7088 48.8025L53.229 49.3227C50.7149 51.6634 48.3742 54.1775 46.2936 56.7783ZM149.805 52.2702C149.545 52.0101 149.371 51.7501 149.111 51.5767L149.631 51.0565C149.891 51.3166 150.151 51.5766 150.325 51.75L149.805 52.2702ZM148.418 50.8831C145.99 48.5424 143.389 46.3751 140.702 44.3812L141.135 43.7744C143.91 45.7683 146.51 48.0223 148.938 50.363L148.418 50.8831ZM53.9225 48.7158L53.4024 48.109C53.6625 47.8489 53.9225 47.6755 54.1826 47.4154L54.7028 48.0223C54.4427 48.2823 54.1826 48.5424 53.9225 48.7158ZM55.483 47.4154L54.9628 46.8086C57.5636 44.6413 60.3378 42.6473 63.1986 40.8268L63.6321 41.4336C60.7713 43.2542 57.9971 45.2481 55.483 47.4154ZM139.835 43.7744C139.575 43.601 139.315 43.4276 138.968 43.1675L139.402 42.5606C139.662 42.734 139.922 42.9074 140.268 43.1675L139.835 43.7744ZM138.188 42.6473C135.414 40.8268 132.466 39.0929 129.432 37.7059L129.779 37.0123C132.813 38.4861 135.847 40.1333 138.708 42.0405L138.188 42.6473ZM64.499 41.0002L64.0656 40.3066C64.3257 40.1333 64.6724 39.9598 64.9325 39.7865L65.2793 40.48C65.0192 40.6534 64.7591 40.8268 64.499 41.0002ZM66.2329 39.9599L65.8861 39.2663C68.8337 37.6192 71.9546 36.1454 75.1622 34.9317L75.4223 35.6252C72.2147 36.9256 69.1804 38.3127 66.2329 39.9599ZM128.478 37.2724C128.131 37.099 127.871 37.0123 127.525 36.8389L127.871 36.1454C128.218 36.3187 128.478 36.4054 128.825 36.5788L128.478 37.2724ZM126.571 36.4921C123.45 35.1918 120.242 34.1514 117.035 33.2845L117.208 32.5043C120.503 33.3712 123.71 34.4115 126.918 35.7119L126.571 36.4921ZM76.2892 35.3651L76.0292 34.6716C76.3759 34.5849 76.636 34.4115 76.9828 34.3248L77.2429 35.0184C76.8961 35.1051 76.636 35.1918 76.2892 35.3651ZM78.1965 34.6716L77.9364 33.978C81.144 32.9377 84.4384 32.0708 87.8194 31.464L87.9927 32.2442C84.6984 32.7643 81.4041 33.6313 78.1965 34.6716ZM116.081 33.0244C115.734 32.9377 115.388 32.8511 115.128 32.7644L115.301 31.9841C115.648 32.0708 115.994 32.1575 116.341 32.2442L116.081 33.0244ZM114.087 32.591C110.793 31.8974 107.412 31.464 104.118 31.2906L104.204 30.5103C107.585 30.6837 110.966 31.1172 114.347 31.8107L114.087 32.591ZM88.9464 32.0708L88.8597 31.2906C89.2064 31.2039 89.5532 31.2039 89.9 31.1172L89.9867 31.8974C89.6399 31.9841 89.2932 31.9841 88.9464 32.0708ZM90.9403 31.724L90.8536 30.9438C92.0673 30.7704 93.281 30.6837 94.5814 30.5971C96.7487 30.4237 98.916 30.337 101.083 30.4237V31.2039C99.0027 31.2039 96.8354 31.2039 94.6681 31.3773C93.4544 31.4639 92.154 31.6374 90.9403 31.724ZM103.077 31.2039C102.731 31.2039 102.384 31.2039 102.037 31.2039V30.4237C102.384 30.4237 102.731 30.4237 103.077 30.4237V31.2039Z" fill="url(#paint78_radial)"/>
<path d="M99.9558 161.59C99.6957 161.59 99.4356 161.59 99.1755 161.59V160.81C99.4356 160.81 99.6957 160.81 99.8691 160.81H100.129V161.59H99.9558C100.042 161.59 100.042 161.59 99.9558 161.59ZM98.2219 161.503C97.8752 161.503 97.5284 161.503 97.1816 161.503V160.723C97.5284 160.723 97.8752 160.723 98.2219 160.723V161.503ZM102.817 161.503V160.723C106.198 160.549 109.579 160.116 112.786 159.422L112.96 160.203C109.665 160.896 106.198 161.33 102.817 161.503ZM94.6675 161.33C91.2865 161.07 87.9055 160.463 84.6112 159.596L84.7846 158.902C87.9922 159.769 91.3732 160.289 94.7542 160.636L94.6675 161.33ZM115.474 159.596L115.3 158.902C115.647 158.816 115.994 158.729 116.254 158.642L116.427 159.336C116.081 159.422 115.734 159.509 115.474 159.596ZM117.381 159.076L117.208 158.382C117.554 158.295 117.814 158.209 118.161 158.122L118.421 158.816C118.075 158.816 117.728 158.989 117.381 159.076ZM82.1838 158.902C81.837 158.816 81.4902 158.729 81.2301 158.556L81.4902 157.862C81.837 157.949 82.0971 158.035 82.4439 158.122L82.1838 158.902ZM80.1898 158.295C79.8431 158.209 79.583 158.035 79.2362 157.949L79.4963 157.255C79.8431 157.342 80.1032 157.515 80.4499 157.602L80.1898 158.295ZM120.762 157.949L120.502 157.255C123.623 156.128 126.744 154.741 129.691 153.094L130.038 153.787C127.091 155.348 123.97 156.822 120.762 157.949ZM76.8088 156.995C73.6879 155.695 70.567 154.134 67.7061 152.4L68.1396 151.794C71.0004 153.527 74.0346 155.088 77.1556 156.388L76.8088 156.995ZM132.292 152.4L131.859 151.794C132.119 151.62 132.466 151.447 132.726 151.273L133.159 151.88C132.812 152.054 132.552 152.227 132.292 152.4ZM134.026 151.273L133.593 150.667C133.853 150.493 134.113 150.32 134.459 150.06L134.893 150.667C134.546 150.927 134.286 151.1 134.026 151.273ZM65.6255 151.013C65.3654 150.84 65.1053 150.667 64.7585 150.406L65.192 149.8C65.4521 149.973 65.7122 150.146 66.0589 150.406L65.6255 151.013ZM63.9783 149.8C63.7183 149.626 63.4582 149.366 63.1981 149.193L63.6315 148.586C63.8916 148.759 64.1517 149.019 64.4118 149.193L63.9783 149.8ZM136.887 149.193L136.453 148.586C139.141 146.592 141.655 144.338 143.996 141.911L144.516 142.431C142.175 144.858 139.574 147.199 136.887 149.193ZM61.1174 147.632C58.5167 145.465 56.0026 143.124 53.8353 140.523L54.4421 140.003C56.6095 142.517 59.0368 144.858 61.6376 147.025L61.1174 147.632ZM146.25 140.523L145.643 140.003C145.903 139.743 146.076 139.483 146.336 139.223L146.943 139.743C146.683 140.003 146.423 140.263 146.25 140.523ZM147.55 138.963L146.943 138.443C147.117 138.183 147.377 137.923 147.55 137.663L148.157 138.096C147.984 138.443 147.723 138.703 147.55 138.963ZM52.1881 138.616C52.0147 138.356 51.7547 138.096 51.5813 137.836L52.1881 137.403C52.3615 137.663 52.6216 137.923 52.795 138.183L52.1881 138.616ZM50.8877 136.969C50.7143 136.709 50.4543 136.449 50.2809 136.189L50.8877 135.755C51.0611 136.015 51.3212 136.276 51.4946 136.536L50.8877 136.969ZM149.717 136.102L149.111 135.669C151.104 132.981 152.838 130.034 154.312 127.086L155.006 127.433C153.445 130.467 151.711 133.415 149.717 136.102ZM48.8071 134.022C46.8999 131.161 45.2527 128.213 43.8656 125.092L44.5592 124.745C45.9462 127.78 47.5067 130.814 49.4139 133.588L48.8071 134.022ZM156.046 125.092L155.352 124.745C155.526 124.399 155.612 124.139 155.786 123.792L156.479 124.052C156.306 124.485 156.219 124.745 156.046 125.092ZM156.826 123.185L156.133 122.925C156.219 122.578 156.393 122.318 156.479 121.971L157.173 122.231C157.086 122.578 157 122.925 156.826 123.185ZM42.9987 122.751C42.912 122.405 42.7386 122.145 42.6519 121.798L43.3455 121.538C43.4322 121.885 43.6055 122.145 43.6922 122.491L42.9987 122.751ZM42.2184 120.844C42.1317 120.497 41.9584 120.237 41.8717 119.891L42.5652 119.631C42.6519 119.977 42.8253 120.237 42.912 120.584L42.2184 120.844ZM158.127 119.804L157.433 119.544C158.473 116.336 159.34 113.042 159.86 109.748L160.641 109.834C160.034 113.302 159.167 116.596 158.127 119.804ZM41.1781 117.463C40.2245 114.169 39.531 110.875 39.1842 107.494L39.9645 107.407C40.3112 110.701 41.0048 114.082 41.9584 117.29L41.1781 117.463ZM160.901 107.407L160.12 107.32C160.12 106.973 160.207 106.627 160.207 106.28L160.987 106.367C160.987 106.713 160.901 107.06 160.901 107.407ZM161.074 105.413L160.294 105.326C160.294 104.979 160.381 104.633 160.381 104.286L161.161 104.373C161.161 104.719 161.074 105.066 161.074 105.413ZM38.9241 104.893C38.9241 104.546 38.8374 104.199 38.8374 103.852L39.6177 103.766C39.6177 104.113 39.6177 104.459 39.7044 104.806L38.9241 104.893ZM38.7507 102.899C38.7507 102.552 38.7507 102.205 38.7507 101.859H39.531C39.531 102.205 39.531 102.552 39.531 102.899H38.7507ZM161.247 101.772H160.467C160.467 101.252 160.467 100.818 160.467 100.298C160.467 97.4372 160.294 94.5764 159.86 91.7155L160.641 91.6288C161.074 94.4896 161.247 97.4372 161.247 100.298C161.334 100.818 161.247 101.338 161.247 101.772ZM39.4443 100.298H38.6641C38.6641 96.917 38.9241 93.4494 39.531 90.155L40.3112 90.2417C39.7911 93.536 39.4443 96.917 39.4443 100.298ZM159.514 89.2881C159.427 88.9413 159.427 88.5945 159.34 88.3345L160.12 88.1611C160.207 88.5078 160.294 88.8546 160.294 89.2014L159.514 89.2881ZM40.7447 87.8143L39.9645 87.6409C40.0511 87.2942 40.1378 86.9474 40.2245 86.6006L41.0047 86.774C40.9181 87.1208 40.8314 87.4676 40.7447 87.8143ZM159.167 87.2941C159.08 86.9474 158.994 86.6006 158.907 86.3405L159.687 86.1671C159.774 86.5139 159.86 86.8607 159.947 87.1208L159.167 87.2941ZM41.1781 85.8204L40.3979 85.647C40.4846 85.3002 40.5713 84.9534 40.658 84.6934L41.3515 84.8667C41.3515 85.2135 41.2648 85.4736 41.1781 85.8204ZM158.3 83.8264C157.433 80.6188 156.219 77.4112 154.746 74.377L155.439 74.0302C156.913 77.0644 158.127 80.272 158.993 83.5664L158.3 83.8264ZM42.1318 82.4394L41.4382 82.1793C42.4785 78.9717 43.6922 75.764 45.2527 72.7298L45.9462 73.0766C44.3858 76.1108 43.1721 79.2317 42.1318 82.4394ZM153.619 72.2096C153.445 71.9496 153.272 71.6028 153.185 71.3427L153.879 70.9959C154.052 71.256 154.225 71.6028 154.399 71.8628L153.619 72.2096ZM47.1599 70.8225L46.4664 70.4758C46.6398 70.2157 46.8132 69.8689 46.9865 69.6089L47.6801 69.9556C47.42 70.3024 47.2466 70.5624 47.1599 70.8225ZM152.665 70.3891C152.492 70.129 152.318 69.7822 152.145 69.5221L152.838 69.1754C153.012 69.4355 153.185 69.7822 153.358 70.0423L152.665 70.3891ZM48.1136 69.0887L47.42 68.6552C47.5934 68.3951 47.7668 68.0484 47.9402 67.7883L48.547 68.2217C48.4603 68.5685 48.2869 68.8286 48.1136 69.0887ZM150.844 67.4415C149.024 64.6674 146.943 61.9799 144.689 59.4658L145.209 58.9457C147.463 61.4598 149.631 64.1472 151.451 67.0081L150.844 67.4415ZM50.0208 66.1411L49.4139 65.7077C51.3212 62.9335 53.4885 60.246 55.8292 57.8186L56.3493 58.3388C54.0953 60.7662 51.928 63.367 50.0208 66.1411ZM142.869 57.6453C142.609 57.3852 142.435 57.2118 142.175 56.9517L142.695 56.4316C142.955 56.6916 143.215 56.865 143.389 57.1251L142.869 57.6453ZM58.1699 56.605L57.6497 56.0848C57.9098 55.8247 58.1699 55.6513 58.43 55.3912L58.9501 55.9114C58.69 56.0848 58.43 56.3449 58.1699 56.605ZM141.482 56.2582C141.221 55.9981 140.961 55.8247 140.701 55.5646L141.221 55.0445C141.482 55.3046 141.742 55.4779 142.002 55.738L141.482 56.2582ZM59.6437 55.2178L59.1235 54.611C59.3836 54.351 59.6437 54.1775 59.9038 53.9174L60.4239 54.5243C60.1638 54.7844 59.9038 54.9578 59.6437 55.2178ZM138.794 53.9174C136.193 51.7501 133.419 49.8429 130.558 48.1091L130.905 47.4155C133.853 49.1494 136.627 51.1433 139.228 53.3106L138.794 53.9174ZM62.4178 52.9639L61.9844 52.357C64.6718 50.2764 67.5327 48.3691 70.4803 46.722L70.827 47.4155C67.7928 48.976 65.0186 50.7965 62.4178 52.9639ZM128.391 46.8954C128.131 46.722 127.784 46.5486 127.524 46.4619L127.871 45.7684C128.218 45.9418 128.478 46.1151 128.738 46.2018L128.391 46.8954ZM72.9943 46.2018L72.6476 45.5083C72.9077 45.3349 73.2544 45.2482 73.6012 45.0748L73.948 45.7684C73.6012 45.8551 73.2544 46.0284 72.9943 46.2018ZM126.57 45.9418C126.31 45.7684 125.964 45.6817 125.617 45.5083L125.964 44.8147C126.31 44.9881 126.57 45.0748 126.917 45.2482L126.57 45.9418ZM74.8149 45.3349L74.4681 44.6414C74.8149 44.468 75.075 44.3813 75.4217 44.2079L75.7685 44.9014C75.4217 44.9881 75.075 45.1615 74.8149 45.3349ZM123.363 44.468C120.242 43.1676 117.034 42.1272 113.74 41.347L113.913 40.5668C117.208 41.347 120.502 42.3873 123.623 43.6877L123.363 44.468ZM78.0225 43.9478L77.7624 43.2543C80.9701 42.0406 84.1777 41.087 87.5587 40.3934L87.7321 41.1737C84.4378 41.7805 81.1434 42.7341 78.0225 43.9478ZM111.226 40.9135C110.879 40.8269 110.532 40.8269 110.272 40.7402L110.359 39.9599C110.706 40.0466 111.052 40.0467 111.399 40.1333L111.226 40.9135ZM90.1595 40.6535L90.0728 39.8733C90.4196 39.7866 90.7664 39.7866 91.1131 39.6999L91.1998 40.4801C90.853 40.4801 90.5063 40.5668 90.1595 40.6535ZM109.319 40.5668C108.972 40.4801 108.625 40.4801 108.278 40.3934L108.365 39.6132C108.712 39.6998 109.059 39.6999 109.405 39.7866L109.319 40.5668ZM92.1535 40.3067L92.0667 39.5265C92.4135 39.5265 92.7603 39.4398 93.1071 39.4398L93.1937 40.22C92.847 40.22 92.5002 40.3067 92.1535 40.3067ZM105.764 40.1333C102.47 39.7866 99.0022 39.7865 95.7078 40.0466L95.6212 39.2664C99.0022 39.0063 102.47 39.093 105.851 39.3531L105.764 40.1333Z" fill="url(#paint79_radial)"/>
<path d="M3.55317 158.556C4.94166 158.556 6.06725 157.43 6.06725 156.041C6.06725 154.653 4.94166 153.527 3.55317 153.527C2.16468 153.527 1.03906 154.653 1.03906 156.041C1.03906 157.43 2.16468 158.556 3.55317 158.556Z" fill="#0E0035"/>
<path d="M3.55304 158.989C1.90588 158.989 0.605469 157.688 0.605469 156.041C0.605469 154.394 1.90588 153.094 3.55304 153.094C5.2002 153.094 6.50059 154.394 6.50059 156.041C6.50059 157.688 5.2002 158.989 3.55304 158.989ZM3.55304 153.874C2.33934 153.874 1.38572 154.828 1.38572 156.041C1.38572 157.255 2.33934 158.209 3.55304 158.209C4.76674 158.209 5.72036 157.255 5.72036 156.041C5.72036 154.914 4.76674 153.874 3.55304 153.874Z" fill="url(#paint80_linear)"/>
<path d="M196.01 43.4276C197.399 43.4276 198.524 42.302 198.524 40.9135C198.524 39.525 197.399 38.3994 196.01 38.3994C194.622 38.3994 193.496 39.525 193.496 40.9135C193.496 42.302 194.622 43.4276 196.01 43.4276Z" fill="url(#paint81_linear)"/>
<mask id="mask1" mask-type="alpha" maskUnits="userSpaceOnUse" x="46" y="46" width="109" height="109">
<path d="M100.045 154.221C70.3091 154.221 46.0352 130.033 46.0352 100.298C46.0352 70.5622 70.2224 46.375 100.045 46.375C129.78 46.375 154.054 70.5622 154.054 100.298C153.968 130.033 129.78 154.221 100.045 154.221ZM100.045 47.1552C70.6559 47.1552 46.8154 70.9957 46.8154 100.298C46.8154 129.6 70.6559 153.44 100.045 153.44C129.434 153.44 153.274 129.6 153.274 100.298C153.187 70.9957 129.347 47.1552 100.045 47.1552Z" fill="url(#paint82_linear)"/>
</mask>
<g mask="url(#mask1)">
<path d="M100.045 154.221C70.3091 154.221 46.0352 130.033 46.0352 100.298C46.0352 70.5622 70.2224 46.375 100.045 46.375C129.78 46.375 154.054 70.5622 154.054 100.298C153.968 130.033 129.78 154.221 100.045 154.221ZM100.045 47.1552C70.6559 47.1552 46.8154 70.9957 46.8154 100.298C46.8154 129.6 70.6559 153.44 100.045 153.44C129.434 153.44 153.274 129.6 153.274 100.298C153.187 70.9957 129.347 47.1552 100.045 47.1552Z" fill="url(#paint83_linear)"/>
</g>
<path d="M60.168 78.8848V121.884L72.1315 100.211L60.168 78.8848Z" fill="#0E0035"/>
<path d="M60.5117 123.444L99.09 145.724L85.8259 123.444H60.5117Z" fill="#0E0035"/>
<path d="M86.0894 77.9307H61.0352L99.0065 99.3438L86.0894 77.9307Z" fill="#0E0035"/>
<path d="M99.6983 145.464V101.338L86.3477 123.184L99.6983 145.464Z" fill="#0E0035"/>
<path d="M99.0065 101.251L61.0352 122.837H85.8292L99.0065 101.251Z" fill="#0E0035"/>
<path d="M99.0915 54.8701L60.3398 77.2368H85.8275L99.0915 54.8701Z" fill="#0E0035"/>
<path d="M86.5195 77.4109L99.6968 99.2575V55.1309L86.5195 77.4109C86.5195 77.3242 86.5195 77.4109 86.5195 77.4109Z" fill="#0E0035"/>
<path d="M99.0057 100.558H72.6511L60.6875 122.231L99.0057 100.558Z" fill="#0E0035"/>
<path d="M60.6875 78.4512L72.6511 99.8642H98.6589L60.6875 78.4512Z" fill="#0E0035"/>
<path d="M114.177 122.837H138.971L101 101.164L114.177 122.837Z" fill="#0E0035"/>
<path d="M100.91 145.724L139.575 123.444H114.174L100.91 145.724Z" fill="#0E0035"/>
<path d="M139.748 77.2368L100.91 54.8701L114.174 77.2368H139.748Z" fill="#0E0035"/>
<path d="M139.924 121.884V78.7979L128.047 100.124L139.924 121.884Z" fill="#0E0035"/>
<path d="M113.481 77.4109L100.391 55.1309V99.1707L113.481 77.4109Z" fill="#0E0035"/>
<path d="M100.391 101.425V145.465L113.655 123.098L100.391 101.425Z" fill="#0E0035"/>
<path d="M101.434 99.8642H127.441L139.405 78.4512L101.434 99.8642Z" fill="#0E0035"/>
<path d="M127.527 100.558H101.086L139.404 122.317L127.527 100.558Z" fill="#0E0035"/>
<path d="M113.914 77.9307L100.91 99.4304L138.968 77.9307H113.914Z" fill="#0E0035"/>
<path d="M140.357 76.8906L100.218 53.7437C100.132 53.657 99.9581 53.657 99.8714 53.7437L59.7327 76.8906C59.646 76.9773 59.5593 77.0641 59.5593 77.1508V77.4108L59.4727 77.4975C59.4727 77.5842 59.4726 77.6709 59.5593 77.7576V122.924C59.4726 123.011 59.4727 123.098 59.4727 123.185C59.4727 123.185 59.4726 123.271 59.5593 123.271V123.358C59.5593 123.445 59.646 123.618 59.7327 123.618L99.7848 146.765C99.8714 146.852 99.9581 146.852 100.045 146.852C100.132 146.852 100.218 146.852 100.218 146.765L140.357 123.618C140.444 123.531 140.53 123.445 140.53 123.358V76.9774C140.53 76.9774 140.444 76.8906 140.357 76.8906ZM99.0912 54.8707L85.7405 77.2374H60.2529L99.0912 54.8707ZM72.65 100.558H99.0045L60.6863 122.318L72.65 100.558ZM72.65 99.8642L60.773 78.4511L98.6578 99.8642H72.65ZM99.0045 101.251L85.8272 122.838H61.0331L99.0045 101.251ZM61.0331 77.931H86.0873L99.0045 99.4307L61.0331 77.931ZM60.1662 78.8846L72.0431 100.298L60.1662 121.884V78.8846ZM60.513 123.445H85.8272L99.0912 145.725L60.513 123.445ZM99.698 145.465L86.3474 123.098L99.698 101.338V145.465ZM99.698 99.2574L86.5208 77.4108C86.5208 77.4108 86.5208 77.3241 86.4341 77.3241L99.6114 55.1308V99.2574H99.698ZM139.75 77.2374H114.089L100.825 54.784L139.75 77.2374ZM101.085 100.558H127.526L139.403 122.318L101.085 100.558ZM138.97 122.838H114.176L100.912 101.251L138.97 122.838ZM100.912 99.4307L113.916 77.931H138.97L100.912 99.4307ZM127.44 99.8642H101.432L139.317 78.3644L127.44 99.8642ZM100.392 55.1308L113.482 77.3241L100.392 99.084V55.1308ZM100.392 101.425L113.656 123.098L100.392 145.465V101.425ZM100.912 145.725L114.089 123.445H139.49L100.912 145.725ZM139.923 121.884L128.047 100.124L139.923 78.7979V121.884Z" fill="white"/>
<defs>
<radialGradient id="paint0_radial" cx="0" cy="0" r="1" gradientUnits="userSpaceOnUse" gradientTransform="translate(72.0285 70.5785) rotate(1.76642) scale(29.253 29.2262)">
<stop stop-color="#191919"/>
<stop offset="0.1668" stop-color="#1C1C1B"/>
<stop offset="0.3119" stop-color="#272521"/>
<stop offset="0.4489" stop-color="#39352B"/>
<stop offset="0.5811" stop-color="#524A39"/>
<stop offset="0.7098" stop-color="#73664C"/>
<stop offset="0.8357" stop-color="#9B8862"/>
<stop offset="0.9573" stop-color="#C9B07D"/>
<stop offset="1" stop-color="#DBC087"/>
</radialGradient>
<radialGradient id="paint1_radial" cx="0" cy="0" r="1" gradientUnits="userSpaceOnUse" gradientTransform="translate(68.8957 61.215) rotate(1.76642) scale(35.7217 35.689)">
<stop stop-color="#191919"/>
<stop offset="0.1668" stop-color="#1C1C1B"/>
<stop offset="0.3119" stop-color="#272521"/>
<stop offset="0.4489" stop-color="#39352B"/>
<stop offset="0.5811" stop-color="#524A39"/>
<stop offset="0.7098" stop-color="#73664C"/>
<stop offset="0.8357" stop-color="#9B8862"/>
<stop offset="0.9573" stop-color="#C9B07D"/>
<stop offset="1" stop-color="#DBC087"/>
</radialGradient>
<radialGradient id="paint2_radial" cx="0" cy="0" r="1" gradientUnits="userSpaceOnUse" gradientTransform="translate(77.32 66.3749) rotate(6.50243) scale(29.2491 29.2324)">
<stop stop-color="#191919"/>
<stop offset="0.1668" stop-color="#1C1C1B"/>
<stop offset="0.3119" stop-color="#272521"/>
<stop offset="0.4489" stop-color="#39352B"/>
<stop offset="0.5811" stop-color="#524A39"/>
<stop offset="0.7098" stop-color="#73664C"/>
<stop offset="0.8357" stop-color="#9B8862"/>
<stop offset="0.9573" stop-color="#C9B07D"/>
<stop offset="1" stop-color="#DBC087"/>
</radialGradient>
<radialGradient id="paint3_radial" cx="0" cy="0" r="1" gradientUnits="userSpaceOnUse" gradientTransform="translate(75.7773 56.6228) rotate(11.2482) scale(35.7165 35.6972)">
<stop stop-color="#191919"/>
<stop offset="0.1668" stop-color="#1C1C1B"/>
<stop offset="0.3119" stop-color="#272521"/>
<stop offset="0.4489" stop-color="#39352B"/>
<stop offset="0.5811" stop-color="#524A39"/>
<stop offset="0.7098" stop-color="#73664C"/>
<stop offset="0.8357" stop-color="#9B8862"/>
<stop offset="0.9573" stop-color="#C9B07D"/>
<stop offset="1" stop-color="#DBC087"/>
</radialGradient>
<radialGradient id="paint4_radial" cx="0" cy="0" r="1" gradientUnits="userSpaceOnUse" gradientTransform="translate(83.2366 63.1016) rotate(16.0007) scale(29.246 29.2313)">
<stop stop-color="#191919"/>
<stop offset="0.1668" stop-color="#1C1C1B"/>
<stop offset="0.3119" stop-color="#272521"/>
<stop offset="0.4489" stop-color="#39352B"/>
<stop offset="0.5811" stop-color="#524A39"/>
<stop offset="0.7098" stop-color="#73664C"/>
<stop offset="0.8357" stop-color="#9B8862"/>
<stop offset="0.9573" stop-color="#C9B07D"/>
<stop offset="1" stop-color="#DBC087"/>
</radialGradient>
<radialGradient id="paint5_radial" cx="0" cy="0" r="1" gradientUnits="userSpaceOnUse" gradientTransform="translate(83.323 53.2276) rotate(20.7525) scale(35.718 35.6874)">
<stop stop-color="#191919"/>
<stop offset="0.1668" stop-color="#1C1C1B"/>
<stop offset="0.3119" stop-color="#272521"/>
<stop offset="0.4489" stop-color="#39352B"/>
<stop offset="0.5811" stop-color="#524A39"/>
<stop offset="0.7098" stop-color="#73664C"/>
<stop offset="0.8357" stop-color="#9B8862"/>
<stop offset="0.9573" stop-color="#C9B07D"/>
<stop offset="1" stop-color="#DBC087"/>
</radialGradient>
<radialGradient id="paint6_radial" cx="0" cy="0" r="1" gradientUnits="userSpaceOnUse" gradientTransform="translate(89.609 60.8469) rotate(25.4934) scale(29.2434 29.2312)">
<stop stop-color="#191919"/>
<stop offset="0.1668" stop-color="#1C1C1B"/>
<stop offset="0.3119" stop-color="#272521"/>
<stop offset="0.4489" stop-color="#39352B"/>
<stop offset="0.5811" stop-color="#524A39"/>
<stop offset="0.7098" stop-color="#73664C"/>
<stop offset="0.8357" stop-color="#9B8862"/>
<stop offset="0.9573" stop-color="#C9B07D"/>
<stop offset="1" stop-color="#DBC087"/>
</radialGradient>
<radialGradient id="paint7_radial" cx="0" cy="0" r="1" gradientUnits="userSpaceOnUse" gradientTransform="translate(91.3255 51.1234) rotate(30.2438) scale(35.71 35.6967)">
<stop stop-color="#191919"/>
<stop offset="0.1668" stop-color="#1C1C1B"/>
<stop offset="0.3119" stop-color="#272521"/>
<stop offset="0.4489" stop-color="#39352B"/>
<stop offset="0.5811" stop-color="#524A39"/>
<stop offset="0.7098" stop-color="#73664C"/>
<stop offset="0.8357" stop-color="#9B8862"/>
<stop offset="0.9573" stop-color="#C9B07D"/>
<stop offset="1" stop-color="#DBC087"/>
</radialGradient>
<radialGradient id="paint8_radial" cx="0" cy="0" r="1" gradientUnits="userSpaceOnUse" gradientTransform="translate(96.268 59.6751) rotate(34.9806) scale(29.2419 29.2375)">
<stop stop-color="#191919"/>
<stop offset="0.1668" stop-color="#1C1C1B"/>
<stop offset="0.3119" stop-color="#272521"/>
<stop offset="0.4489" stop-color="#39352B"/>
<stop offset="0.5811" stop-color="#524A39"/>
<stop offset="0.7098" stop-color="#73664C"/>
<stop offset="0.8357" stop-color="#9B8862"/>
<stop offset="0.9573" stop-color="#C9B07D"/>
<stop offset="1" stop-color="#DBC087"/>
</radialGradient>
<radialGradient id="paint9_radial" cx="0" cy="0" r="1" gradientUnits="userSpaceOnUse" gradientTransform="translate(99.9524 50.3677) rotate(39.7372) scale(35.7061 35.6965)">
<stop stop-color="#191919"/>
<stop offset="0.1668" stop-color="#1C1C1B"/>
<stop offset="0.3119" stop-color="#272521"/>
<stop offset="0.4489" stop-color="#39352B"/>
<stop offset="0.5811" stop-color="#524A39"/>
<stop offset="0.7098" stop-color="#73664C"/>
<stop offset="0.8357" stop-color="#9B8862"/>
<stop offset="0.9573" stop-color="#C9B07D"/>
<stop offset="1" stop-color="#DBC087"/>
</radialGradient>
<radialGradient id="paint10_radial" cx="0" cy="0" r="1" gradientUnits="userSpaceOnUse" gradientTransform="translate(103.025 59.6175) rotate(44.4804) scale(29.2396 29.2393)">
<stop stop-color="#191919"/>
<stop offset="0.1668" stop-color="#1C1C1B"/>
<stop offset="0.3119" stop-color="#272521"/>
<stop offset="0.4489" stop-color="#39352B"/>
<stop offset="0.5811" stop-color="#524A39"/>
<stop offset="0.7098" stop-color="#73664C"/>
<stop offset="0.8357" stop-color="#9B8862"/>
<stop offset="0.9573" stop-color="#C9B07D"/>
<stop offset="1" stop-color="#DBC087"/>
</radialGradient>
<radialGradient id="paint11_radial" cx="0" cy="0" r="1" gradientUnits="userSpaceOnUse" gradientTransform="translate(107.819 50.9817) rotate(49.2222) scale(35.7057 35.708)">
<stop stop-color="#191919"/>
<stop offset="0.1668" stop-color="#1C1C1B"/>
<stop offset="0.3119" stop-color="#272521"/>
<stop offset="0.4489" stop-color="#39352B"/>
<stop offset="0.5811" stop-color="#524A39"/>
<stop offset="0.7098" stop-color="#73664C"/>
<stop offset="0.8357" stop-color="#9B8862"/>
<stop offset="0.9573" stop-color="#C9B07D"/>
<stop offset="1" stop-color="#DBC087"/>
</radialGradient>
<radialGradient id="paint12_radial" cx="0" cy="0" r="1" gradientUnits="userSpaceOnUse" gradientTransform="translate(109.702 60.674) rotate(53.9803) scale(29.2382 29.2421)">
<stop stop-color="#191919"/>
<stop offset="0.1668" stop-color="#1C1C1B"/>
<stop offset="0.3119" stop-color="#272521"/>
<stop offset="0.4489" stop-color="#39352B"/>
<stop offset="0.5811" stop-color="#524A39"/>
<stop offset="0.7098" stop-color="#73664C"/>
<stop offset="0.8357" stop-color="#9B8862"/>
<stop offset="0.9573" stop-color="#C9B07D"/>
<stop offset="1" stop-color="#DBC087"/>
</radialGradient>
<radialGradient id="paint13_radial" cx="0" cy="0" r="1" gradientUnits="userSpaceOnUse" gradientTransform="translate(115.857 52.9469) rotate(58.7272) scale(35.7047 35.712)">
<stop stop-color="#191919"/>
<stop offset="0.1668" stop-color="#1C1C1B"/>
<stop offset="0.3119" stop-color="#272521"/>
<stop offset="0.4489" stop-color="#39352B"/>
<stop offset="0.5811" stop-color="#524A39"/>
<stop offset="0.7098" stop-color="#73664C"/>
<stop offset="0.8357" stop-color="#9B8862"/>
<stop offset="0.9573" stop-color="#C9B07D"/>
<stop offset="1" stop-color="#DBC087"/>
</radialGradient>
<radialGradient id="paint14_radial" cx="0" cy="0" r="1" gradientUnits="userSpaceOnUse" gradientTransform="translate(116.112 62.8176) rotate(63.4819) scale(29.2315 29.2435)">
<stop stop-color="#191919"/>
<stop offset="0.1668" stop-color="#1C1C1B"/>
<stop offset="0.3119" stop-color="#272521"/>
<stop offset="0.4489" stop-color="#39352B"/>
<stop offset="0.5811" stop-color="#524A39"/>
<stop offset="0.7098" stop-color="#73664C"/>
<stop offset="0.8357" stop-color="#9B8862"/>
<stop offset="0.9573" stop-color="#C9B07D"/>
<stop offset="1" stop-color="#DBC087"/>
</radialGradient>
<radialGradient id="paint15_radial" cx="0" cy="0" r="1" gradientUnits="userSpaceOnUse" gradientTransform="translate(123.46 56.2116) rotate(68.2376) scale(35.697 35.7132)">
<stop stop-color="#191919"/>
<stop offset="0.1668" stop-color="#1C1C1B"/>
<stop offset="0.3119" stop-color="#272521"/>
<stop offset="0.4489" stop-color="#39352B"/>
<stop offset="0.5811" stop-color="#524A39"/>
<stop offset="0.7098" stop-color="#73664C"/>
<stop offset="0.8357" stop-color="#9B8862"/>
<stop offset="0.9573" stop-color="#C9B07D"/>
<stop offset="1" stop-color="#DBC087"/>
</radialGradient>
<radialGradient id="paint16_radial" cx="0" cy="0" r="1" gradientUnits="userSpaceOnUse" gradientTransform="translate(122.083 65.9894) rotate(72.9873) scale(29.2321 29.2465)">
<stop stop-color="#191919"/>
<stop offset="0.1668" stop-color="#1C1C1B"/>
<stop offset="0.3119" stop-color="#272521"/>
<stop offset="0.4489" stop-color="#39352B"/>
<stop offset="0.5811" stop-color="#524A39"/>
<stop offset="0.7098" stop-color="#73664C"/>
<stop offset="0.8357" stop-color="#9B8862"/>
<stop offset="0.9573" stop-color="#C9B07D"/>
<stop offset="1" stop-color="#DBC087"/>
</radialGradient>
<radialGradient id="paint17_radial" cx="0" cy="0" r="1" gradientUnits="userSpaceOnUse" gradientTransform="translate(130.423 60.6844) rotate(77.7427) scale(35.6866 35.7186)">
<stop stop-color="#191919"/>
<stop offset="0.1668" stop-color="#1C1C1B"/>
<stop offset="0.3119" stop-color="#272521"/>
<stop offset="0.4489" stop-color="#39352B"/>
<stop offset="0.5811" stop-color="#524A39"/>
<stop offset="0.7098" stop-color="#73664C"/>
<stop offset="0.8357" stop-color="#9B8862"/>
<stop offset="0.9573" stop-color="#C9B07D"/>
<stop offset="1" stop-color="#DBC087"/>
</radialGradient>
<radialGradient id="paint18_radial" cx="0" cy="0" r="1" gradientUnits="userSpaceOnUse" gradientTransform="translate(127.447 70.1014) rotate(82.4886) scale(29.2283 29.246)">
<stop stop-color="#191919"/>
<stop offset="0.1668" stop-color="#1C1C1B"/>
<stop offset="0.3119" stop-color="#272521"/>
<stop offset="0.4489" stop-color="#39352B"/>
<stop offset="0.5811" stop-color="#524A39"/>
<stop offset="0.7098" stop-color="#73664C"/>
<stop offset="0.8357" stop-color="#9B8862"/>
<stop offset="0.9573" stop-color="#C9B07D"/>
<stop offset="1" stop-color="#DBC087"/>
</radialGradient>
<radialGradient id="paint19_radial" cx="0" cy="0" r="1" gradientUnits="userSpaceOnUse" gradientTransform="translate(136.548 66.2428) rotate(87.2512) scale(35.6882 35.7209)">
<stop stop-color="#191919"/>
<stop offset="0.1668" stop-color="#1C1C1B"/>
<stop offset="0.3119" stop-color="#272521"/>
<stop offset="0.4489" stop-color="#39352B"/>
<stop offset="0.5811" stop-color="#524A39"/>
<stop offset="0.7098" stop-color="#73664C"/>
<stop offset="0.8357" stop-color="#9B8862"/>
<stop offset="0.9573" stop-color="#C9B07D"/>
<stop offset="1" stop-color="#DBC087"/>
</radialGradient>
<radialGradient id="paint20_radial" cx="0" cy="0" r="1" gradientUnits="userSpaceOnUse" gradientTransform="translate(132.057 75.0405) rotate(91.9954) scale(29.2251 29.2519)">
<stop stop-color="#191919"/>
<stop offset="0.1668" stop-color="#1C1C1B"/>
<stop offset="0.3119" stop-color="#272521"/>
<stop offset="0.4489" stop-color="#39352B"/>
<stop offset="0.5811" stop-color="#524A39"/>
<stop offset="0.7098" stop-color="#73664C"/>
<stop offset="0.8357" stop-color="#9B8862"/>
<stop offset="0.9573" stop-color="#C9B07D"/>
<stop offset="1" stop-color="#DBC087"/>
</radialGradient>
<radialGradient id="paint21_radial" cx="0" cy="0" r="1" gradientUnits="userSpaceOnUse" gradientTransform="translate(141.673 72.7366) rotate(96.7538) scale(35.6856 35.7168)">
<stop stop-color="#191919"/>
<stop offset="0.1668" stop-color="#1C1C1B"/>
<stop offset="0.3119" stop-color="#272521"/>
<stop offset="0.4489" stop-color="#39352B"/>
<stop offset="0.5811" stop-color="#524A39"/>
<stop offset="0.7098" stop-color="#73664C"/>
<stop offset="0.8357" stop-color="#9B8862"/>
<stop offset="0.9573" stop-color="#C9B07D"/>
<stop offset="1" stop-color="#DBC087"/>
</radialGradient>
<radialGradient id="paint22_radial" cx="0" cy="0" r="1" gradientUnits="userSpaceOnUse" gradientTransform="translate(135.788 80.6734) rotate(101.506) scale(29.2235 29.248)">
<stop stop-color="#191919"/>
<stop offset="0.1668" stop-color="#1C1C1B"/>
<stop offset="0.3119" stop-color="#272521"/>
<stop offset="0.4489" stop-color="#39352B"/>
<stop offset="0.5811" stop-color="#524A39"/>
<stop offset="0.7098" stop-color="#73664C"/>
<stop offset="0.8357" stop-color="#9B8862"/>
<stop offset="0.9573" stop-color="#C9B07D"/>
<stop offset="1" stop-color="#DBC087"/>
</radialGradient>
<radialGradient id="paint23_radial" cx="0" cy="0" r="1" gradientUnits="userSpaceOnUse" gradientTransform="translate(145.652 79.9844) rotate(106.248) scale(35.6921 35.7235)">
<stop stop-color="#191919"/>
<stop offset="0.1668" stop-color="#1C1C1B"/>
<stop offset="0.3119" stop-color="#272521"/>
<stop offset="0.4489" stop-color="#39352B"/>
<stop offset="0.5811" stop-color="#524A39"/>
<stop offset="0.7098" stop-color="#73664C"/>
<stop offset="0.8357" stop-color="#9B8862"/>
<stop offset="0.9573" stop-color="#C9B07D"/>
<stop offset="1" stop-color="#DBC087"/>
</radialGradient>
<radialGradient id="paint24_radial" cx="0" cy="0" r="1" gradientUnits="userSpaceOnUse" gradientTransform="translate(138.541 86.8434) rotate(111.009) scale(29.2325 29.2459)">
<stop stop-color="#191919"/>
<stop offset="0.1668" stop-color="#1C1C1B"/>
<stop offset="0.3119" stop-color="#272521"/>
<stop offset="0.4489" stop-color="#39352B"/>
<stop offset="0.5811" stop-color="#524A39"/>
<stop offset="0.7098" stop-color="#73664C"/>
<stop offset="0.8357" stop-color="#9B8862"/>
<stop offset="0.9573" stop-color="#C9B07D"/>
<stop offset="1" stop-color="#DBC087"/>
</radialGradient>
<radialGradient id="paint25_radial" cx="0" cy="0" r="1" gradientUnits="userSpaceOnUse" gradientTransform="translate(148.382 87.791) rotate(115.759) scale(35.6996 35.7145)">
<stop stop-color="#191919"/>
<stop offset="0.1668" stop-color="#1C1C1B"/>
<stop offset="0.3119" stop-color="#272521"/>
<stop offset="0.4489" stop-color="#39352B"/>
<stop offset="0.5811" stop-color="#524A39"/>
<stop offset="0.7098" stop-color="#73664C"/>
<stop offset="0.8357" stop-color="#9B8862"/>
<stop offset="0.9573" stop-color="#C9B07D"/>
<stop offset="1" stop-color="#DBC087"/>
</radialGradient>
<radialGradient id="paint26_radial" cx="0" cy="0" r="1" gradientUnits="userSpaceOnUse" gradientTransform="translate(140.234 93.3828) rotate(120.505) scale(29.2348 29.2456)">
<stop stop-color="#191919"/>
<stop offset="0.1668" stop-color="#1C1C1B"/>
<stop offset="0.3119" stop-color="#272521"/>
<stop offset="0.4489" stop-color="#39352B"/>
<stop offset="0.5811" stop-color="#524A39"/>
<stop offset="0.7098" stop-color="#73664C"/>
<stop offset="0.8357" stop-color="#9B8862"/>
<stop offset="0.9573" stop-color="#C9B07D"/>
<stop offset="1" stop-color="#DBC087"/>
</radialGradient>
<radialGradient id="paint27_radial" cx="0" cy="0" r="1" gradientUnits="userSpaceOnUse" gradientTransform="translate(149.785 95.9404) rotate(125.253) scale(35.7017 35.7133)">
<stop stop-color="#191919"/>
<stop offset="0.1668" stop-color="#1C1C1B"/>
<stop offset="0.3119" stop-color="#272521"/>
<stop offset="0.4489" stop-color="#39352B"/>
<stop offset="0.5811" stop-color="#524A39"/>
<stop offset="0.7098" stop-color="#73664C"/>
<stop offset="0.8357" stop-color="#9B8862"/>
<stop offset="0.9573" stop-color="#C9B07D"/>
<stop offset="1" stop-color="#DBC087"/>
</radialGradient>
<radialGradient id="paint28_radial" cx="0" cy="0" r="1" gradientUnits="userSpaceOnUse" gradientTransform="translate(140.825 100.113) rotate(129.996) scale(29.2432 29.2443)">
<stop stop-color="#191919"/>
<stop offset="0.1668" stop-color="#1C1C1B"/>
<stop offset="0.3119" stop-color="#272521"/>
<stop offset="0.4489" stop-color="#39352B"/>
<stop offset="0.5811" stop-color="#524A39"/>
<stop offset="0.7098" stop-color="#73664C"/>
<stop offset="0.8357" stop-color="#9B8862"/>
<stop offset="0.9573" stop-color="#C9B07D"/>
<stop offset="1" stop-color="#DBC087"/>
</radialGradient>
<radialGradient id="paint29_radial" cx="0" cy="0" r="1" gradientUnits="userSpaceOnUse" gradientTransform="translate(149.824 104.208) rotate(134.753) scale(35.7045 35.7046)">
<stop stop-color="#191919"/>
<stop offset="0.1668" stop-color="#1C1C1B"/>
<stop offset="0.3119" stop-color="#272521"/>
<stop offset="0.4489" stop-color="#39352B"/>
<stop offset="0.5811" stop-color="#524A39"/>
<stop offset="0.7098" stop-color="#73664C"/>
<stop offset="0.8357" stop-color="#9B8862"/>
<stop offset="0.9573" stop-color="#C9B07D"/>
<stop offset="1" stop-color="#DBC087"/>
</radialGradient>
<radialGradient id="paint30_radial" cx="0" cy="0" r="1" gradientUnits="userSpaceOnUse" gradientTransform="translate(140.297 106.847) rotate(139.507) scale(29.2382 29.2362)">
<stop stop-color="#191919"/>
<stop offset="0.1668" stop-color="#1C1C1B"/>
<stop offset="0.3119" stop-color="#272521"/>
<stop offset="0.4489" stop-color="#39352B"/>
<stop offset="0.5811" stop-color="#524A39"/>
<stop offset="0.7098" stop-color="#73664C"/>
<stop offset="0.8357" stop-color="#9B8862"/>
<stop offset="0.9573" stop-color="#C9B07D"/>
<stop offset="1" stop-color="#DBC087"/>
</radialGradient>
<radialGradient id="paint31_radial" cx="0" cy="0" r="1" gradientUnits="userSpaceOnUse" gradientTransform="translate(148.496 112.37) rotate(144.253) scale(35.716 35.6958)">
<stop stop-color="#191919"/>
<stop offset="0.1668" stop-color="#1C1C1B"/>
<stop offset="0.3119" stop-color="#272521"/>
<stop offset="0.4489" stop-color="#39352B"/>
<stop offset="0.5811" stop-color="#524A39"/>
<stop offset="0.7098" stop-color="#73664C"/>
<stop offset="0.8357" stop-color="#9B8862"/>
<stop offset="0.9573" stop-color="#C9B07D"/>
<stop offset="1" stop-color="#DBC087"/>
</radialGradient>
<radialGradient id="paint32_radial" cx="0" cy="0" r="1" gradientUnits="userSpaceOnUse" gradientTransform="translate(138.662 113.401) rotate(149.003) scale(29.2455 29.2348)">
<stop stop-color="#191919"/>
<stop offset="0.1668" stop-color="#1C1C1B"/>
<stop offset="0.3119" stop-color="#272521"/>
<stop offset="0.4489" stop-color="#39352B"/>
<stop offset="0.5811" stop-color="#524A39"/>
<stop offset="0.7098" stop-color="#73664C"/>
<stop offset="0.8357" stop-color="#9B8862"/>
<stop offset="0.9573" stop-color="#C9B07D"/>
<stop offset="1" stop-color="#DBC087"/>
</radialGradient>
<radialGradient id="paint33_radial" cx="0" cy="0" r="1" gradientUnits="userSpaceOnUse" gradientTransform="translate(145.838 120.201) rotate(153.748) scale(35.7141 35.6994)">
<stop stop-color="#191919"/>
<stop offset="0.1668" stop-color="#1C1C1B"/>
<stop offset="0.3119" stop-color="#272521"/>
<stop offset="0.4489" stop-color="#39352B"/>
<stop offset="0.5811" stop-color="#524A39"/>
<stop offset="0.7098" stop-color="#73664C"/>
<stop offset="0.8357" stop-color="#9B8862"/>
<stop offset="0.9573" stop-color="#C9B07D"/>
<stop offset="1" stop-color="#DBC087"/>
</radialGradient>
<radialGradient id="paint34_radial" cx="0" cy="0" r="1" gradientUnits="userSpaceOnUse" gradientTransform="translate(135.969 119.597) rotate(158.494) scale(29.2452 29.2319)">
<stop stop-color="#191919"/>
<stop offset="0.1668" stop-color="#1C1C1B"/>
<stop offset="0.3119" stop-color="#272521"/>
<stop offset="0.4489" stop-color="#39352B"/>
<stop offset="0.5811" stop-color="#524A39"/>
<stop offset="0.7098" stop-color="#73664C"/>
<stop offset="0.8357" stop-color="#9B8862"/>
<stop offset="0.9573" stop-color="#C9B07D"/>
<stop offset="1" stop-color="#DBC087"/>
</radialGradient>
<radialGradient id="paint35_radial" cx="0" cy="0" r="1" gradientUnits="userSpaceOnUse" gradientTransform="translate(141.925 127.487) rotate(163.235) scale(35.7134 35.6956)">
<stop stop-color="#191919"/>
<stop offset="0.1668" stop-color="#1C1C1B"/>
<stop offset="0.3119" stop-color="#272521"/>
<stop offset="0.4489" stop-color="#39352B"/>
<stop offset="0.5811" stop-color="#524A39"/>
<stop offset="0.7098" stop-color="#73664C"/>
<stop offset="0.8357" stop-color="#9B8862"/>
<stop offset="0.9573" stop-color="#C9B07D"/>
<stop offset="1" stop-color="#DBC087"/>
</radialGradient>
<radialGradient id="paint36_radial" cx="0" cy="0" r="1" gradientUnits="userSpaceOnUse" gradientTransform="translate(132.293 125.264) rotate(167.987) scale(29.2485 29.2241)">
<stop stop-color="#191919"/>
<stop offset="0.1668" stop-color="#1C1C1B"/>
<stop offset="0.3119" stop-color="#272521"/>
<stop offset="0.4489" stop-color="#39352B"/>
<stop offset="0.5811" stop-color="#524A39"/>
<stop offset="0.7098" stop-color="#73664C"/>
<stop offset="0.8357" stop-color="#9B8862"/>
<stop offset="0.9573" stop-color="#C9B07D"/>
<stop offset="1" stop-color="#DBC087"/>
</radialGradient>
<radialGradient id="paint37_radial" cx="0" cy="0" r="1" gradientUnits="userSpaceOnUse" gradientTransform="translate(136.862 134.026) rotate(172.723) scale(35.718 35.6964)">
<stop stop-color="#191919"/>
<stop offset="0.1668" stop-color="#1C1C1B"/>
<stop offset="0.3119" stop-color="#272521"/>
<stop offset="0.4489" stop-color="#39352B"/>
<stop offset="0.5811" stop-color="#524A39"/>
<stop offset="0.7098" stop-color="#73664C"/>
<stop offset="0.8357" stop-color="#9B8862"/>
<stop offset="0.9573" stop-color="#C9B07D"/>
<stop offset="1" stop-color="#DBC087"/>
</radialGradient>
<radialGradient id="paint38_radial" cx="0" cy="0" r="1" gradientUnits="userSpaceOnUse" gradientTransform="translate(127.726 130.246) rotate(177.481) scale(29.2476 29.2297)">
<stop stop-color="#191919"/>
<stop offset="0.1668" stop-color="#1C1C1B"/>
<stop offset="0.3119" stop-color="#272521"/>
<stop offset="0.4489" stop-color="#39352B"/>
<stop offset="0.5811" stop-color="#524A39"/>
<stop offset="0.7098" stop-color="#73664C"/>
<stop offset="0.8357" stop-color="#9B8862"/>
<stop offset="0.9573" stop-color="#C9B07D"/>
<stop offset="1" stop-color="#DBC087"/>
</radialGradient>
<radialGradient id="paint39_radial" cx="0" cy="0" r="1" gradientUnits="userSpaceOnUse" gradientTransform="translate(130.789 139.643) rotate(-177.779) scale(35.7218 35.6891)">
<stop stop-color="#191919"/>
<stop offset="0.1668" stop-color="#1C1C1B"/>
<stop offset="0.3119" stop-color="#272521"/>
<stop offset="0.4489" stop-color="#39352B"/>
<stop offset="0.5811" stop-color="#524A39"/>
<stop offset="0.7098" stop-color="#73664C"/>
<stop offset="0.8357" stop-color="#9B8862"/>
<stop offset="0.9573" stop-color="#C9B07D"/>
<stop offset="1" stop-color="#DBC087"/>
</radialGradient>
<radialGradient id="paint40_radial" cx="0" cy="0" r="1" gradientUnits="userSpaceOnUse" gradientTransform="translate(122.403 134.408) rotate(-173.04) scale(29.2491 29.2324)">
<stop stop-color="#191919"/>
<stop offset="0.1668" stop-color="#1C1C1B"/>
<stop offset="0.3119" stop-color="#272521"/>
<stop offset="0.4489" stop-color="#39352B"/>
<stop offset="0.5811" stop-color="#524A39"/>
<stop offset="0.7098" stop-color="#73664C"/>
<stop offset="0.8357" stop-color="#9B8862"/>
<stop offset="0.9573" stop-color="#C9B07D"/>
<stop offset="1" stop-color="#DBC087"/>
</radialGradient>
<radialGradient id="paint41_radial" cx="0" cy="0" r="1" gradientUnits="userSpaceOnUse" gradientTransform="translate(123.869 144.18) rotate(-168.289) scale(35.7164 35.6972)">
<stop stop-color="#191919"/>
<stop offset="0.1668" stop-color="#1C1C1B"/>
<stop offset="0.3119" stop-color="#272521"/>
<stop offset="0.4489" stop-color="#39352B"/>
<stop offset="0.5811" stop-color="#524A39"/>
<stop offset="0.7098" stop-color="#73664C"/>
<stop offset="0.8357" stop-color="#9B8862"/>
<stop offset="0.9573" stop-color="#C9B07D"/>
<stop offset="1" stop-color="#DBC087"/>
</radialGradient>
<radialGradient id="paint42_radial" cx="0" cy="0" r="1" gradientUnits="userSpaceOnUse" gradientTransform="translate(116.46 137.634) rotate(-163.545) scale(29.2458 29.2312)">
<stop stop-color="#191919"/>
<stop offset="0.1668" stop-color="#1C1C1B"/>
<stop offset="0.3119" stop-color="#272521"/>
<stop offset="0.4489" stop-color="#39352B"/>
<stop offset="0.5811" stop-color="#524A39"/>
<stop offset="0.7098" stop-color="#73664C"/>
<stop offset="0.8357" stop-color="#9B8862"/>
<stop offset="0.9573" stop-color="#C9B07D"/>
<stop offset="1" stop-color="#DBC087"/>
</radialGradient>
<radialGradient id="paint43_radial" cx="0" cy="0" r="1" gradientUnits="userSpaceOnUse" gradientTransform="translate(116.299 147.514) rotate(-158.793) scale(35.7129 35.6965)">
<stop stop-color="#191919"/>
<stop offset="0.1668" stop-color="#1C1C1B"/>
<stop offset="0.3119" stop-color="#272521"/>
<stop offset="0.4489" stop-color="#39352B"/>
<stop offset="0.5811" stop-color="#524A39"/>
<stop offset="0.7098" stop-color="#73664C"/>
<stop offset="0.8357" stop-color="#9B8862"/>
<stop offset="0.9573" stop-color="#C9B07D"/>
<stop offset="1" stop-color="#DBC087"/>
</radialGradient>
<radialGradient id="paint44_radial" cx="0" cy="0" r="1" gradientUnits="userSpaceOnUse" gradientTransform="translate(110.07 139.837) rotate(-154.061) scale(29.2514 29.2351)">
<stop stop-color="#191919"/>
<stop offset="0.1668" stop-color="#1C1C1B"/>
<stop offset="0.3119" stop-color="#272521"/>
<stop offset="0.4489" stop-color="#39352B"/>
<stop offset="0.5811" stop-color="#524A39"/>
<stop offset="0.7098" stop-color="#73664C"/>
<stop offset="0.8357" stop-color="#9B8862"/>
<stop offset="0.9573" stop-color="#C9B07D"/>
<stop offset="1" stop-color="#DBC087"/>
</radialGradient>
<radialGradient id="paint45_radial" cx="0" cy="0" r="1" gradientUnits="userSpaceOnUse" gradientTransform="translate(108.278 149.555) rotate(-149.309) scale(35.711 35.7034)">
<stop stop-color="#191919"/>
<stop offset="0.1668" stop-color="#1C1C1B"/>
<stop offset="0.3119" stop-color="#272521"/>
<stop offset="0.4489" stop-color="#39352B"/>
<stop offset="0.5811" stop-color="#524A39"/>
<stop offset="0.7098" stop-color="#73664C"/>
<stop offset="0.8357" stop-color="#9B8862"/>
<stop offset="0.9573" stop-color="#C9B07D"/>
<stop offset="1" stop-color="#DBC087"/>
</radialGradient>
<radialGradient id="paint46_radial" cx="0" cy="0" r="1" gradientUnits="userSpaceOnUse" gradientTransform="translate(103.403 140.957) rotate(-144.554) scale(29.2406 29.2312)">
<stop stop-color="#191919"/>
<stop offset="0.1668" stop-color="#1C1C1B"/>
<stop offset="0.3119" stop-color="#272521"/>
<stop offset="0.4489" stop-color="#39352B"/>
<stop offset="0.5811" stop-color="#524A39"/>
<stop offset="0.7098" stop-color="#73664C"/>
<stop offset="0.8357" stop-color="#9B8862"/>
<stop offset="0.9573" stop-color="#C9B07D"/>
<stop offset="1" stop-color="#DBC087"/>
</radialGradient>
<radialGradient id="paint47_radial" cx="0" cy="0" r="1" gradientUnits="userSpaceOnUse" gradientTransform="translate(100.032 150.244) rotate(-139.805) scale(35.7085 35.6988)">
<stop stop-color="#191919"/>
<stop offset="0.1668" stop-color="#1C1C1B"/>
<stop offset="0.3119" stop-color="#272521"/>
<stop offset="0.4489" stop-color="#39352B"/>
<stop offset="0.5811" stop-color="#524A39"/>
<stop offset="0.7098" stop-color="#73664C"/>
<stop offset="0.8357" stop-color="#9B8862"/>
<stop offset="0.9573" stop-color="#C9B07D"/>
<stop offset="1" stop-color="#DBC087"/>
</radialGradient>
<radialGradient id="paint48_radial" cx="0" cy="0" r="1" gradientUnits="userSpaceOnUse" gradientTransform="translate(96.6423 140.961) rotate(-135.062) scale(29.2327 29.239)">
<stop stop-color="#191919"/>
<stop offset="0.1668" stop-color="#1C1C1B"/>
<stop offset="0.3119" stop-color="#272521"/>
<stop offset="0.4489" stop-color="#39352B"/>
<stop offset="0.5811" stop-color="#524A39"/>
<stop offset="0.7098" stop-color="#73664C"/>
<stop offset="0.8357" stop-color="#9B8862"/>
<stop offset="0.9573" stop-color="#C9B07D"/>
<stop offset="1" stop-color="#DBC087"/>
</radialGradient>
<radialGradient id="paint49_radial" cx="0" cy="0" r="1" gradientUnits="userSpaceOnUse" gradientTransform="translate(91.7857 149.565) rotate(-130.319) scale(35.7058 35.7083)">
<stop stop-color="#191919"/>
<stop offset="0.1668" stop-color="#1C1C1B"/>
<stop offset="0.3119" stop-color="#272521"/>
<stop offset="0.4489" stop-color="#39352B"/>
<stop offset="0.5811" stop-color="#524A39"/>
<stop offset="0.7098" stop-color="#73664C"/>
<stop offset="0.8357" stop-color="#9B8862"/>
<stop offset="0.9573" stop-color="#C9B07D"/>
<stop offset="1" stop-color="#DBC087"/>
</radialGradient>
<radialGradient id="paint50_radial" cx="0" cy="0" r="1" gradientUnits="userSpaceOnUse" gradientTransform="translate(89.9771 139.85) rotate(-125.568) scale(29.2381 29.2423)">
<stop stop-color="#191919"/>
<stop offset="0.1668" stop-color="#1C1C1B"/>
<stop offset="0.3119" stop-color="#272521"/>
<stop offset="0.4489" stop-color="#39352B"/>
<stop offset="0.5811" stop-color="#524A39"/>
<stop offset="0.7098" stop-color="#73664C"/>
<stop offset="0.8357" stop-color="#9B8862"/>
<stop offset="0.9573" stop-color="#C9B07D"/>
<stop offset="1" stop-color="#DBC087"/>
</radialGradient>
<radialGradient id="paint51_radial" cx="0" cy="0" r="1" gradientUnits="userSpaceOnUse" gradientTransform="translate(83.763 147.535) rotate(-120.811) scale(35.694 35.7166)">
<stop stop-color="#191919"/>
<stop offset="0.1668" stop-color="#1C1C1B"/>
<stop offset="0.3119" stop-color="#272521"/>
<stop offset="0.4489" stop-color="#39352B"/>
<stop offset="0.5811" stop-color="#524A39"/>
<stop offset="0.7098" stop-color="#73664C"/>
<stop offset="0.8357" stop-color="#9B8862"/>
<stop offset="0.9573" stop-color="#C9B07D"/>
<stop offset="1" stop-color="#DBC087"/>
</radialGradient>
<radialGradient id="paint52_radial" cx="0" cy="0" r="1" gradientUnits="userSpaceOnUse" gradientTransform="translate(83.5802 137.656) rotate(-116.064) scale(29.2376 29.2458)">
<stop stop-color="#191919"/>
<stop offset="0.1668" stop-color="#1C1C1B"/>
<stop offset="0.3119" stop-color="#272521"/>
<stop offset="0.4489" stop-color="#39352B"/>
<stop offset="0.5811" stop-color="#524A39"/>
<stop offset="0.7098" stop-color="#73664C"/>
<stop offset="0.8357" stop-color="#9B8862"/>
<stop offset="0.9573" stop-color="#C9B07D"/>
<stop offset="1" stop-color="#DBC087"/>
</radialGradient>
<radialGradient id="paint53_radial" cx="0" cy="0" r="1" gradientUnits="userSpaceOnUse" gradientTransform="translate(76.1847 144.211) rotate(-111.314) scale(35.6932 35.7197)">
<stop stop-color="#191919"/>
<stop offset="0.1668" stop-color="#1C1C1B"/>
<stop offset="0.3119" stop-color="#272521"/>
<stop offset="0.4489" stop-color="#39352B"/>
<stop offset="0.5811" stop-color="#524A39"/>
<stop offset="0.7098" stop-color="#73664C"/>
<stop offset="0.8357" stop-color="#9B8862"/>
<stop offset="0.9573" stop-color="#C9B07D"/>
<stop offset="1" stop-color="#DBC087"/>
</radialGradient>
<radialGradient id="paint54_radial" cx="0" cy="0" r="1" gradientUnits="userSpaceOnUse" gradientTransform="translate(77.6397 134.438) rotate(-106.558) scale(29.2284 29.2515)">
<stop stop-color="#191919"/>
<stop offset="0.1668" stop-color="#1C1C1B"/>
<stop offset="0.3119" stop-color="#272521"/>
<stop offset="0.4489" stop-color="#39352B"/>
<stop offset="0.5811" stop-color="#524A39"/>
<stop offset="0.7098" stop-color="#73664C"/>
<stop offset="0.8357" stop-color="#9B8862"/>
<stop offset="0.9573" stop-color="#C9B07D"/>
<stop offset="1" stop-color="#DBC087"/>
</radialGradient>
<radialGradient id="paint55_radial" cx="0" cy="0" r="1" gradientUnits="userSpaceOnUse" gradientTransform="translate(69.2597 139.683) rotate(-101.808) scale(35.6984 35.7175)">
<stop stop-color="#191919"/>
<stop offset="0.1668" stop-color="#1C1C1B"/>
<stop offset="0.3119" stop-color="#272521"/>
<stop offset="0.4489" stop-color="#39352B"/>
<stop offset="0.5811" stop-color="#524A39"/>
<stop offset="0.7098" stop-color="#73664C"/>
<stop offset="0.8357" stop-color="#9B8862"/>
<stop offset="0.9573" stop-color="#C9B07D"/>
<stop offset="1" stop-color="#DBC087"/>
</radialGradient>
<radialGradient id="paint56_radial" cx="0" cy="0" r="1" gradientUnits="userSpaceOnUse" gradientTransform="translate(72.3085 130.283) rotate(-97.0534) scale(29.2237 29.2503)">
<stop stop-color="#191919"/>
<stop offset="0.1668" stop-color="#1C1C1B"/>
<stop offset="0.3119" stop-color="#272521"/>
<stop offset="0.4489" stop-color="#39352B"/>
<stop offset="0.5811" stop-color="#524A39"/>
<stop offset="0.7098" stop-color="#73664C"/>
<stop offset="0.8357" stop-color="#9B8862"/>
<stop offset="0.9573" stop-color="#C9B07D"/>
<stop offset="1" stop-color="#DBC087"/>
</radialGradient>
<radialGradient id="paint57_radial" cx="0" cy="0" r="1" gradientUnits="userSpaceOnUse" gradientTransform="translate(63.1808 134.075) rotate(-92.2934) scale(35.6883 35.721)">
<stop stop-color="#191919"/>
<stop offset="0.1668" stop-color="#1C1C1B"/>
<stop offset="0.3119" stop-color="#272521"/>
<stop offset="0.4489" stop-color="#39352B"/>
<stop offset="0.5811" stop-color="#524A39"/>
<stop offset="0.7098" stop-color="#73664C"/>
<stop offset="0.8357" stop-color="#9B8862"/>
<stop offset="0.9573" stop-color="#C9B07D"/>
<stop offset="1" stop-color="#DBC087"/>
</radialGradient>
<radialGradient id="paint58_radial" cx="0" cy="0" r="1" gradientUnits="userSpaceOnUse" gradientTransform="translate(67.7365 125.307) rotate(-87.5492) scale(29.2253 29.252)">
<stop stop-color="#191919"/>
<stop offset="0.1668" stop-color="#1C1C1B"/>
<stop offset="0.3119" stop-color="#272521"/>
<stop offset="0.4489" stop-color="#39352B"/>
<stop offset="0.5811" stop-color="#524A39"/>
<stop offset="0.7098" stop-color="#73664C"/>
<stop offset="0.8357" stop-color="#9B8862"/>
<stop offset="0.9573" stop-color="#C9B07D"/>
<stop offset="1" stop-color="#DBC087"/>
</radialGradient>
<radialGradient id="paint59_radial" cx="0" cy="0" r="1" gradientUnits="userSpaceOnUse" gradientTransform="translate(58.1092 127.541) rotate(-82.7882) scale(35.6857 35.7168)">
<stop stop-color="#191919"/>
<stop offset="0.1668" stop-color="#1C1C1B"/>
<stop offset="0.3119" stop-color="#272521"/>
<stop offset="0.4489" stop-color="#39352B"/>
<stop offset="0.5811" stop-color="#524A39"/>
<stop offset="0.7098" stop-color="#73664C"/>
<stop offset="0.8357" stop-color="#9B8862"/>
<stop offset="0.9573" stop-color="#C9B07D"/>
<stop offset="1" stop-color="#DBC087"/>
</radialGradient>
<radialGradient id="paint60_radial" cx="0" cy="0" r="1" gradientUnits="userSpaceOnUse" gradientTransform="translate(64.0483 119.645) rotate(-78.0483) scale(29.2269 29.2531)">
<stop stop-color="#191919"/>
<stop offset="0.1668" stop-color="#1C1C1B"/>
<stop offset="0.3119" stop-color="#272521"/>
<stop offset="0.4489" stop-color="#39352B"/>
<stop offset="0.5811" stop-color="#524A39"/>
<stop offset="0.7098" stop-color="#73664C"/>
<stop offset="0.8357" stop-color="#9B8862"/>
<stop offset="0.9573" stop-color="#C9B07D"/>
<stop offset="1" stop-color="#DBC087"/>
</radialGradient>
<radialGradient id="paint61_radial" cx="0" cy="0" r="1" gradientUnits="userSpaceOnUse" gradientTransform="translate(54.1838 120.261) rotate(-73.2974) scale(35.6997 35.7207)">
<stop stop-color="#191919"/>
<stop offset="0.1668" stop-color="#1C1C1B"/>
<stop offset="0.3119" stop-color="#272521"/>
<stop offset="0.4489" stop-color="#39352B"/>
<stop offset="0.5811" stop-color="#524A39"/>
<stop offset="0.7098" stop-color="#73664C"/>
<stop offset="0.8357" stop-color="#9B8862"/>
<stop offset="0.9573" stop-color="#C9B07D"/>
<stop offset="1" stop-color="#DBC087"/>
</radialGradient>
<radialGradient id="paint62_radial" cx="0" cy="0" r="1" gradientUnits="userSpaceOnUse" gradientTransform="translate(61.3493 113.453) rotate(-68.5366) scale(29.2262 29.2479)">
<stop stop-color="#191919"/>
<stop offset="0.1668" stop-color="#1C1C1B"/>
<stop offset="0.3119" stop-color="#272521"/>
<stop offset="0.4489" stop-color="#39352B"/>
<stop offset="0.5811" stop-color="#524A39"/>
<stop offset="0.7098" stop-color="#73664C"/>
<stop offset="0.8357" stop-color="#9B8862"/>
<stop offset="0.9573" stop-color="#C9B07D"/>
<stop offset="1" stop-color="#DBC087"/>
</radialGradient>
<radialGradient id="paint63_radial" cx="0" cy="0" r="1" gradientUnits="userSpaceOnUse" gradientTransform="translate(51.5167 112.434) rotate(-63.7949) scale(35.6997 35.7144)">
<stop stop-color="#191919"/>
<stop offset="0.1668" stop-color="#1C1C1B"/>
<stop offset="0.3119" stop-color="#272521"/>
<stop offset="0.4489" stop-color="#39352B"/>
<stop offset="0.5811" stop-color="#524A39"/>
<stop offset="0.7098" stop-color="#73664C"/>
<stop offset="0.8357" stop-color="#9B8862"/>
<stop offset="0.9573" stop-color="#C9B07D"/>
<stop offset="1" stop-color="#DBC087"/>
</radialGradient>
<radialGradient id="paint64_radial" cx="0" cy="0" r="1" gradientUnits="userSpaceOnUse" gradientTransform="translate(59.7071 106.9) rotate(-59.0332) scale(29.2338 29.24)">
<stop stop-color="#191919"/>
<stop offset="0.1668" stop-color="#1C1C1B"/>
<stop offset="0.3119" stop-color="#272521"/>
<stop offset="0.4489" stop-color="#39352B"/>
<stop offset="0.5811" stop-color="#524A39"/>
<stop offset="0.7098" stop-color="#73664C"/>
<stop offset="0.8357" stop-color="#9B8862"/>
<stop offset="0.9573" stop-color="#C9B07D"/>
<stop offset="1" stop-color="#DBC087"/>
</radialGradient>
<radialGradient id="paint65_radial" cx="0" cy="0" r="1" gradientUnits="userSpaceOnUse" gradientTransform="translate(50.1787 104.274) rotate(-54.2814) scale(35.7015 35.7064)">
<stop stop-color="#191919"/>
<stop offset="0.1668" stop-color="#1C1C1B"/>
<stop offset="0.3119" stop-color="#272521"/>
<stop offset="0.4489" stop-color="#39352B"/>
<stop offset="0.5811" stop-color="#524A39"/>
<stop offset="0.7098" stop-color="#73664C"/>
<stop offset="0.8357" stop-color="#9B8862"/>
<stop offset="0.9573" stop-color="#C9B07D"/>
<stop offset="1" stop-color="#DBC087"/>
</radialGradient>
<radialGradient id="paint66_radial" cx="0" cy="0" r="1" gradientUnits="userSpaceOnUse" gradientTransform="translate(59.1681 100.166) rotate(-49.5442) scale(29.2361 29.244)">
<stop stop-color="#191919"/>
<stop offset="0.1668" stop-color="#1C1C1B"/>
<stop offset="0.3119" stop-color="#272521"/>
<stop offset="0.4489" stop-color="#39352B"/>
<stop offset="0.5811" stop-color="#524A39"/>
<stop offset="0.7098" stop-color="#73664C"/>
<stop offset="0.8357" stop-color="#9B8862"/>
<stop offset="0.9573" stop-color="#C9B07D"/>
<stop offset="1" stop-color="#DBC087"/>
</radialGradient>
<radialGradient id="paint67_radial" cx="0" cy="0" r="1" gradientUnits="userSpaceOnUse" gradientTransform="translate(50.2067 96.0064) rotate(-44.7773) scale(35.7038 35.7037)">
<stop stop-color="#191919"/>
<stop offset="0.1668" stop-color="#1C1C1B"/>
<stop offset="0.3119" stop-color="#272521"/>
<stop offset="0.4489" stop-color="#39352B"/>
<stop offset="0.5811" stop-color="#524A39"/>
<stop offset="0.7098" stop-color="#73664C"/>
<stop offset="0.8357" stop-color="#9B8862"/>
<stop offset="0.9573" stop-color="#C9B07D"/>
<stop offset="1" stop-color="#DBC087"/>
</radialGradient>
<radialGradient id="paint68_radial" cx="0" cy="0" r="1" gradientUnits="userSpaceOnUse" gradientTransform="translate(59.7521 93.4365) rotate(-40.034) scale(29.2382 29.236)">
<stop stop-color="#191919"/>
<stop offset="0.1668" stop-color="#1C1C1B"/>
<stop offset="0.3119" stop-color="#272521"/>
<stop offset="0.4489" stop-color="#39352B"/>
<stop offset="0.5811" stop-color="#524A39"/>
<stop offset="0.7098" stop-color="#73664C"/>
<stop offset="0.8357" stop-color="#9B8862"/>
<stop offset="0.9573" stop-color="#C9B07D"/>
<stop offset="1" stop-color="#DBC087"/>
</radialGradient>
<radialGradient id="paint69_radial" cx="0" cy="0" r="1" gradientUnits="userSpaceOnUse" gradientTransform="translate(51.5975 87.8543) rotate(-35.2815) scale(35.706 35.7008)">
<stop stop-color="#191919"/>
<stop offset="0.1668" stop-color="#1C1C1B"/>
<stop offset="0.3119" stop-color="#272521"/>
<stop offset="0.4489" stop-color="#39352B"/>
<stop offset="0.5811" stop-color="#524A39"/>
<stop offset="0.7098" stop-color="#73664C"/>
<stop offset="0.8357" stop-color="#9B8862"/>
<stop offset="0.9573" stop-color="#C9B07D"/>
<stop offset="1" stop-color="#DBC087"/>
</radialGradient>
<radialGradient id="paint70_radial" cx="0" cy="0" r="1" gradientUnits="userSpaceOnUse" gradientTransform="translate(61.4349 86.894) rotate(-30.5498) scale(29.2457 29.2349)">
<stop stop-color="#191919"/>
<stop offset="0.1668" stop-color="#1C1C1B"/>
<stop offset="0.3119" stop-color="#272521"/>
<stop offset="0.4489" stop-color="#39352B"/>
<stop offset="0.5811" stop-color="#524A39"/>
<stop offset="0.7098" stop-color="#73664C"/>
<stop offset="0.8357" stop-color="#9B8862"/>
<stop offset="0.9573" stop-color="#C9B07D"/>
<stop offset="1" stop-color="#DBC087"/>
</radialGradient>
<radialGradient id="paint71_radial" cx="0" cy="0" r="1" gradientUnits="userSpaceOnUse" gradientTransform="translate(54.3194 80.0454) rotate(-25.7987) scale(35.7175 35.6928)">
<stop stop-color="#191919"/>
<stop offset="0.1668" stop-color="#1C1C1B"/>
<stop offset="0.3119" stop-color="#272521"/>
<stop offset="0.4489" stop-color="#39352B"/>
<stop offset="0.5811" stop-color="#524A39"/>
<stop offset="0.7098" stop-color="#73664C"/>
<stop offset="0.8357" stop-color="#9B8862"/>
<stop offset="0.9573" stop-color="#C9B07D"/>
<stop offset="1" stop-color="#DBC087"/>
</radialGradient>
<radialGradient id="paint72_radial" cx="0" cy="0" r="1" gradientUnits="userSpaceOnUse" gradientTransform="translate(64.1792 80.7207) rotate(-21.0513) scale(29.2486 29.2268)">
<stop stop-color="#191919"/>
<stop offset="0.1668" stop-color="#1C1C1B"/>
<stop offset="0.3119" stop-color="#272521"/>
<stop offset="0.4489" stop-color="#39352B"/>
<stop offset="0.5811" stop-color="#524A39"/>
<stop offset="0.7098" stop-color="#73664C"/>
<stop offset="0.8357" stop-color="#9B8862"/>
<stop offset="0.9573" stop-color="#C9B07D"/>
<stop offset="1" stop-color="#DBC087"/>
</radialGradient>
<radialGradient id="paint73_radial" cx="0" cy="0" r="1" gradientUnits="userSpaceOnUse" gradientTransform="translate(58.2896 72.7915) rotate(-16.3057) scale(35.7178 35.6895)">
<stop stop-color="#191919"/>
<stop offset="0.1668" stop-color="#1C1C1B"/>
<stop offset="0.3119" stop-color="#272521"/>
<stop offset="0.4489" stop-color="#39352B"/>
<stop offset="0.5811" stop-color="#524A39"/>
<stop offset="0.7098" stop-color="#73664C"/>
<stop offset="0.8357" stop-color="#9B8862"/>
<stop offset="0.9573" stop-color="#C9B07D"/>
<stop offset="1" stop-color="#DBC087"/>
</radialGradient>
<radialGradient id="paint74_radial" cx="0" cy="0" r="1" gradientUnits="userSpaceOnUse" gradientTransform="translate(67.9011 75.0836) rotate(-11.5671) scale(29.2539 29.2277)">
<stop stop-color="#191919"/>
<stop offset="0.1668" stop-color="#1C1C1B"/>
<stop offset="0.3119" stop-color="#272521"/>
<stop offset="0.4489" stop-color="#39352B"/>
<stop offset="0.5811" stop-color="#524A39"/>
<stop offset="0.7098" stop-color="#73664C"/>
<stop offset="0.8357" stop-color="#9B8862"/>
<stop offset="0.9573" stop-color="#C9B07D"/>
<stop offset="1" stop-color="#DBC087"/>
</radialGradient>
<radialGradient id="paint75_radial" cx="0" cy="0" r="1" gradientUnits="userSpaceOnUse" gradientTransform="translate(63.4061 66.2915) rotate(-6.81916) scale(35.7177 35.696)">
<stop stop-color="#191919"/>
<stop offset="0.1668" stop-color="#1C1C1B"/>
<stop offset="0.3119" stop-color="#272521"/>
<stop offset="0.4489" stop-color="#39352B"/>
<stop offset="0.5811" stop-color="#524A39"/>
<stop offset="0.7098" stop-color="#73664C"/>
<stop offset="0.8357" stop-color="#9B8862"/>
<stop offset="0.9573" stop-color="#C9B07D"/>
<stop offset="1" stop-color="#DBC087"/>
</radialGradient>
<linearGradient id="paint76_linear" x1="-5.14523" y1="128.481" x2="205.151" y2="72.1328" gradientUnits="userSpaceOnUse">
<stop stop-color="white"/>
<stop offset="0.5421"/>
<stop offset="1" stop-color="#F1F1F1"/>
</linearGradient>
<linearGradient id="paint77_linear" x1="-5.14523" y1="128.481" x2="205.151" y2="72.1328" gradientUnits="userSpaceOnUse">
<stop stop-color="#D7B676"/>
<stop offset="0.5421"/>
<stop offset="1" stop-color="#C5A76E"/>
</linearGradient>
<radialGradient id="paint78_radial" cx="0" cy="0" r="1" gradientUnits="userSpaceOnUse" gradientTransform="translate(100.004 100.307) rotate(-4.44564) scale(69.9528 69.889)">
<stop offset="0.0587852" stop-color="#191919"/>
<stop offset="0.2158" stop-color="#1C1C1B"/>
<stop offset="0.3524" stop-color="#272521"/>
<stop offset="0.4813" stop-color="#39352B"/>
<stop offset="0.6057" stop-color="#524A39"/>
<stop offset="0.7268" stop-color="#73664C"/>
<stop offset="0.8454" stop-color="#9B8862"/>
<stop offset="0.9598" stop-color="#C9B07D"/>
<stop offset="1" stop-color="#DBC087"/>
</radialGradient>
<radialGradient id="paint79_radial" cx="0" cy="0" r="1" gradientUnits="userSpaceOnUse" gradientTransform="translate(100.003 100.308) scale(61.2928 61.2367)">
<stop offset="0.0587852" stop-color="#191919"/>
<stop offset="0.2158" stop-color="#1C1C1B"/>
<stop offset="0.3524" stop-color="#272521"/>
<stop offset="0.4813" stop-color="#39352B"/>
<stop offset="0.6057" stop-color="#524A39"/>
<stop offset="0.7268" stop-color="#73664C"/>
<stop offset="0.8454" stop-color="#9B8862"/>
<stop offset="0.9598" stop-color="#C9B07D"/>
<stop offset="1" stop-color="#DBC087"/>
</radialGradient>
<linearGradient id="paint80_linear" x1="0.641273" y1="156.081" x2="6.49755" y2="156.081" gradientUnits="userSpaceOnUse">
<stop stop-color="#AB8D60"/>
<stop offset="0.0682425" stop-color="#B29466"/>
<stop offset="0.5057" stop-color="#DBC087"/>
<stop offset="1" stop-color="#AB8D60"/>
</linearGradient>
<linearGradient id="paint81_linear" x1="194.203" y1="42.713" x2="197.804" y2="39.1119" gradientUnits="userSpaceOnUse">
<stop stop-color="#AB8D60"/>
<stop offset="0.0682425" stop-color="#B29466"/>
<stop offset="0.5057" stop-color="#DBC087"/>
<stop offset="1" stop-color="#AB8D60"/>
</linearGradient>
<linearGradient id="paint82_linear" x1="61.8648" y1="138.448" x2="138.147" y2="62.1659" gradientUnits="userSpaceOnUse">
<stop stop-color="white"/>
<stop offset="0.5421"/>
<stop offset="1" stop-color="#F1F1F1"/>
</linearGradient>
<linearGradient id="paint83_linear" x1="61.8648" y1="138.448" x2="138.147" y2="62.1659" gradientUnits="userSpaceOnUse">
<stop stop-color="#D7B676"/>
<stop offset="0.5421"/>
<stop offset="1" stop-color="#C5A76E"/>
</linearGradient>
</defs>
</svg>
