<svg width="201" height="201" viewBox="0 0 201 201" fill="none" xmlns="http://www.w3.org/2000/svg">
<path d="M98.6211 100.516C98.6211 100.424 98.6211 100.332 98.7131 100.332L140.663 33.6347C140.755 33.4507 141.031 33.3587 141.215 33.5427C141.399 33.6347 141.491 33.9107 141.307 34.0947L99.4491 100.7C99.3571 100.884 99.0811 100.976 98.8971 100.792C98.7131 100.792 98.6211 100.608 98.6211 100.516Z" fill="url(#paint0_linear)"/>
<path d="M98.6211 100.516C98.6211 100.424 98.6211 100.332 98.7131 100.24L145.999 37.3145C146.091 37.1305 146.367 37.1305 146.551 37.2225C146.735 37.3145 146.735 37.5905 146.643 37.7745L99.3571 100.7C99.2651 100.884 98.9891 100.884 98.8051 100.792C98.7131 100.7 98.6211 100.608 98.6211 100.516Z" fill="url(#paint1_linear)"/>
<path d="M98.6211 100.516C98.6211 100.424 98.6211 100.332 98.7131 100.24L151.059 41.4544C151.243 41.2704 151.427 41.2704 151.611 41.4544C151.795 41.6384 151.795 41.8224 151.611 42.0064L99.2651 100.792C99.0811 100.976 98.8971 100.976 98.7131 100.792C98.7131 100.7 98.6211 100.608 98.6211 100.516Z" fill="url(#paint2_linear)"/>
<path d="M98.6211 100.516C98.6211 100.424 98.6211 100.332 98.7131 100.24L155.751 45.9622C155.935 45.7782 156.211 45.7782 156.303 45.9622C156.487 46.1462 156.487 46.4222 156.303 46.5142L99.2651 100.792C99.0811 100.976 98.8051 100.976 98.7131 100.792C98.7131 100.7 98.6211 100.608 98.6211 100.516Z" fill="url(#paint3_linear)"/>
<path d="M98.6211 100.517C98.6211 100.425 98.7131 100.241 98.8051 100.241L160.167 50.8386C160.351 50.6546 160.627 50.7466 160.719 50.9306C160.903 51.1146 160.811 51.3905 160.627 51.4825L99.2651 100.885C99.0811 101.069 98.8051 100.977 98.7131 100.793C98.7131 100.701 98.6211 100.609 98.6211 100.517Z" fill="url(#paint4_linear)"/>
<path d="M98.6211 100.516C98.6211 100.424 98.7131 100.24 98.8051 100.148L164.03 55.9901C164.214 55.8981 164.49 55.8981 164.582 56.0821C164.674 56.2661 164.674 56.5421 164.49 56.6341L99.2651 100.792C99.0811 100.884 98.8051 100.884 98.7131 100.7C98.7131 100.608 98.6211 100.608 98.6211 100.516Z" fill="url(#paint5_linear)"/>
<path d="M98.6211 100.516C98.6211 100.332 98.7131 100.24 98.8051 100.148L167.434 61.5097C167.618 61.4177 167.894 61.5097 167.986 61.6937C168.078 61.8777 167.986 62.1537 167.802 62.2457L99.1731 100.884C98.9891 100.976 98.7131 100.884 98.6211 100.7C98.7131 100.608 98.6211 100.516 98.6211 100.516Z" fill="url(#paint6_linear)"/>
<path d="M98.6211 100.516C98.6211 100.332 98.7131 100.24 98.8971 100.148L170.562 67.3974C170.746 67.3054 171.022 67.3974 171.114 67.5814C171.206 67.7654 171.114 68.0414 170.93 68.1334L99.2651 100.884C99.0811 100.976 98.8051 100.884 98.7131 100.7C98.7131 100.608 98.6211 100.516 98.6211 100.516Z" fill="url(#paint7_linear)"/>
<path d="M98.6211 100.516C98.6211 100.332 98.7131 100.24 98.8971 100.148L172.954 73.3773C173.138 73.2853 173.414 73.3773 173.506 73.6533C173.598 73.8373 173.506 74.1133 173.23 74.2053L99.1731 100.884C98.9891 100.976 98.7131 100.884 98.6211 100.608C98.7131 100.608 98.6211 100.516 98.6211 100.516Z" fill="url(#paint8_linear)"/>
<path d="M98.6211 100.516C98.6211 100.332 98.7131 100.148 98.8971 100.148L174.978 79.6329C175.162 79.5409 175.438 79.7249 175.438 79.9088C175.53 80.0928 175.346 80.3688 175.162 80.3688L99.1731 100.884C98.9891 100.976 98.7131 100.792 98.7131 100.608L98.6211 100.516Z" fill="url(#paint9_linear)"/>
<path d="M98.6211 100.516C98.6211 100.332 98.7131 100.148 98.9891 100.148L176.45 85.9805C176.634 85.9805 176.91 86.0725 176.91 86.3485C176.91 86.5325 176.818 86.8085 176.542 86.8085L99.1731 100.884C98.8971 100.976 98.7131 100.792 98.6211 100.516C98.7131 100.516 98.6211 100.516 98.6211 100.516Z" fill="url(#paint10_linear)"/>
<path d="M98.6211 100.517C98.6211 100.333 98.8051 100.149 98.9891 100.149L177.37 92.4209C177.554 92.4209 177.83 92.6049 177.83 92.7889C177.83 92.9729 177.646 93.2489 177.462 93.2489L99.0811 100.977C98.8971 100.885 98.7131 100.793 98.6211 100.517Z" fill="url(#paint11_linear)"/>
<path d="M98.6211 100.516C98.6211 100.332 98.8051 100.148 98.9891 100.148L177.738 98.9521C177.922 98.9521 178.106 99.1361 178.106 99.3201C178.106 99.5041 177.922 99.6881 177.738 99.6881L98.9891 100.884C98.8971 100.884 98.7131 100.7 98.6211 100.516Z" fill="url(#paint12_linear)"/>
<path d="M98.6211 100.516C98.6211 100.24 98.8051 100.056 99.0811 100.148L177.646 105.484C177.83 105.484 178.014 105.668 178.014 105.944C178.014 106.128 177.83 106.312 177.554 106.312L98.9891 100.976C98.8051 100.884 98.6211 100.7 98.6211 100.516Z" fill="url(#paint13_linear)"/>
<path d="M98.6211 100.516C98.6211 100.516 98.6211 100.424 98.6211 100.516C98.6211 100.24 98.8971 100.056 99.0811 100.148L177.002 111.923C177.186 111.923 177.37 112.199 177.37 112.383C177.37 112.567 177.094 112.751 176.91 112.751L98.9891 100.884C98.8051 100.884 98.6211 100.7 98.6211 100.516Z" fill="url(#paint14_linear)"/>
<path d="M98.6211 100.516V100.424C98.7131 100.24 98.8971 100.056 99.0811 100.148L175.806 118.364C175.99 118.456 176.174 118.64 176.082 118.824C175.99 119.008 175.806 119.192 175.622 119.1L98.9891 100.884C98.8051 100.884 98.6211 100.7 98.6211 100.516Z" fill="url(#paint15_linear)"/>
<path d="M98.6211 100.516V100.424C98.7131 100.24 98.8971 100.056 99.1731 100.148L174.058 124.619C174.242 124.711 174.426 124.895 174.334 125.171C174.242 125.355 174.058 125.539 173.782 125.447L98.9891 100.884C98.8051 100.792 98.6211 100.7 98.6211 100.516Z" fill="url(#paint16_linear)"/>
<path d="M98.6211 100.516C98.6211 100.424 98.6211 100.424 98.6211 100.332C98.7131 100.148 98.9891 100.056 99.1731 100.148L171.758 130.783C171.942 130.875 172.034 131.151 171.942 131.335C171.85 131.519 171.574 131.611 171.39 131.519L98.8971 100.884C98.7131 100.792 98.6211 100.608 98.6211 100.516Z" fill="url(#paint17_linear)"/>
<path d="M98.6211 100.516C98.6211 100.424 98.6211 100.424 98.7131 100.332C98.8051 100.148 99.0811 100.056 99.2651 100.148L169.09 136.671C169.274 136.763 169.366 137.039 169.274 137.223C169.182 137.407 168.906 137.499 168.722 137.407L98.8971 100.884C98.7131 100.792 98.6211 100.608 98.6211 100.516Z" fill="url(#paint18_linear)"/>
<path d="M98.6211 100.516C98.6211 100.424 98.6211 100.332 98.7131 100.332C98.8051 100.148 99.0811 100.056 99.2651 100.24L165.778 142.374C165.962 142.466 166.054 142.742 165.87 142.926C165.778 143.11 165.502 143.202 165.318 143.018L98.8051 100.884C98.7131 100.792 98.6211 100.608 98.6211 100.516Z" fill="url(#paint19_linear)"/>
<path d="M98.6211 100.516C98.6211 100.424 98.6211 100.332 98.7131 100.24C98.8051 100.056 99.0811 100.056 99.2651 100.148L162.098 147.71C162.282 147.802 162.282 148.078 162.19 148.262C162.099 148.446 161.823 148.446 161.639 148.354L98.8051 100.792C98.7131 100.7 98.6211 100.608 98.6211 100.516Z" fill="url(#paint20_linear)"/>
<path d="M98.6211 100.516C98.6211 100.424 98.6211 100.332 98.7131 100.24C98.8971 100.056 99.0811 100.056 99.2651 100.24L157.959 152.769C158.143 152.953 158.143 153.137 157.959 153.321C157.775 153.505 157.591 153.505 157.407 153.321L98.7131 100.792C98.7131 100.7 98.6211 100.608 98.6211 100.516Z" fill="url(#paint21_linear)"/>
<path d="M98.6211 100.516C98.6211 100.424 98.6211 100.332 98.7131 100.24C98.8971 100.056 99.1731 100.056 99.2651 100.24L153.359 157.461C153.543 157.645 153.543 157.921 153.359 158.013C153.175 158.197 152.899 158.197 152.807 158.013L98.7131 100.792C98.7131 100.7 98.6211 100.608 98.6211 100.516Z" fill="url(#paint22_linear)"/>
<path d="M98.6211 100.516C98.6211 100.424 98.7131 100.24 98.8051 100.24C98.9891 100.056 99.2651 100.148 99.3571 100.332L148.575 161.877C148.759 162.061 148.667 162.337 148.483 162.429C148.299 162.613 148.023 162.521 147.931 162.337L98.7131 100.792C98.7131 100.7 98.6211 100.608 98.6211 100.516Z" fill="url(#paint23_linear)"/>
<path d="M98.6211 100.516C98.6211 100.424 98.7131 100.24 98.8051 100.148C98.9891 100.056 99.2651 100.056 99.3571 100.24L143.239 165.558C143.331 165.742 143.331 166.018 143.147 166.11C142.963 166.202 142.687 166.202 142.595 166.018L98.7131 100.7C98.7131 100.608 98.6211 100.608 98.6211 100.516Z" fill="url(#paint24_linear)"/>
<path d="M98.6211 100.516C98.6211 100.332 98.7131 100.24 98.8051 100.148C98.9891 100.056 99.2651 100.148 99.3571 100.332L137.719 169.146C137.811 169.33 137.719 169.606 137.535 169.698C137.351 169.79 137.076 169.698 136.984 169.514L98.6211 100.7C98.7131 100.608 98.6211 100.516 98.6211 100.516Z" fill="url(#paint25_linear)"/>
<path d="M98.6211 100.516C98.6211 100.332 98.7131 100.24 98.8971 100.148C99.0811 100.056 99.3571 100.148 99.4491 100.332L131.924 171.997C132.016 172.181 131.924 172.457 131.74 172.549C131.556 172.641 131.28 172.549 131.188 172.365L98.7131 100.7C98.7131 100.608 98.6211 100.516 98.6211 100.516Z" fill="url(#paint26_linear)"/>
<path d="M98.6211 100.516C98.6211 100.332 98.7131 100.24 98.8971 100.148C99.0811 100.056 99.3571 100.148 99.4491 100.424L125.944 174.573C126.036 174.757 125.944 175.033 125.668 175.125C125.484 175.217 125.208 175.125 125.116 174.849L98.6211 100.7C98.7131 100.608 98.6211 100.516 98.6211 100.516Z" fill="url(#paint27_linear)"/>
<path d="M98.6211 100.516C98.6211 100.332 98.7131 100.148 98.8971 100.148C99.0811 100.056 99.3571 100.24 99.3571 100.424L119.596 176.505C119.688 176.689 119.504 176.965 119.32 176.965C119.136 177.057 118.86 176.873 118.86 176.689L98.6211 100.608C98.7131 100.608 98.6211 100.516 98.6211 100.516Z" fill="url(#paint28_linear)"/>
<path d="M98.6211 100.516C98.6211 100.332 98.7131 100.148 98.9891 100.148C99.1731 100.148 99.4491 100.24 99.4491 100.516L113.34 177.977C113.34 178.161 113.248 178.437 112.972 178.437C112.789 178.437 112.513 178.345 112.513 178.069L98.6211 100.516C98.7131 100.516 98.6211 100.516 98.6211 100.516Z" fill="url(#paint29_linear)"/>
<path d="M98.6211 100.516C98.6211 100.332 98.8051 100.148 98.9891 100.148C99.1731 100.148 99.4491 100.332 99.4491 100.516L106.809 178.897C106.809 179.081 106.625 179.357 106.441 179.357C106.257 179.357 105.981 179.173 105.981 178.989L98.6211 100.516Z" fill="url(#paint30_linear)"/>
<path d="M98.6211 100.516C98.6211 100.332 98.8051 100.148 98.9891 100.148C99.1731 100.148 99.3571 100.332 99.3571 100.516L100.185 179.265C100.185 179.449 100.001 179.633 99.817 179.633C99.633 179.633 99.4491 179.449 99.4491 179.265L98.6211 100.516Z" fill="url(#paint31_linear)"/>
<path d="M93.0078 178.988L98.6196 100.424C98.6196 100.24 98.8036 100.056 99.0796 100.056C99.2636 100.056 99.4475 100.24 99.4475 100.516L93.8358 179.08C93.8358 179.264 93.6518 179.448 93.3758 179.448C93.1918 179.356 93.0078 179.264 93.0078 178.988Z" fill="url(#paint32_linear)"/>
<path d="M86.5664 178.252L98.7099 100.424C98.7099 100.24 98.9859 100.056 99.1699 100.056C99.3539 100.056 99.5379 100.332 99.5379 100.516L87.3944 178.344C87.3944 178.528 87.1184 178.712 86.9344 178.712C86.6584 178.62 86.5664 178.436 86.5664 178.252Z" fill="url(#paint33_linear)"/>
<path d="M80.1289 176.965V176.873L98.7121 100.332C98.8041 100.148 98.9881 99.9637 99.1721 100.056C99.3561 100.148 99.5401 100.332 99.4481 100.516L80.8649 177.057C80.7729 177.241 80.5889 177.425 80.4049 177.333C80.2209 177.333 80.1289 177.149 80.1289 176.965Z" fill="url(#paint34_linear)"/>
<path d="M73.8711 175.217V175.125L98.7101 100.424C98.8021 100.24 98.9861 100.056 99.2621 100.148C99.4461 100.24 99.63 100.424 99.5381 100.7L74.6991 175.401C74.6071 175.585 74.4231 175.769 74.1471 175.677C73.9631 175.493 73.8711 175.401 73.8711 175.217Z" fill="url(#paint35_linear)"/>
<path d="M67.7109 172.917C67.7109 172.825 67.7109 172.825 67.7109 172.733L98.6217 100.332C98.7137 100.148 98.9897 100.056 99.1736 100.148C99.3576 100.24 99.4496 100.516 99.3576 100.7L68.4469 173.101C68.3549 173.285 68.0789 173.377 67.8949 173.285C67.8029 173.193 67.7109 173.101 67.7109 172.917Z" fill="url(#paint36_linear)"/>
<path d="M61.8203 170.065C61.8203 169.973 61.8203 169.973 61.9123 169.881L98.7108 100.24C98.8028 100.056 99.0788 99.9636 99.2628 100.056C99.4468 100.148 99.5388 100.424 99.4468 100.608L62.6483 170.249C62.5563 170.433 62.2803 170.525 62.0963 170.433C61.9123 170.341 61.8203 170.249 61.8203 170.065Z" fill="url(#paint37_linear)"/>
<path d="M56.2109 166.845C56.2109 166.753 56.2109 166.661 56.3029 166.661L98.8052 100.332C98.8972 100.148 99.1732 100.056 99.3572 100.24C99.5412 100.332 99.6332 100.608 99.4492 100.792L56.9469 167.121C56.8549 167.305 56.5789 167.397 56.3949 167.213C56.3029 167.029 56.2109 166.937 56.2109 166.845Z" fill="url(#paint38_linear)"/>
<path d="M50.875 163.074C50.875 162.982 50.875 162.89 50.967 162.798L98.805 100.24C98.897 100.056 99.173 100.056 99.357 100.148C99.541 100.24 99.541 100.516 99.449 100.7L51.611 163.258C51.519 163.442 51.243 163.442 51.059 163.35C50.875 163.35 50.875 163.166 50.875 163.074Z" fill="url(#paint39_linear)"/>
<path d="M45.8125 158.933C45.8125 158.841 45.8125 158.749 45.9045 158.657L98.7103 100.24C98.8943 100.056 99.0783 100.056 99.2623 100.24C99.4463 100.424 99.4463 100.608 99.2623 100.792L46.4565 159.209C46.2725 159.393 46.0885 159.393 45.9045 159.209C45.9045 159.117 45.8125 159.025 45.8125 158.933Z" fill="url(#paint40_linear)"/>
<path d="M41.2148 154.333C41.2148 154.241 41.2148 154.149 41.3068 154.057L98.8045 100.24C98.9885 100.056 99.2645 100.056 99.3565 100.24C99.5405 100.424 99.5405 100.7 99.3565 100.792L41.8588 154.609C41.6748 154.793 41.3988 154.793 41.3068 154.609C41.2148 154.517 41.2148 154.425 41.2148 154.333Z" fill="url(#paint41_linear)"/>
<path d="M36.8906 149.366C36.8906 149.274 36.9826 149.09 37.0746 149.09L98.8041 100.148C98.9881 99.9642 99.2641 100.056 99.3561 100.24C99.5401 100.424 99.4481 100.7 99.2641 100.792L37.5346 149.734C37.3506 149.918 37.0746 149.826 36.9826 149.642C36.9826 149.55 36.8906 149.458 36.8906 149.366Z" fill="url(#paint42_linear)"/>
<path d="M33.1172 144.123C33.1172 144.031 33.2092 143.847 33.3012 143.755L98.8945 100.148C99.0785 100.056 99.3545 100.056 99.4465 100.24C99.5385 100.424 99.5385 100.7 99.3545 100.792L33.7612 144.398C33.5772 144.49 33.3012 144.491 33.2092 144.307C33.1172 144.307 33.1172 144.215 33.1172 144.123Z" fill="url(#paint43_linear)"/>
<path d="M29.7148 138.51C29.7148 138.326 29.8068 138.234 29.8988 138.142L98.896 100.056C99.08 99.9636 99.356 100.056 99.448 100.24C99.54 100.424 99.448 100.7 99.264 100.792L30.2668 138.878C30.0828 138.97 29.8068 138.878 29.7148 138.694C29.7148 138.694 29.7148 138.602 29.7148 138.51Z" fill="url(#paint44_linear)"/>
<path d="M26.7695 132.715C26.7695 132.531 26.8615 132.439 27.0455 132.347L98.8946 100.148C99.0786 100.056 99.3546 100.148 99.4466 100.332C99.5386 100.516 99.4466 100.792 99.2626 100.884L27.4135 133.083C27.2295 133.175 26.9535 133.083 26.8615 132.899C26.7695 132.807 26.7695 132.715 26.7695 132.715Z" fill="url(#paint45_linear)"/>
<path d="M24.3789 126.643C24.3789 126.459 24.4709 126.275 24.6549 126.275L98.9879 100.148C99.1719 100.056 99.4479 100.148 99.5398 100.424C99.6318 100.608 99.5398 100.884 99.2639 100.976L24.9309 127.011C24.7469 127.103 24.4709 127.011 24.3789 126.735C24.3789 126.735 24.3789 126.735 24.3789 126.643Z" fill="url(#paint46_linear)"/>
<path d="M22.4453 120.388C22.4453 120.204 22.5373 120.02 22.7213 120.02L98.9862 100.148C99.1702 100.056 99.4462 100.24 99.4462 100.424C99.5382 100.608 99.3542 100.884 99.1702 100.884L22.9053 120.756C22.7213 120.848 22.4453 120.664 22.4453 120.48C22.4453 120.48 22.4453 120.48 22.4453 120.388Z" fill="url(#paint47_linear)"/>
<path d="M21.0664 114.04C21.0664 113.856 21.2504 113.672 21.4344 113.672L99.0792 100.148C99.2632 100.148 99.5392 100.24 99.5392 100.516C99.5392 100.7 99.4472 100.976 99.1712 100.976L21.5264 114.5C21.3424 114.5 21.0664 114.316 21.0664 114.04Z" fill="url(#paint48_linear)"/>
<path d="M20.2383 107.6C20.2383 107.416 20.4223 107.232 20.6063 107.232L99.0791 100.148C99.2631 100.148 99.5391 100.332 99.5391 100.516C99.5391 100.7 99.3551 100.976 99.1711 100.976L20.6983 108.06C20.4223 107.968 20.2383 107.784 20.2383 107.6Z" fill="url(#paint49_linear)"/>
<path d="M19.8711 101.068C19.8711 100.884 20.0551 100.7 20.2391 100.7L98.9879 100.148C99.1718 100.148 99.3558 100.332 99.3558 100.516C99.3558 100.7 99.1718 100.884 98.9879 100.884L20.2391 101.436C20.0551 101.436 19.8711 101.252 19.8711 101.068Z" fill="url(#paint50_linear)"/>
<path d="M20.1484 94.5364C20.1484 94.2604 20.3324 94.0765 20.6084 94.1685L99.1732 100.148C99.3572 100.148 99.5412 100.332 99.5412 100.608C99.5412 100.792 99.3572 100.976 99.0812 100.976L20.5164 94.9964C20.2404 94.9044 20.1484 94.7204 20.1484 94.5364Z" fill="url(#paint51_linear)"/>
<path d="M20.8828 88.096C20.8828 88.004 20.8828 88.004 20.8828 88.096C20.8828 87.82 21.1588 87.636 21.3428 87.728L99.1716 100.148C99.3556 100.148 99.5396 100.424 99.5396 100.608C99.5396 100.792 99.2636 100.975 99.0796 100.975L21.2508 88.464C20.9748 88.464 20.8828 88.28 20.8828 88.096Z" fill="url(#paint52_linear)"/>
<path d="M22.1719 81.6571V81.5651C22.2639 81.3811 22.4479 81.1971 22.6319 81.2891L99.1727 100.148C99.3567 100.24 99.5407 100.424 99.4487 100.608C99.3567 100.792 99.1727 100.976 98.9887 100.884L22.4479 82.0251C22.2639 82.0251 22.1719 81.8411 22.1719 81.6571Z" fill="url(#paint53_linear)"/>
<path d="M24.0117 75.4012V75.3092C24.1037 75.1252 24.2877 74.9413 24.5637 75.0333L99.2646 100.148C99.4486 100.24 99.6326 100.424 99.5406 100.7C99.4486 100.884 99.2646 101.068 98.9887 100.976L24.2877 75.8612C24.1037 75.7692 24.0117 75.5852 24.0117 75.4012Z" fill="url(#paint54_linear)"/>
<path d="M26.3086 69.3289C26.3086 69.2369 26.3086 69.2369 26.3086 69.1449C26.4006 68.9609 26.6766 68.8689 26.8606 68.9609L99.1696 100.148C99.3536 100.24 99.4456 100.516 99.3536 100.7C99.2616 100.884 98.9856 100.976 98.8016 100.884L26.4926 69.6969C26.4006 69.6049 26.3086 69.4209 26.3086 69.3289Z" fill="url(#paint55_linear)"/>
<path d="M29.1641 63.4421C29.1641 63.3501 29.1641 63.3501 29.2561 63.2581C29.348 63.0741 29.624 62.9822 29.808 63.0742L99.3572 100.149C99.5412 100.241 99.6332 100.517 99.5412 100.701C99.4492 100.885 99.1732 100.977 98.9892 100.885L29.44 63.8101C29.256 63.7181 29.1641 63.5341 29.1641 63.4421Z" fill="url(#paint56_linear)"/>
<path d="M32.4727 57.8294C32.4727 57.7374 32.4727 57.6454 32.5647 57.6454C32.6567 57.4614 32.9326 57.3694 33.1166 57.5534L99.3539 100.24C99.5379 100.332 99.6299 100.608 99.4459 100.792C99.3539 100.976 99.0779 101.068 98.8939 100.884L32.6566 58.1974C32.5646 58.1054 32.4727 57.9214 32.4727 57.8294Z" fill="url(#paint57_linear)"/>
<path d="M36.2461 52.4938C36.2461 52.4018 36.2461 52.3099 36.3381 52.2179C36.4301 52.0339 36.7061 52.0339 36.8901 52.1259L99.3555 100.148C99.5395 100.24 99.5395 100.516 99.4475 100.7C99.3555 100.884 99.0795 100.884 98.8955 100.792L36.4301 52.7698C36.2461 52.6778 36.2461 52.5858 36.2461 52.4938Z" fill="url(#paint58_linear)"/>
<path d="M40.3867 47.4345C40.3867 47.3425 40.3867 47.2505 40.4787 47.1585C40.6627 46.9745 40.8467 46.9745 41.0307 47.1585L99.2643 100.148C99.4483 100.332 99.4483 100.516 99.2643 100.7C99.0803 100.884 98.8963 100.884 98.7123 100.7L40.5707 47.8025C40.4787 47.7105 40.3867 47.6185 40.3867 47.4345Z" fill="url(#paint59_linear)"/>
<path d="M44.9844 42.8349C44.9844 42.7429 44.9844 42.6509 45.0764 42.5589C45.2604 42.3749 45.5363 42.3749 45.6283 42.5589L99.2621 100.241C99.4461 100.425 99.4461 100.701 99.2621 100.793C99.0782 100.977 98.8022 100.977 98.7102 100.793L45.0764 43.1109C45.0764 43.0189 44.9844 42.9269 44.9844 42.8349Z" fill="url(#paint60_linear)"/>
<path d="M49.9531 38.602C49.9531 38.51 50.0451 38.3261 50.1371 38.3261C50.3211 38.2341 50.5971 38.2341 50.6891 38.4181L99.3551 100.332C99.4471 100.516 99.4471 100.791 99.2631 100.883C99.0791 100.975 98.8031 100.976 98.7111 100.792L50.0451 38.878C50.0451 38.786 49.9531 38.694 49.9531 38.602Z" fill="url(#paint61_linear)"/>
<path d="M55.2891 34.8308C55.2891 34.7388 55.3811 34.5548 55.4731 34.4628C55.657 34.3708 55.933 34.3708 56.025 34.5548L99.4473 100.24C99.5393 100.424 99.5392 100.7 99.3553 100.792C99.1713 100.884 98.8953 100.884 98.8033 100.7L55.3811 35.0148C55.2891 34.9228 55.2891 34.8308 55.2891 34.8308Z" fill="url(#paint62_linear)"/>
<path d="M60.9023 31.4265C60.9023 31.2425 60.9943 31.1506 61.0863 31.0586C61.2703 30.9666 61.5463 31.0585 61.6383 31.2425L99.4488 100.332C99.5408 100.516 99.4488 100.792 99.2648 100.884C99.0808 100.976 98.8048 100.884 98.7128 100.7L60.9023 31.6105C60.9023 31.5185 60.9023 31.5185 60.9023 31.4265Z" fill="url(#paint63_linear)"/>
<path d="M66.6953 28.575C66.6953 28.391 66.7873 28.299 66.9713 28.207C67.1553 28.115 67.4313 28.207 67.5233 28.391L99.446 100.332C99.538 100.516 99.446 100.792 99.262 100.884C99.078 100.976 98.802 100.884 98.71 100.7L66.7873 28.759C66.6953 28.667 66.6953 28.575 66.6953 28.575Z" fill="url(#paint64_linear)"/>
<path d="M72.7695 26.091C72.7695 25.907 72.8615 25.723 73.0455 25.723C73.2295 25.631 73.5055 25.723 73.5975 25.999L99.4484 100.332C99.5404 100.516 99.4484 100.792 99.1724 100.884C98.9885 100.976 98.7125 100.884 98.6205 100.608L72.7695 26.275C72.7695 26.183 72.7695 26.183 72.7695 26.091Z" fill="url(#paint65_linear)"/>
<path d="M79.0234 24.2509C79.0234 24.0669 79.1154 23.8829 79.2994 23.8829C79.4834 23.7909 79.7594 23.9749 79.7594 24.1589L99.3546 100.424C99.4466 100.608 99.2626 100.884 99.0786 100.884C98.8946 100.976 98.6186 100.792 98.6186 100.608L79.0234 24.3428V24.2509Z" fill="url(#paint66_linear)"/>
<path d="M85.4648 22.8709C85.4648 22.6869 85.6488 22.5029 85.8328 22.5029C86.0168 22.5029 86.2928 22.5949 86.2928 22.8709L99.5403 100.516C99.5403 100.7 99.4483 100.976 99.1723 100.976C98.9883 100.976 98.7123 100.884 98.7123 100.608L85.4648 22.8709C85.4648 22.9629 85.4648 22.8709 85.4648 22.8709Z" fill="url(#paint67_linear)"/>
<path d="M91.9023 22.0438C91.9023 21.8598 92.0863 21.6758 92.2703 21.6758C92.4543 21.6758 92.7303 21.8598 92.7303 22.0438L99.538 100.517C99.538 100.701 99.354 100.977 99.17 100.977C98.986 100.977 98.7101 100.793 98.7101 100.609L91.9023 22.0438Z" fill="url(#paint68_linear)"/>
<path d="M98.4375 21.7674C98.4375 21.5834 98.6215 21.3994 98.8055 21.3994C98.9895 21.3994 99.1735 21.5834 99.1735 21.7674L99.4495 100.516C99.4495 100.7 99.2655 100.884 99.0815 100.884C98.8975 100.884 98.7135 100.7 98.7135 100.516L98.4375 21.7674Z" fill="url(#paint69_linear)"/>
<path d="M98.6211 100.517L104.877 22.0438C104.877 21.8598 105.061 21.6758 105.337 21.6758C105.521 21.6758 105.705 21.8598 105.705 22.1358L99.4491 100.609C99.4491 100.793 99.2651 100.977 98.9891 100.977C98.8051 100.885 98.6211 100.701 98.6211 100.517Z" fill="url(#paint70_linear)"/>
<path d="M98.6211 100.516C98.6211 100.516 98.6211 100.424 98.6211 100.516L111.409 22.7791C111.409 22.5951 111.685 22.4111 111.869 22.4111C112.053 22.4111 112.237 22.6871 112.237 22.8711L99.4491 100.516C99.4491 100.7 99.1731 100.884 98.9891 100.884C98.8051 100.884 98.6211 100.7 98.6211 100.516Z" fill="url(#paint71_linear)"/>
<path d="M98.6211 100.516V100.424L117.756 24.067C117.848 23.8831 118.032 23.6991 118.216 23.7911C118.4 23.8831 118.584 24.0671 118.492 24.2511L99.3571 100.608C99.2651 100.792 99.0811 100.976 98.8971 100.884C98.8051 100.884 98.6211 100.7 98.6211 100.516Z" fill="url(#paint72_linear)"/>
<path d="M98.6211 100.517V100.425L124.012 25.9079C124.104 25.7239 124.288 25.5399 124.564 25.6319C124.748 25.7239 124.932 25.9079 124.84 26.1838L99.4491 100.701C99.3571 100.885 99.1731 101.069 98.8971 100.977C98.8051 100.793 98.6211 100.701 98.6211 100.517Z" fill="url(#paint73_linear)"/>
<path d="M98.6211 100.515C98.6211 100.423 98.6211 100.423 98.6211 100.331L130.084 28.2064C130.176 28.0224 130.452 27.9304 130.636 28.0224C130.82 28.1144 130.912 28.3904 130.82 28.5744L99.4491 100.699C99.3571 100.883 99.0811 100.975 98.8971 100.883C98.7131 100.791 98.6211 100.607 98.6211 100.515Z" fill="url(#paint74_linear)"/>
<path d="M98.6211 100.516C98.6211 100.424 98.6211 100.424 98.7131 100.332L136.064 31.059C136.156 30.875 136.432 30.783 136.616 30.875C136.8 30.967 136.892 31.2429 136.8 31.4269L99.4491 100.7C99.3571 100.884 99.0811 100.976 98.8971 100.884C98.7131 100.792 98.6211 100.608 98.6211 100.516Z" fill="url(#paint75_linear)"/>
<path d="M99.0792 155.898C129.716 155.898 154.553 131.103 154.553 100.516C154.553 69.93 129.716 45.1348 99.0792 45.1348C68.4419 45.1348 43.6055 69.93 43.6055 100.516C43.6055 131.103 68.4419 155.898 99.0792 155.898Z" fill="#0E0035"/>
<path d="M43.1445 100.517C43.1445 69.6978 68.1675 44.6748 98.9862 44.6748C129.805 44.6748 154.828 69.6978 154.828 100.517C154.828 131.335 129.805 156.358 98.9862 156.358C68.1675 156.358 43.1445 131.243 43.1445 100.517ZM154.092 100.517C154.092 70.1577 129.345 45.5028 98.9862 45.5028C68.6275 45.5028 43.8805 70.1577 43.8805 100.517C43.8805 130.875 68.6275 155.53 98.9862 155.53C129.345 155.53 154.092 130.875 154.092 100.517Z" fill="url(#paint76_linear)"/>
<mask id="mask0" mask-type="alpha" maskUnits="userSpaceOnUse" x="3" y="3" width="194" height="194">
<path d="M3.77344 99.8726C3.77344 86.9012 6.34933 74.2977 11.3171 62.4301C16.1929 50.9306 23.0926 40.627 31.9243 31.7954C40.7559 22.9637 51.0595 15.972 62.559 11.1882C74.4265 6.12844 87.03 3.64453 100.093 3.64453C113.065 3.64453 125.76 6.22044 137.628 11.1882C149.127 16.064 159.431 22.9637 168.263 31.7954C177.094 40.627 184.086 50.9306 188.87 62.4301C193.93 74.2977 196.414 86.9012 196.414 99.8726C196.414 112.844 193.838 125.448 188.87 137.315C183.994 148.815 177.094 159.118 168.263 167.95C159.431 176.781 149.127 183.773 137.628 188.557C125.76 193.617 113.157 196.101 100.093 196.101C87.122 196.101 74.4265 193.525 62.559 188.557C51.0595 183.681 40.7559 176.781 31.9243 167.95C23.0926 159.118 16.1009 148.815 11.3171 137.315C6.34933 125.448 3.77344 112.844 3.77344 99.8726ZM195.678 99.8726C195.678 74.3897 185.742 50.3786 167.711 32.3474C149.679 14.3161 125.668 4.38052 100.185 4.38052C74.7025 4.38052 50.6915 14.3161 32.6602 32.3474C14.629 50.3786 4.6934 74.3897 4.6934 99.8726C4.6934 125.356 14.629 149.367 32.6602 167.398C50.6915 185.429 74.7025 195.365 100.185 195.365C125.668 195.365 149.679 185.429 167.711 167.398C185.742 149.367 195.678 125.356 195.678 99.8726Z" fill="url(#paint77_linear)"/>
</mask>
<g mask="url(#mask0)">
<path d="M3.77344 99.8726C3.77344 86.9012 6.34933 74.2977 11.3171 62.4301C16.1929 50.9306 23.0926 40.627 31.9243 31.7954C40.7559 22.9637 51.0595 15.972 62.559 11.1882C74.4265 6.12844 87.03 3.64453 100.093 3.64453C113.065 3.64453 125.76 6.22044 137.628 11.1882C149.127 16.064 159.431 22.9637 168.263 31.7954C177.094 40.627 184.086 50.9306 188.87 62.4301C193.93 74.2977 196.414 86.9012 196.414 99.8726C196.414 112.844 193.838 125.448 188.87 137.315C183.994 148.815 177.094 159.118 168.263 167.95C159.431 176.781 149.127 183.773 137.628 188.557C125.76 193.617 113.157 196.101 100.093 196.101C87.122 196.101 74.4265 193.525 62.559 188.557C51.0595 183.681 40.7559 176.781 31.9243 167.95C23.0926 159.118 16.1009 148.815 11.3171 137.315C6.34933 125.448 3.77344 112.844 3.77344 99.8726ZM195.678 99.8726C195.678 74.3897 185.742 50.3786 167.711 32.3474C149.679 14.3161 125.668 4.38052 100.185 4.38052C74.7025 4.38052 50.6915 14.3161 32.6602 32.3474C14.629 50.3786 4.6934 74.3897 4.6934 99.8726C4.6934 125.356 14.629 149.367 32.6602 167.398C50.6915 185.429 74.7025 195.365 100.185 195.365C125.668 195.365 149.679 185.429 167.711 167.398C185.742 149.367 195.678 125.356 195.678 99.8726Z" fill="url(#paint78_linear)"/>
</g>
<path d="M99.8558 199.618C102.014 199.279 103.488 197.254 103.149 195.096C102.809 192.938 100.784 191.464 98.6263 191.803C96.4682 192.143 94.994 194.167 95.3335 196.326C95.673 198.484 97.6977 199.958 99.8558 199.618Z" fill="#0E0035"/>
<path d="M94.9414 195.732C94.9414 194.812 95.2174 193.984 95.7694 193.156C96.4133 192.236 97.4253 191.592 98.6213 191.408C99.7252 191.225 100.921 191.5 101.841 192.144C102.761 192.788 103.405 193.8 103.589 194.996C103.773 196.1 103.497 197.296 102.853 198.216C102.209 199.136 101.197 199.78 100.001 199.964C98.8972 200.148 97.7013 199.872 96.7813 199.228C95.8614 198.584 95.2174 197.572 95.0334 196.376C94.9414 196.192 94.9414 195.916 94.9414 195.732ZM102.853 195.732C102.853 195.548 102.853 195.364 102.853 195.18C102.669 194.26 102.209 193.432 101.473 192.88C100.737 192.328 99.8172 192.144 98.8052 192.236C97.8853 192.42 97.0573 192.88 96.5053 193.616C95.9534 194.352 95.7694 195.272 95.8614 196.192C96.0454 197.112 96.5053 197.94 97.2413 198.492C97.9773 199.044 98.8972 199.228 99.9092 199.136C100.829 198.952 101.657 198.492 102.209 197.756C102.577 197.204 102.853 196.468 102.853 195.732Z" fill="url(#paint79_linear)"/>
<path d="M99.9079 7.87603C97.792 8.24402 95.7681 6.77207 95.4001 4.56416C95.0321 2.35625 96.5041 0.424339 98.712 0.0563544C100.828 -0.311631 102.852 1.16031 103.22 3.36822C103.496 5.48414 102.024 7.50805 99.9079 7.87603Z" fill="url(#paint80_linear)"/>
<mask id="mask1" mask-type="alpha" maskUnits="userSpaceOnUse" x="43" y="44" width="112" height="113">
<path d="M43.1445 100.517C43.1445 69.6978 68.1675 44.6748 98.9862 44.6748C129.805 44.6748 154.828 69.6978 154.828 100.517C154.828 131.335 129.805 156.358 98.9862 156.358C68.1675 156.358 43.1445 131.243 43.1445 100.517ZM154.092 100.517C154.092 70.1577 129.345 45.5028 98.9862 45.5028C68.6275 45.5028 43.8805 70.1577 43.8805 100.517C43.8805 130.875 68.6275 155.53 98.9862 155.53C129.345 155.53 154.092 130.875 154.092 100.517Z" fill="url(#paint81_linear)"/>
</mask>
<g mask="url(#mask1)">
<path d="M43.1445 100.517C43.1445 69.6978 68.1675 44.6748 98.9862 44.6748C129.805 44.6748 154.828 69.6978 154.828 100.517C154.828 131.335 129.805 156.358 98.9862 156.358C68.1675 156.358 43.1445 131.243 43.1445 100.517ZM154.092 100.517C154.092 70.1577 129.345 45.5028 98.9862 45.5028C68.6275 45.5028 43.8805 70.1577 43.8805 100.517C43.8805 130.875 68.6275 155.53 98.9862 155.53C129.345 155.53 154.092 130.875 154.092 100.517Z" fill="url(#paint82_linear)"/>
</g>
<path d="M99.0799 127.379C113.967 127.379 126.035 115.352 126.035 100.516C126.035 85.6802 113.967 73.6533 99.0799 73.6533C84.1931 73.6533 72.125 85.6802 72.125 100.516C72.125 115.352 84.1931 127.379 99.0799 127.379Z" fill="#0E0035"/>
<path d="M71.7578 100.516C71.7578 85.4288 83.9933 73.1934 99.0807 73.1934C114.168 73.1934 126.404 85.4288 126.404 100.516C126.404 115.604 114.168 127.839 99.0807 127.839C83.9933 127.839 71.7578 115.512 71.7578 100.516ZM125.576 100.516C125.576 85.8888 113.708 74.0213 99.0807 74.0213C84.4533 74.0213 72.5858 85.8888 72.5858 100.516C72.5858 115.144 84.4533 127.011 99.0807 127.011C113.708 127.011 125.576 115.144 125.576 100.516Z" fill="url(#paint83_linear)"/>
<path d="M2.02272 103.46C1.19475 102.909 0.734774 102.081 0.550781 101.069C0.550781 100.885 0.550781 100.701 0.550781 100.517H7.91048C7.91048 101.253 7.63449 101.989 7.17451 102.633C6.62253 103.461 5.79457 103.92 4.78261 104.104C3.77065 104.288 2.85069 104.012 2.02272 103.46Z" fill="#0E0035"/>
<path d="M4.8758 104.656C5.97975 104.472 6.99171 103.92 7.63568 103C8.27966 102.08 8.55565 100.976 8.37166 99.8722C8.18766 98.7682 7.63568 97.7563 6.71572 97.1123C5.79576 96.4683 4.69181 96.1923 3.58785 96.3763C2.4839 96.5603 1.47194 97.1123 0.827968 98.0322C0.27599 98.7682 0 99.5961 0 100.516C0 100.7 -1.40512e-06 100.976 0.0919948 101.16C0.275987 102.264 0.827968 103.276 1.74793 103.92C2.5759 104.564 3.77184 104.84 4.8758 104.656ZM2.02391 103.46C1.19595 102.908 0.735968 102.08 0.551976 101.068C0.551976 100.884 0.551976 100.7 0.551976 100.516H7.91167C7.91167 101.252 7.63568 101.988 7.1757 102.632C6.62372 103.46 5.79576 103.92 4.7838 104.104C3.77184 104.288 2.85188 104.012 2.02391 103.46Z" fill="url(#paint84_linear)"/>
<path d="M197.978 97.5729C198.806 98.1249 199.266 98.9529 199.45 99.9648C199.45 100.149 199.45 100.333 199.45 100.517H192.09C192.09 99.7808 192.366 99.0448 192.826 98.4009C193.378 97.5729 194.206 97.1129 195.218 96.9289C196.23 96.745 197.15 96.929 197.978 97.5729Z" fill="#0E0035"/>
<path d="M195.126 96.3763C194.022 96.5603 193.01 97.1123 192.366 98.0322C191.722 98.9522 191.446 100.056 191.63 101.16C191.814 102.264 192.366 103.276 193.286 103.92C194.206 104.564 195.31 104.84 196.414 104.656C197.518 104.472 198.53 103.92 199.174 103C199.726 102.264 200.002 101.436 200.002 100.516C200.002 100.332 200.002 100.056 199.91 99.8722C199.726 98.7682 199.174 97.7563 198.254 97.1123C197.426 96.4683 196.322 96.1923 195.126 96.3763ZM197.978 97.5723C198.806 98.1242 199.266 98.9522 199.45 99.9641C199.45 100.148 199.45 100.332 199.45 100.516H192.09C192.09 99.7801 192.366 99.0442 192.826 98.4002C193.378 97.5722 194.206 97.1123 195.218 96.9283C196.23 96.7443 197.15 96.9283 197.978 97.5723Z" fill="url(#paint85_linear)"/>
<path d="M28.7039 168.961C28.0599 167.765 28.1519 166.201 28.9798 165.097C29.5318 164.269 30.3598 163.809 31.3717 163.625C32.3837 163.441 33.3037 163.717 34.1316 164.269C35.1436 165.005 35.6036 166.109 35.6036 167.213C35.6036 167.765 35.4196 168.409 35.1436 168.961C34.8676 168.593 34.5916 168.317 34.2236 168.041C32.4757 166.753 29.9918 167.121 28.7039 168.961Z" fill="#0E0035"/>
<path d="M32.5672 171.445C33.6712 171.261 34.6831 170.709 35.3271 169.789C35.4191 169.697 35.5111 169.513 35.6031 169.421C36.707 167.581 36.1551 165.189 34.4071 163.901C33.4872 163.257 32.3832 162.981 31.2793 163.165C30.1753 163.349 29.1633 163.901 28.5194 164.821C27.9674 165.557 27.6914 166.385 27.6914 167.305C27.6914 168.041 27.8754 168.777 28.2434 169.421C28.5194 169.973 28.8874 170.341 29.4393 170.709C30.1753 171.261 31.0033 171.537 31.9232 171.537C32.1072 171.537 32.2912 171.445 32.5672 171.445ZM28.9793 165.097C29.5313 164.269 30.3593 163.809 31.3713 163.625C32.3832 163.441 33.3032 163.717 34.1311 164.269C35.1431 165.005 35.6031 166.109 35.6031 167.213C35.6031 167.765 35.4191 168.409 35.1431 168.961C34.8671 168.593 34.5911 168.317 34.2231 168.041C32.4752 166.753 29.9913 167.121 28.7034 168.869C28.7034 168.869 28.7034 168.961 28.6114 168.961C28.0594 167.765 28.1514 166.293 28.9793 165.097Z" fill="url(#paint86_linear)"/>
<path d="M28.2429 31.5195C27.599 32.7155 27.6909 34.2794 28.5189 35.3834C29.0709 36.2113 29.8989 36.6713 30.9108 36.8553C31.9228 37.0393 32.8427 36.7633 33.6707 36.2113C34.6827 35.4754 35.1426 34.3714 35.1426 33.2675C35.1426 32.7155 34.9587 32.0715 34.6827 31.5195C34.4067 31.8875 34.1307 32.1635 33.7627 32.4395C32.0148 33.8194 29.5309 33.4515 28.2429 31.5195C28.2429 31.6115 28.2429 31.6115 28.2429 31.5195Z" fill="#0E0035"/>
<path d="M31.4623 29.0352C30.5423 29.0352 29.7144 29.3111 28.9784 29.8631C28.5184 30.2311 28.1504 30.6911 27.7825 31.1511C27.4145 31.7951 27.2305 32.531 27.2305 33.267C27.2305 34.095 27.5065 35.0149 28.0584 35.7509C28.7024 36.6709 29.7144 37.2228 30.8183 37.4068C31.9223 37.5908 33.0262 37.3148 33.9462 36.6709C35.6941 35.3829 36.1541 33.083 35.1422 31.1511C35.0502 31.0591 34.9582 30.8751 34.8662 30.7831C34.2222 29.8631 33.2102 29.3112 32.1063 29.1272C31.9223 29.1272 31.6463 29.0352 31.4623 29.0352ZM28.2424 31.5191C28.2424 31.6111 28.2424 31.6111 28.2424 31.5191C29.5304 33.359 32.0143 33.727 33.7622 32.439C34.1302 32.163 34.4062 31.8871 34.6822 31.5191C34.9582 32.071 35.1422 32.623 35.1422 33.267C35.1422 34.3709 34.5902 35.4749 33.6702 36.2109C32.8422 36.7629 31.9223 37.0388 30.9103 36.8548C29.9904 36.6708 29.0704 36.2109 28.5184 35.3829C27.6904 34.2789 27.5985 32.807 28.2424 31.5191Z" fill="url(#paint87_linear)"/>
<path d="M170.56 166.846C171.204 168.042 171.112 169.606 170.284 170.71C169.732 171.538 168.904 171.997 167.892 172.181C166.88 172.365 165.96 172.089 165.132 171.537C164.12 170.802 163.66 169.698 163.66 168.594C163.66 168.042 163.844 167.398 164.12 166.846C164.396 167.214 164.672 167.49 165.04 167.766C166.788 169.146 169.272 168.686 170.56 166.846C170.56 166.938 170.56 166.938 170.56 166.846Z" fill="#0E0035"/>
<path d="M166.696 164.454C165.592 164.638 164.58 165.19 163.936 166.11C163.844 166.202 163.752 166.386 163.66 166.478C162.556 168.318 163.108 170.71 164.856 171.998C165.776 172.642 166.88 172.918 167.984 172.734C169.088 172.55 170.1 171.998 170.744 171.078C171.296 170.342 171.572 169.514 171.572 168.594C171.572 167.858 171.388 167.122 171.02 166.478C170.744 165.926 170.376 165.558 169.824 165.19C169.088 164.638 168.26 164.362 167.34 164.362C167.156 164.362 166.972 164.362 166.696 164.454ZM170.284 170.71C169.732 171.538 168.904 171.998 167.892 172.182C166.88 172.366 165.96 172.09 165.132 171.538C164.12 170.802 163.66 169.698 163.66 168.594C163.66 168.042 163.844 167.398 164.12 166.846C164.396 167.214 164.672 167.49 165.04 167.766C166.788 169.054 169.272 168.686 170.56 166.938C170.56 166.938 170.56 166.846 170.652 166.846C171.204 168.134 171.112 169.606 170.284 170.71Z" fill="url(#paint88_linear)"/>
<path d="M164.122 33.9111C163.478 32.7152 163.57 31.1512 164.398 30.0473C164.95 29.2193 165.778 28.7593 166.79 28.5753C167.802 28.3913 168.722 28.6673 169.55 29.2193C170.562 29.9553 171.022 31.0592 171.022 32.1632C171.022 32.7151 170.838 33.3591 170.562 33.9111C170.286 33.5431 170.01 33.2671 169.642 32.9912C167.894 31.7032 165.502 32.0712 164.122 33.9111C164.122 33.8191 164.122 33.9111 164.122 33.9111Z" fill="#0E0035"/>
<path d="M167.985 36.3952C169.089 36.2112 170.101 35.6592 170.745 34.7393C170.837 34.6473 170.929 34.4633 171.021 34.3713C172.125 32.5314 171.573 30.1395 169.825 28.8515C168.905 28.2075 167.801 27.9315 166.697 28.1155C165.593 28.2995 164.581 28.8515 163.937 29.7715C163.385 30.5074 163.109 31.3354 163.109 32.2554C163.109 32.9913 163.293 33.7273 163.661 34.3713C163.937 34.9233 164.305 35.2912 164.857 35.6592C165.593 36.2112 166.421 36.4872 167.341 36.4872C167.617 36.3952 167.801 36.3952 167.985 36.3952ZM164.397 30.0475C164.949 29.2195 165.777 28.7595 166.789 28.5755C167.801 28.3915 168.721 28.6675 169.549 29.2195C170.561 29.9555 171.021 31.0594 171.021 32.1634C171.021 32.7153 170.837 33.3593 170.561 33.9113C170.285 33.5433 170.009 33.2673 169.641 32.9913C167.893 31.7034 165.409 32.0714 164.121 33.8193C164.121 33.8193 164.121 33.9113 164.029 33.9113C163.477 32.7154 163.569 31.1514 164.397 30.0475Z" fill="url(#paint89_linear)"/>
<path d="M89.6967 84.9685L76.4492 77.4248L88.4087 89.4763L89.6967 84.9685Z" fill="#0E0035"/>
<path d="M75.9883 77.8848L83.532 91.1322L88.0398 89.8443L75.9883 77.8848Z" fill="#0E0035"/>
<path d="M109.661 89.4763L121.712 77.4248L108.465 84.9685L109.661 89.4763Z" fill="#0E0035"/>
<path d="M95.7676 87.8199L98.7115 86.9919V53.7812L90.3398 84.692L95.7676 87.8199Z" fill="#0E0035"/>
<path d="M88.1342 90.4883L83.9023 91.6842L86.5702 96.376L88.1342 90.4883Z" fill="#0E0035"/>
<path d="M102.391 87.8199L107.727 84.692L99.3555 53.7812V86.9919L102.391 87.8199Z" fill="#0E0035"/>
<path d="M99.8164 100.148H109.016L105.612 94.3525L99.8164 100.148Z" fill="#0E0035"/>
<path d="M83.2584 91.7764L52.3477 100.148H85.5583L86.3863 97.2042L83.2584 91.7764Z" fill="#0E0035"/>
<path d="M110.027 100.147H111.959L111.315 97.9395L110.027 100.147Z" fill="#0E0035"/>
<path d="M86.2031 100.147H88.043L86.7551 97.9395L86.2031 100.147Z" fill="#0E0035"/>
<path d="M89.1445 100.148H98.3442L92.4564 94.3525L89.1445 100.148Z" fill="#0E0035"/>
<path d="M111.134 97.1116L109.386 90.6719L106.074 93.8917L109.57 99.8715L111.134 97.1116Z" fill="#0E0035"/>
<path d="M114.537 91.1322L122.173 77.8848L110.121 89.8443L114.537 91.1322Z" fill="#0E0035"/>
<path d="M89.0547 89.5688L94.9425 88.0048L90.2506 85.3369L89.0547 89.5688Z" fill="#0E0035"/>
<path d="M99.3555 89.4766L101.655 88.1887L99.3555 87.6367V89.4766Z" fill="#0E0035"/>
<path d="M103.223 88.0048L109.11 89.5688L107.914 85.3369L103.223 88.0048Z" fill="#0E0035"/>
<path d="M111.593 96.376L114.261 91.6842L109.938 90.4883L111.593 96.376Z" fill="#0E0035"/>
<path d="M105.706 93.4317L108.926 90.2118L102.486 88.4639L99.7266 90.0278L105.706 93.4317Z" fill="#0E0035"/>
<path d="M111.777 97.2042L112.605 100.148H145.724L114.905 91.7764L111.777 97.2042Z" fill="#0E0035"/>
<path d="M105.243 93.892L99.3555 90.5801V99.7797L105.243 93.892Z" fill="#0E0035"/>
<path d="M92.4581 93.4317L98.4379 90.0278L95.678 88.4639L89.2383 90.2118L92.4581 93.4317Z" fill="#0E0035"/>
<path d="M88.5952 99.8715L91.999 93.8917L88.7792 90.6719L87.0312 97.1116L88.5952 99.8715Z" fill="#0E0035"/>
<path d="M98.7137 90.5801L92.918 93.892L98.7137 99.7797V90.5801Z" fill="#0E0035"/>
<path d="M96.5039 88.1887L98.7118 89.4766V87.6367L96.5039 88.1887Z" fill="#0E0035"/>
<path d="M98.3442 100.792H89.1445L92.4564 106.588L98.3442 100.792Z" fill="#0E0035"/>
<path d="M88.043 100.792H86.2031L86.7551 103.092L88.043 100.792Z" fill="#0E0035"/>
<path d="M86.5702 104.655L83.9023 109.347L88.1342 110.543L86.5702 104.655Z" fill="#0E0035"/>
<path d="M114.905 109.164L145.724 100.792H112.605L111.777 103.828L114.905 109.164Z" fill="#0E0035"/>
<path d="M108.465 115.972L121.712 123.607L109.661 111.556L108.465 115.972Z" fill="#0E0035"/>
<path d="M109.016 100.792H99.8164L105.612 106.588L109.016 100.792Z" fill="#0E0035"/>
<path d="M85.5583 100.792H52.3477L83.2584 109.164L86.3863 103.828L85.5583 100.792Z" fill="#0E0035"/>
<path d="M83.532 109.899L75.9883 123.147L88.0398 111.095L83.532 109.899Z" fill="#0E0035"/>
<path d="M102.391 113.212L99.3555 114.04V147.158L107.727 116.248L102.391 113.212Z" fill="#0E0035"/>
<path d="M88.4087 111.556L76.4492 123.607L89.6967 115.972L88.4087 111.556Z" fill="#0E0035"/>
<path d="M95.7676 113.212L90.3398 116.248L98.7115 147.158V114.04L95.7676 113.212Z" fill="#0E0035"/>
<path d="M111.959 100.792H110.027L111.315 103.092L111.959 100.792Z" fill="#0E0035"/>
<path d="M87.0312 103.92L88.7792 110.36L91.999 107.048L88.5952 101.068L87.0312 103.92Z" fill="#0E0035"/>
<path d="M92.918 107.048L98.7137 110.452V101.252L92.918 107.048Z" fill="#0E0035"/>
<path d="M102.486 112.568L108.926 110.82L105.706 107.508L99.7266 110.912L102.486 112.568Z" fill="#0E0035"/>
<path d="M99.3555 110.452L105.243 107.048L99.3555 101.252V110.452Z" fill="#0E0035"/>
<path d="M109.57 101.068L106.074 107.048L109.386 110.36L111.134 103.92L109.57 101.068Z" fill="#0E0035"/>
<path d="M109.938 110.543L114.261 109.347L111.593 104.655L109.938 110.543Z" fill="#0E0035"/>
<path d="M101.655 112.752L99.3555 111.464V113.396L101.655 112.752Z" fill="#0E0035"/>
<path d="M122.173 123.147L114.537 109.899L110.121 111.095L122.173 123.147Z" fill="#0E0035"/>
<path d="M109.11 111.371L103.223 112.935L107.914 115.695L109.11 111.371Z" fill="#0E0035"/>
<path d="M95.678 112.568L98.4379 110.912L92.4581 107.508L89.2383 110.82L95.678 112.568Z" fill="#0E0035"/>
<path d="M94.9425 112.935L89.0547 111.371L90.2506 115.695L94.9425 112.935Z" fill="#0E0035"/>
<path d="M98.7118 111.464L96.5039 112.752L98.7118 113.396V111.464Z" fill="#0E0035"/>
<path d="M99.3572 149.55L108.281 116.615L123.368 125.263C123.46 125.355 123.644 125.355 123.736 125.171C123.828 125.079 123.828 124.895 123.828 124.803L115.181 109.715L148.115 100.792C148.207 100.792 148.299 100.608 148.299 100.516C148.299 100.332 148.207 100.24 148.115 100.24L115.181 91.3162L123.828 76.2288C123.92 76.1368 123.92 75.9528 123.736 75.8608C123.644 75.7688 123.46 75.7689 123.368 75.7689L108.281 84.4165L99.3572 51.4818C99.3572 51.3898 99.1733 51.2979 99.0813 51.2979C98.8973 51.2979 98.8053 51.3898 98.8053 51.4818L89.8816 84.4165L74.7943 75.7689C74.7023 75.6769 74.5183 75.6768 74.4263 75.8608C74.3343 75.9528 74.3343 76.1368 74.3343 76.2288L82.9819 91.3162L50.0473 100.24C49.9553 100.24 49.8633 100.424 49.8633 100.516C49.8633 100.7 49.9553 100.792 50.0473 100.792L82.9819 109.715L74.3343 124.803C74.2423 124.895 74.2423 125.079 74.4263 125.171C74.5183 125.263 74.7023 125.263 74.7943 125.263L89.8816 116.615L98.8053 149.55C98.8053 149.642 98.9893 149.734 99.0813 149.734C99.1733 149.734 99.3572 149.642 99.3572 149.55ZM114.261 91.6842L111.593 96.376L110.029 90.4883L114.261 91.6842ZM103.221 88.0043L107.913 85.3364L109.109 89.6603L103.221 88.0043ZM108.925 90.2123L105.613 93.5241L99.6332 90.1202L102.393 88.5563L108.925 90.2123ZM101.657 88.1883L99.3572 89.4763V87.5444L101.657 88.1883ZM98.7133 89.4763L96.4134 88.1883L98.7133 87.5444V89.4763ZM89.0537 89.5683L90.2496 85.2445L94.9414 87.9124L89.0537 89.5683ZM95.6774 88.4643L98.4373 90.0283L92.4575 93.4321L89.1457 90.1202L95.6774 88.4643ZM91.9975 93.8921L88.5937 99.8719L87.0298 97.112L88.7777 90.6723L91.9975 93.8921ZM98.7133 90.5802V99.7799L92.9175 93.9841L98.7133 90.5802ZM99.3572 90.5802L105.153 93.8921L99.3572 99.6879V90.5802ZM106.073 93.8921L109.385 90.5802L111.133 97.02L109.569 99.7799L106.073 93.8921ZM114.537 91.1322L110.121 89.9362L122.172 77.8848L114.537 91.1322ZM121.712 77.4248L109.661 89.4763L108.465 85.0605L121.712 77.4248ZM107.729 84.6925L102.393 87.7284L99.3572 86.9004V53.7817L107.729 84.6925ZM98.7133 53.7817V86.9004L95.6774 87.7284L90.3416 84.6925L98.7133 53.7817ZM89.6976 84.9685L88.5017 89.3843L76.4502 77.4248L89.6976 84.9685ZM75.9902 77.8848L88.0417 89.9362L83.6259 91.1322L75.9902 77.8848ZM88.1337 90.4883L86.5698 96.376L83.9019 91.6842L88.1337 90.4883ZM52.3472 100.148L83.2579 91.7762L86.2938 97.112L85.4658 100.148H52.3472ZM86.2018 100.148L86.8458 97.9399L88.1337 100.148H86.2018ZM89.1457 100.148L92.4575 94.3521L98.2533 100.148H89.1457ZM99.8172 100.148L105.613 94.3521L108.925 100.148H99.8172ZM110.029 100.148L111.317 97.9399L111.961 100.148H110.029ZM112.605 100.148L111.777 97.112L114.813 91.7762L145.723 100.148H112.605ZM108.465 115.971L109.661 111.555L121.712 123.607L108.465 115.971ZM106.073 107.048L109.477 101.068L111.041 103.828L109.293 110.267L106.073 107.048ZM108.925 110.819L102.485 112.567L99.7252 111.003L105.705 107.6L108.925 110.819ZM99.3572 110.451V101.252L105.153 107.048L99.3572 110.451ZM98.7133 110.451L92.9175 107.14L98.7133 101.344V110.451ZM91.9975 107.048L88.6857 110.359L86.9378 103.92L88.5017 101.16L91.9975 107.048ZM92.4575 107.508L98.4373 110.911L95.6774 112.475L89.2377 110.727L92.4575 107.508ZM94.9414 112.935L90.2496 115.603L89.0537 111.279L94.9414 112.935ZM96.5054 112.751L98.8053 111.463V113.395L96.5054 112.751ZM99.3572 111.463L101.657 112.751L99.3572 113.395V111.463ZM109.109 111.371L107.913 115.695L103.221 113.027L109.109 111.371ZM122.172 123.147L110.121 111.095L114.537 109.899L122.172 123.147ZM109.937 110.543L111.501 104.656L114.169 109.347L109.937 110.543ZM145.723 100.792L114.813 109.163L111.777 103.828L112.605 100.792H145.723ZM111.961 100.792L111.317 103L110.029 100.792H111.961ZM109.017 100.792L105.705 106.588L99.9092 100.792H109.017ZM98.3453 100.792L92.5495 106.588L89.2377 100.792H98.3453ZM88.0417 100.792L86.7538 103L86.1098 100.792H88.0417ZM52.3472 100.792H85.5578L86.3858 103.828L83.3499 109.163L52.3472 100.792ZM83.9019 109.347L86.5698 104.656L88.1337 110.543L83.9019 109.347ZM83.5339 109.899L87.9497 111.095L75.8982 123.147L83.5339 109.899ZM76.4502 123.607L88.5017 111.555L89.6976 115.971L76.4502 123.607ZM90.3416 116.247L95.6774 113.211L98.7133 114.039V147.158L90.3416 116.247ZM99.3572 114.039L102.393 113.211L107.729 116.247L99.3572 147.158V114.039Z" fill="white"/>
<defs>
<linearGradient id="paint0_linear" x1="92.5255" y1="94.4758" x2="147.539" y2="39.8603" gradientUnits="userSpaceOnUse">
<stop stop-color="#DBC087"/>
<stop offset="1" stop-color="#191919"/>
</linearGradient>
<linearGradient id="paint1_linear" x1="94.7846" y1="96.7513" x2="150.659" y2="41.282" gradientUnits="userSpaceOnUse">
<stop stop-color="#DBC087"/>
<stop offset="1" stop-color="#191919"/>
</linearGradient>
<linearGradient id="paint2_linear" x1="97.0707" y1="99.0544" x2="153.426" y2="43.1083" gradientUnits="userSpaceOnUse">
<stop stop-color="#DBC087"/>
<stop offset="1" stop-color="#191919"/>
</linearGradient>
<linearGradient id="paint3_linear" x1="99.3704" y1="101.371" x2="155.821" y2="45.3254" gradientUnits="userSpaceOnUse">
<stop stop-color="#DBC087"/>
<stop offset="1" stop-color="#191919"/>
</linearGradient>
<linearGradient id="paint4_linear" x1="101.663" y1="103.681" x2="157.831" y2="47.9222" gradientUnits="userSpaceOnUse">
<stop stop-color="#DBC087"/>
<stop offset="1" stop-color="#191919"/>
</linearGradient>
<linearGradient id="paint5_linear" x1="103.937" y1="105.971" x2="159.438" y2="50.8762" gradientUnits="userSpaceOnUse">
<stop stop-color="#DBC087"/>
<stop offset="1" stop-color="#191919"/>
</linearGradient>
<linearGradient id="paint6_linear" x1="106.177" y1="108.228" x2="160.631" y2="54.1677" gradientUnits="userSpaceOnUse">
<stop stop-color="#DBC087"/>
<stop offset="1" stop-color="#191919"/>
</linearGradient>
<linearGradient id="paint7_linear" x1="108.364" y1="110.431" x2="161.406" y2="57.7771" gradientUnits="userSpaceOnUse">
<stop stop-color="#DBC087"/>
<stop offset="1" stop-color="#191919"/>
</linearGradient>
<linearGradient id="paint8_linear" x1="110.486" y1="112.569" x2="161.754" y2="61.6775" gradientUnits="userSpaceOnUse">
<stop stop-color="#DBC087"/>
<stop offset="1" stop-color="#191919"/>
</linearGradient>
<linearGradient id="paint9_linear" x1="112.529" y1="114.626" x2="161.672" y2="65.8414" gradientUnits="userSpaceOnUse">
<stop stop-color="#DBC087"/>
<stop offset="1" stop-color="#191919"/>
</linearGradient>
<linearGradient id="paint10_linear" x1="114.476" y1="116.588" x2="161.164" y2="70.2421" gradientUnits="userSpaceOnUse">
<stop stop-color="#DBC087"/>
<stop offset="1" stop-color="#191919"/>
</linearGradient>
<linearGradient id="paint11_linear" x1="116.317" y1="118.442" x2="160.23" y2="74.8489" gradientUnits="userSpaceOnUse">
<stop stop-color="#DBC087"/>
<stop offset="1" stop-color="#191919"/>
</linearGradient>
<linearGradient id="paint12_linear" x1="118.036" y1="120.173" x2="158.877" y2="79.6277" gradientUnits="userSpaceOnUse">
<stop stop-color="#DBC087"/>
<stop offset="1" stop-color="#191919"/>
</linearGradient>
<linearGradient id="paint13_linear" x1="119.624" y1="121.773" x2="157.119" y2="84.55" gradientUnits="userSpaceOnUse">
<stop stop-color="#DBC087"/>
<stop offset="1" stop-color="#191919"/>
</linearGradient>
<linearGradient id="paint14_linear" x1="121.07" y1="123.228" x2="154.961" y2="89.5803" gradientUnits="userSpaceOnUse">
<stop stop-color="#DBC087"/>
<stop offset="1" stop-color="#191919"/>
</linearGradient>
<linearGradient id="paint15_linear" x1="122.358" y1="124.529" x2="152.427" y2="94.6818" gradientUnits="userSpaceOnUse">
<stop stop-color="#DBC087"/>
<stop offset="1" stop-color="#191919"/>
</linearGradient>
<linearGradient id="paint16_linear" x1="123.488" y1="125.667" x2="149.524" y2="99.8222" gradientUnits="userSpaceOnUse">
<stop stop-color="#DBC087"/>
<stop offset="1" stop-color="#191919"/>
</linearGradient>
<linearGradient id="paint17_linear" x1="124.447" y1="126.634" x2="146.277" y2="104.965" gradientUnits="userSpaceOnUse">
<stop stop-color="#DBC087"/>
<stop offset="1" stop-color="#191919"/>
</linearGradient>
<linearGradient id="paint18_linear" x1="125.232" y1="127.423" x2="142.707" y2="110.075" gradientUnits="userSpaceOnUse">
<stop stop-color="#DBC087"/>
<stop offset="1" stop-color="#191919"/>
</linearGradient>
<linearGradient id="paint19_linear" x1="125.834" y1="128.029" x2="138.842" y2="115.117" gradientUnits="userSpaceOnUse">
<stop stop-color="#DBC087"/>
<stop offset="1" stop-color="#191919"/>
</linearGradient>
<linearGradient id="paint20_linear" x1="126.251" y1="128.448" x2="134.702" y2="120.058" gradientUnits="userSpaceOnUse">
<stop stop-color="#DBC087"/>
<stop offset="1" stop-color="#191919"/>
</linearGradient>
<linearGradient id="paint21_linear" x1="126.48" y1="128.676" x2="130.321" y2="124.862" gradientUnits="userSpaceOnUse">
<stop stop-color="#DBC087"/>
<stop offset="1" stop-color="#191919"/>
</linearGradient>
<linearGradient id="paint22_linear" x1="125.155" y1="130.065" x2="127.09" y2="128.145" gradientUnits="userSpaceOnUse">
<stop stop-color="#DBC087"/>
<stop offset="1" stop-color="#191919"/>
</linearGradient>
<linearGradient id="paint23_linear" x1="120.382" y1="134.498" x2="126.936" y2="127.993" gradientUnits="userSpaceOnUse">
<stop stop-color="#DBC087"/>
<stop offset="1" stop-color="#191919"/>
</linearGradient>
<linearGradient id="paint24_linear" x1="115.459" y1="138.702" x2="126.595" y2="127.646" gradientUnits="userSpaceOnUse">
<stop stop-color="#DBC087"/>
<stop offset="1" stop-color="#191919"/>
</linearGradient>
<linearGradient id="paint25_linear" x1="110.422" y1="142.644" x2="126.065" y2="127.113" gradientUnits="userSpaceOnUse">
<stop stop-color="#DBC087"/>
<stop offset="1" stop-color="#191919"/>
</linearGradient>
<linearGradient id="paint26_linear" x1="105.306" y1="146.297" x2="125.352" y2="126.396" gradientUnits="userSpaceOnUse">
<stop stop-color="#DBC087"/>
<stop offset="1" stop-color="#191919"/>
</linearGradient>
<linearGradient id="paint27_linear" x1="100.145" y1="149.637" x2="124.461" y2="125.499" gradientUnits="userSpaceOnUse">
<stop stop-color="#DBC087"/>
<stop offset="1" stop-color="#191919"/>
</linearGradient>
<linearGradient id="paint28_linear" x1="94.9737" y1="152.644" x2="123.398" y2="124.428" gradientUnits="userSpaceOnUse">
<stop stop-color="#DBC087"/>
<stop offset="1" stop-color="#191919"/>
</linearGradient>
<linearGradient id="paint29_linear" x1="89.8289" y1="155.295" x2="122.169" y2="123.19" gradientUnits="userSpaceOnUse">
<stop stop-color="#DBC087"/>
<stop offset="1" stop-color="#191919"/>
</linearGradient>
<linearGradient id="paint30_linear" x1="84.7461" y1="157.571" x2="120.784" y2="121.795" gradientUnits="userSpaceOnUse">
<stop stop-color="#DBC087"/>
<stop offset="1" stop-color="#191919"/>
</linearGradient>
<linearGradient id="paint31_linear" x1="79.7591" y1="159.454" x2="119.251" y2="120.253" gradientUnits="userSpaceOnUse">
<stop stop-color="#DBC087"/>
<stop offset="1" stop-color="#191919"/>
</linearGradient>
<linearGradient id="paint32_linear" x1="74.9014" y1="160.94" x2="117.581" y2="118.568" gradientUnits="userSpaceOnUse">
<stop stop-color="#DBC087"/>
<stop offset="1" stop-color="#191919"/>
</linearGradient>
<linearGradient id="paint33_linear" x1="70.2069" y1="162.008" x2="115.785" y2="116.763" gradientUnits="userSpaceOnUse">
<stop stop-color="#DBC087"/>
<stop offset="1" stop-color="#191919"/>
</linearGradient>
<linearGradient id="paint34_linear" x1="65.7132" y1="162.658" x2="113.881" y2="114.841" gradientUnits="userSpaceOnUse">
<stop stop-color="#DBC087"/>
<stop offset="1" stop-color="#191919"/>
</linearGradient>
<linearGradient id="paint35_linear" x1="61.4414" y1="162.882" x2="111.873" y2="112.822" gradientUnits="userSpaceOnUse">
<stop stop-color="#DBC087"/>
<stop offset="1" stop-color="#191919"/>
</linearGradient>
<linearGradient id="paint36_linear" x1="57.4338" y1="162.684" x2="109.782" y2="110.711" gradientUnits="userSpaceOnUse">
<stop stop-color="#DBC087"/>
<stop offset="1" stop-color="#191919"/>
</linearGradient>
<linearGradient id="paint37_linear" x1="53.7006" y1="162.054" x2="107.617" y2="108.533" gradientUnits="userSpaceOnUse">
<stop stop-color="#DBC087"/>
<stop offset="1" stop-color="#191919"/>
</linearGradient>
<linearGradient id="paint38_linear" x1="50.2837" y1="161.007" x2="105.399" y2="106.296" gradientUnits="userSpaceOnUse">
<stop stop-color="#DBC087"/>
<stop offset="1" stop-color="#191919"/>
</linearGradient>
<linearGradient id="paint39_linear" x1="47.1977" y1="159.547" x2="103.135" y2="104.017" gradientUnits="userSpaceOnUse">
<stop stop-color="#DBC087"/>
<stop offset="1" stop-color="#191919"/>
</linearGradient>
<linearGradient id="paint40_linear" x1="44.4624" y1="157.682" x2="100.845" y2="101.711" gradientUnits="userSpaceOnUse">
<stop stop-color="#DBC087"/>
<stop offset="1" stop-color="#191919"/>
</linearGradient>
<linearGradient id="paint41_linear" x1="42.1055" y1="155.427" x2="98.5477" y2="99.3955" gradientUnits="userSpaceOnUse">
<stop stop-color="#DBC087"/>
<stop offset="1" stop-color="#191919"/>
</linearGradient>
<linearGradient id="paint42_linear" x1="40.1333" y1="152.797" x2="96.2556" y2="97.0873" gradientUnits="userSpaceOnUse">
<stop stop-color="#DBC087"/>
<stop offset="1" stop-color="#191919"/>
</linearGradient>
<linearGradient id="paint43_linear" x1="38.5654" y1="149.81" x2="93.9812" y2="94.7981" gradientUnits="userSpaceOnUse">
<stop stop-color="#DBC087"/>
<stop offset="1" stop-color="#191919"/>
</linearGradient>
<linearGradient id="paint44_linear" x1="37.414" y1="146.486" x2="91.7469" y2="92.5456" gradientUnits="userSpaceOnUse">
<stop stop-color="#DBC087"/>
<stop offset="1" stop-color="#191919"/>
</linearGradient>
<linearGradient id="paint45_linear" x1="36.6801" y1="142.849" x2="89.5626" y2="90.3477" gradientUnits="userSpaceOnUse">
<stop stop-color="#DBC087"/>
<stop offset="1" stop-color="#191919"/>
</linearGradient>
<linearGradient id="paint46_linear" x1="36.3741" y1="138.922" x2="87.4494" y2="88.2168" gradientUnits="userSpaceOnUse">
<stop stop-color="#DBC087"/>
<stop offset="1" stop-color="#191919"/>
</linearGradient>
<linearGradient id="paint47_linear" x1="36.4921" y1="134.733" x2="85.4163" y2="86.1694" gradientUnits="userSpaceOnUse">
<stop stop-color="#DBC087"/>
<stop offset="1" stop-color="#191919"/>
</linearGradient>
<linearGradient id="paint48_linear" x1="37.0467" y1="130.312" x2="83.4757" y2="84.2165" gradientUnits="userSpaceOnUse">
<stop stop-color="#DBC087"/>
<stop offset="1" stop-color="#191919"/>
</linearGradient>
<linearGradient id="paint49_linear" x1="38.0163" y1="125.687" x2="81.6491" y2="82.3742" gradientUnits="userSpaceOnUse">
<stop stop-color="#DBC087"/>
<stop offset="1" stop-color="#191919"/>
</linearGradient>
<linearGradient id="paint50_linear" x1="39.4107" y1="120.891" x2="79.9395" y2="80.6541" gradientUnits="userSpaceOnUse">
<stop stop-color="#DBC087"/>
<stop offset="1" stop-color="#191919"/>
</linearGradient>
<linearGradient id="paint51_linear" x1="41.2087" y1="115.958" x2="78.3706" y2="79.0677" gradientUnits="userSpaceOnUse">
<stop stop-color="#DBC087"/>
<stop offset="1" stop-color="#191919"/>
</linearGradient>
<linearGradient id="paint52_linear" x1="43.401" y1="110.92" x2="76.9377" y2="77.6277" gradientUnits="userSpaceOnUse">
<stop stop-color="#DBC087"/>
<stop offset="1" stop-color="#191919"/>
</linearGradient>
<linearGradient id="paint53_linear" x1="45.9756" y1="105.813" x2="75.6633" y2="76.3423" gradientUnits="userSpaceOnUse">
<stop stop-color="#DBC087"/>
<stop offset="1" stop-color="#191919"/>
</linearGradient>
<linearGradient id="paint54_linear" x1="48.9126" y1="100.671" x2="74.5488" y2="75.2212" gradientUnits="userSpaceOnUse">
<stop stop-color="#DBC087"/>
<stop offset="1" stop-color="#191919"/>
</linearGradient>
<linearGradient id="paint55_linear" x1="52.1885" y1="95.5293" x2="73.6024" y2="74.2706" gradientUnits="userSpaceOnUse">
<stop stop-color="#DBC087"/>
<stop offset="1" stop-color="#191919"/>
</linearGradient>
<linearGradient id="paint56_linear" x1="55.7894" y1="90.4257" x2="72.841" y2="73.499" gradientUnits="userSpaceOnUse">
<stop stop-color="#DBC087"/>
<stop offset="1" stop-color="#191919"/>
</linearGradient>
<linearGradient id="paint57_linear" x1="59.6808" y1="85.3901" x2="72.2524" y2="72.9099" gradientUnits="userSpaceOnUse">
<stop stop-color="#DBC087"/>
<stop offset="1" stop-color="#191919"/>
</linearGradient>
<linearGradient id="paint58_linear" x1="63.8448" y1="80.4618" x2="71.8559" y2="72.5091" gradientUnits="userSpaceOnUse">
<stop stop-color="#DBC087"/>
<stop offset="1" stop-color="#191919"/>
</linearGradient>
<linearGradient id="paint59_linear" x1="68.2491" y1="75.672" x2="71.6458" y2="72.2999" gradientUnits="userSpaceOnUse">
<stop stop-color="#DBC087"/>
<stop offset="1" stop-color="#191919"/>
</linearGradient>
<linearGradient id="paint60_linear" x1="71.0528" y1="72.8481" x2="73.4301" y2="70.4883" gradientUnits="userSpaceOnUse">
<stop stop-color="#DBC087"/>
<stop offset="1" stop-color="#191919"/>
</linearGradient>
<linearGradient id="paint61_linear" x1="71.2236" y1="73.0213" x2="78.2222" y2="66.0731" gradientUnits="userSpaceOnUse">
<stop stop-color="#DBC087"/>
<stop offset="1" stop-color="#191919"/>
</linearGradient>
<linearGradient id="paint62_linear" x1="71.584" y1="73.3853" x2="83.1572" y2="61.8951" gradientUnits="userSpaceOnUse">
<stop stop-color="#DBC087"/>
<stop offset="1" stop-color="#191919"/>
</linearGradient>
<linearGradient id="paint63_linear" x1="72.1329" y1="73.9355" x2="88.2045" y2="57.9799" gradientUnits="userSpaceOnUse">
<stop stop-color="#DBC087"/>
<stop offset="1" stop-color="#191919"/>
</linearGradient>
<linearGradient id="paint64_linear" x1="72.8615" y1="74.6689" x2="93.3232" y2="54.3574" gradientUnits="userSpaceOnUse">
<stop stop-color="#DBC087"/>
<stop offset="1" stop-color="#191919"/>
</linearGradient>
<linearGradient id="paint65_linear" x1="73.7709" y1="75.586" x2="98.4907" y2="51.0444" gradientUnits="userSpaceOnUse">
<stop stop-color="#DBC087"/>
<stop offset="1" stop-color="#191919"/>
</linearGradient>
<linearGradient id="paint66_linear" x1="74.8487" y1="76.6736" x2="103.659" y2="48.0711" gradientUnits="userSpaceOnUse">
<stop stop-color="#DBC087"/>
<stop offset="1" stop-color="#191919"/>
</linearGradient>
<linearGradient id="paint67_linear" x1="76.0947" y1="77.925" x2="108.8" y2="45.4577" gradientUnits="userSpaceOnUse">
<stop stop-color="#DBC087"/>
<stop offset="1" stop-color="#191919"/>
</linearGradient>
<linearGradient id="paint68_linear" x1="77.4925" y1="79.3363" x2="113.873" y2="43.2193" gradientUnits="userSpaceOnUse">
<stop stop-color="#DBC087"/>
<stop offset="1" stop-color="#191919"/>
</linearGradient>
<linearGradient id="paint69_linear" x1="79.0416" y1="80.8912" x2="118.853" y2="41.3728" gradientUnits="userSpaceOnUse">
<stop stop-color="#DBC087"/>
<stop offset="1" stop-color="#191919"/>
</linearGradient>
<linearGradient id="paint70_linear" x1="80.7229" y1="82.5872" x2="123.694" y2="39.9277" gradientUnits="userSpaceOnUse">
<stop stop-color="#DBC087"/>
<stop offset="1" stop-color="#191919"/>
</linearGradient>
<linearGradient id="paint71_linear" x1="82.5282" y1="84.4052" x2="128.369" y2="38.8977" gradientUnits="userSpaceOnUse">
<stop stop-color="#DBC087"/>
<stop offset="1" stop-color="#191919"/>
</linearGradient>
<linearGradient id="paint72_linear" x1="84.4454" y1="86.3369" x2="132.845" y2="38.2875" gradientUnits="userSpaceOnUse">
<stop stop-color="#DBC087"/>
<stop offset="1" stop-color="#191919"/>
</linearGradient>
<linearGradient id="paint73_linear" x1="86.4604" y1="88.3665" x2="137.091" y2="38.1063" gradientUnits="userSpaceOnUse">
<stop stop-color="#DBC087"/>
<stop offset="1" stop-color="#191919"/>
</linearGradient>
<linearGradient id="paint74_linear" x1="88.5603" y1="90.4802" x2="141.078" y2="38.3479" gradientUnits="userSpaceOnUse">
<stop stop-color="#DBC087"/>
<stop offset="1" stop-color="#191919"/>
</linearGradient>
<linearGradient id="paint75_linear" x1="90.7308" y1="92.6679" x2="144.778" y2="39.015" gradientUnits="userSpaceOnUse">
<stop stop-color="#DBC087"/>
<stop offset="1" stop-color="#191919"/>
</linearGradient>
<linearGradient id="paint76_linear" x1="99.0629" y1="44.6628" x2="99.0629" y2="156.321" gradientUnits="userSpaceOnUse">
<stop stop-color="#AB8D60"/>
<stop offset="0.0682425" stop-color="#B29466"/>
<stop offset="0.5057" stop-color="#DBC087"/>
<stop offset="1" stop-color="#AB8D60"/>
</linearGradient>
<linearGradient id="paint77_linear" x1="183.589" y1="148.044" x2="16.6862" y2="51.6828" gradientUnits="userSpaceOnUse">
<stop stop-color="white"/>
<stop offset="0.5421"/>
<stop offset="1" stop-color="#F1F1F1"/>
</linearGradient>
<linearGradient id="paint78_linear" x1="183.589" y1="148.044" x2="16.6862" y2="51.6828" gradientUnits="userSpaceOnUse">
<stop stop-color="#D7B676"/>
<stop offset="0.5421"/>
<stop offset="1" stop-color="#C5A76E"/>
</linearGradient>
<linearGradient id="paint79_linear" x1="99.2877" y1="191.411" x2="99.2877" y2="200.071" gradientUnits="userSpaceOnUse">
<stop stop-color="#AB8D60"/>
<stop offset="0.0682425" stop-color="#B29466"/>
<stop offset="0.5057" stop-color="#DBC087"/>
<stop offset="1" stop-color="#AB8D60"/>
</linearGradient>
<linearGradient id="paint80_linear" x1="99.286" y1="0.0592985" x2="99.286" y2="7.91136" gradientUnits="userSpaceOnUse">
<stop stop-color="#AB8D60"/>
<stop offset="0.0682425" stop-color="#B29466"/>
<stop offset="0.5057" stop-color="#DBC087"/>
<stop offset="1" stop-color="#AB8D60"/>
</linearGradient>
<linearGradient id="paint81_linear" x1="99.0629" y1="44.6628" x2="99.0629" y2="156.321" gradientUnits="userSpaceOnUse">
<stop stop-color="white"/>
<stop offset="0.5421"/>
<stop offset="1" stop-color="#F1F1F1"/>
</linearGradient>
<linearGradient id="paint82_linear" x1="99.0629" y1="44.6628" x2="99.0629" y2="156.321" gradientUnits="userSpaceOnUse">
<stop stop-color="#D7B676"/>
<stop offset="0.5421"/>
<stop offset="1" stop-color="#C5A76E"/>
</linearGradient>
<linearGradient id="paint83_linear" x1="99.0653" y1="73.1896" x2="99.0653" y2="127.794" gradientUnits="userSpaceOnUse">
<stop stop-color="#AB8D60"/>
<stop offset="0.0682425" stop-color="#B29466"/>
<stop offset="0.5057" stop-color="#DBC087"/>
<stop offset="1" stop-color="#AB8D60"/>
</linearGradient>
<linearGradient id="paint84_linear" x1="1.21499" y1="97.5242" x2="7.15004" y2="103.459" gradientUnits="userSpaceOnUse">
<stop stop-color="#AB8D60"/>
<stop offset="0.0682425" stop-color="#B29466"/>
<stop offset="0.5057" stop-color="#DBC087"/>
<stop offset="1" stop-color="#AB8D60"/>
</linearGradient>
<linearGradient id="paint85_linear" x1="198.79" y1="103.459" x2="192.855" y2="97.5242" gradientUnits="userSpaceOnUse">
<stop stop-color="#AB8D60"/>
<stop offset="0.0682425" stop-color="#B29466"/>
<stop offset="0.5057" stop-color="#DBC087"/>
<stop offset="1" stop-color="#AB8D60"/>
</linearGradient>
<linearGradient id="paint86_linear" x1="28.9283" y1="164.326" x2="34.8652" y2="170.263" gradientUnits="userSpaceOnUse">
<stop stop-color="#AB8D60"/>
<stop offset="0.0682425" stop-color="#B29466"/>
<stop offset="0.5057" stop-color="#DBC087"/>
<stop offset="1" stop-color="#AB8D60"/>
</linearGradient>
<linearGradient id="paint87_linear" x1="28.5071" y1="36.2372" x2="34.4442" y2="30.3002" gradientUnits="userSpaceOnUse">
<stop stop-color="#AB8D60"/>
<stop offset="0.0682425" stop-color="#B29466"/>
<stop offset="0.5057" stop-color="#DBC087"/>
<stop offset="1" stop-color="#AB8D60"/>
</linearGradient>
<linearGradient id="paint88_linear" x1="170.328" y1="171.546" x2="164.391" y2="165.609" gradientUnits="userSpaceOnUse">
<stop stop-color="#AB8D60"/>
<stop offset="0.0682425" stop-color="#B29466"/>
<stop offset="0.5057" stop-color="#DBC087"/>
<stop offset="1" stop-color="#AB8D60"/>
</linearGradient>
<linearGradient id="paint89_linear" x1="164.388" y1="29.2396" x2="170.325" y2="35.1766" gradientUnits="userSpaceOnUse">
<stop stop-color="#AB8D60"/>
<stop offset="0.0682425" stop-color="#B29466"/>
<stop offset="0.5057" stop-color="#DBC087"/>
<stop offset="1" stop-color="#AB8D60"/>
</linearGradient>
</defs>
</svg>
