<svg width="154" height="31" viewBox="0 0 154 31" fill="none" xmlns="http://www.w3.org/2000/svg">
<path d="M43.4795 14.2998C43.5544 14.2998 43.5918 14.3822 43.5918 14.5469L43.8838 16.939C43.9137 17.0887 43.9287 17.186 43.9287 17.231C43.9287 17.2684 43.8688 17.2871 43.749 17.2871C43.6367 17.2871 43.5656 17.2721 43.5356 17.2422C43.5057 17.2122 43.4757 17.1636 43.4458 17.0962C43.4159 17.0213 43.3784 16.939 43.3335 16.8491C43.2961 16.7593 43.2549 16.6694 43.21 16.5796C43.0527 16.2352 42.8057 15.8945 42.4688 15.5576C41.6452 14.764 40.7168 14.3672 39.6836 14.3672C39.0622 14.3672 38.4744 14.5693 37.9204 14.9736C37.3664 15.3779 37.0894 15.8571 37.0894 16.4111C37.0894 16.9577 37.1904 17.4331 37.3926 17.8374C37.6022 18.2417 37.8755 18.616 38.2124 18.9604C38.5493 19.3049 38.9349 19.6343 39.3691 19.9487C39.8034 20.2632 40.2451 20.5814 40.6943 20.9033C41.8848 21.7344 42.7308 22.4456 43.2324 23.0371C44.0186 23.9505 44.4453 24.9762 44.5127 26.1143C44.5127 27.387 44.0223 28.4053 43.0415 29.1689C42.0682 29.9251 40.9339 30.3032 39.6387 30.3032C38.8076 30.3032 38.145 30.2171 37.6509 30.0449C37.1642 29.8802 36.8273 29.7604 36.6401 29.6855C36.453 29.6107 36.3145 29.5732 36.2246 29.5732C36.1423 29.5732 36.0898 29.577 36.0674 29.5845L35.5171 29.6968C35.4198 29.6968 35.3599 29.6182 35.3374 29.4609C35.1203 27.6042 35.0117 26.6196 35.0117 26.5073C35.0117 26.3875 35.0192 26.3089 35.0342 26.2715C35.0566 26.2266 35.109 26.2041 35.1914 26.2041C35.401 26.2041 35.592 26.5036 35.7642 27.1025C36.5503 28.7871 37.8568 29.6294 39.6836 29.6294C40.5221 29.6294 41.2371 29.3748 41.8286 28.8657C42.4276 28.3566 42.7271 27.694 42.7271 26.8779C42.7271 25.5752 41.9484 24.3623 40.3911 23.2393C39.9494 22.9248 39.313 22.4868 38.4819 21.9253C37.6509 21.3638 36.9883 20.8022 36.4941 20.2407C35.723 19.3722 35.3374 18.4064 35.3374 17.3433C35.3374 16.2726 35.7604 15.3966 36.6064 14.7153C37.46 14.034 38.437 13.6934 39.5376 13.6934C40.1066 13.6934 40.7318 13.7907 41.4131 13.9854C42.1019 14.18 42.5811 14.311 42.8506 14.3784L43.4795 14.2998Z" fill="#303030"/>
<path d="M45.6021 29.9102V29.5957C45.6021 29.5358 45.632 29.5059 45.6919 29.5059H45.939C46.2534 29.4834 46.5754 29.4722 46.9048 29.4722C47.2342 29.4647 47.5337 29.4235 47.8032 29.3486C48.4172 29.1689 48.7241 28.7197 48.7241 28.001V16.1641C48.7241 15.4229 48.2861 14.9512 47.4102 14.749C47.1631 14.6966 46.9123 14.6517 46.6577 14.6143H46.4219C46.362 14.6143 46.332 14.5843 46.332 14.5244V14.2549C46.332 14.195 46.362 14.165 46.4219 14.165H57.1021C57.2368 14.165 57.3341 14.1912 57.394 14.2437C57.4539 14.2886 57.4914 14.3934 57.5063 14.5581L57.7085 17.8149C57.7085 17.8898 57.6523 17.9272 57.54 17.9272C57.4277 17.9272 57.3454 17.8936 57.293 17.8262C57.248 17.7513 57.1882 17.478 57.1133 17.0063C57.0459 16.5347 56.9186 16.1416 56.7314 15.8271C56.5443 15.5127 56.2148 15.3143 55.7432 15.2319H51.0601C50.9627 15.2319 50.9141 15.2806 50.9141 15.3779V21.1841C50.9141 21.259 50.9515 21.2964 51.0264 21.2964H54.9121C55.9154 21.2964 56.417 20.7124 56.417 19.5444C56.417 19.4845 56.4469 19.4546 56.5068 19.4546H56.7764C56.8363 19.4546 56.8662 19.4845 56.8662 19.5444V24.3511C56.8662 24.411 56.8363 24.4409 56.7764 24.4409H56.5068C56.4469 24.4409 56.417 24.411 56.417 24.3511C56.417 23.243 56.0951 22.6029 55.4512 22.4307C55.2715 22.3857 55.0806 22.3633 54.8784 22.3633H51.0264C50.9515 22.3633 50.9141 22.4007 50.9141 22.4756V27.9448C50.9141 28.5063 51.1724 28.8245 51.689 28.8994C51.8387 28.9219 51.9959 28.9331 52.1606 28.9331H55.9004C56.6715 28.9331 57.2705 28.5924 57.6973 27.9111C58.0042 27.4245 58.1914 26.8667 58.2588 26.2378C58.2812 26.0282 58.3936 25.9233 58.5957 25.9233C58.6855 25.9233 58.7305 25.972 58.7305 26.0693L58.3599 29.8428C58.3149 29.9476 58.2625 30 58.2026 30H45.6919C45.632 30 45.6021 29.9701 45.6021 29.9102Z" fill="#303030"/>
<path d="M60.3027 30C60.2428 30 60.2129 29.9251 60.2129 29.7754V29.6406C60.2129 29.5807 60.2428 29.5508 60.3027 29.5508C60.3477 29.5508 60.4188 29.5433 60.5161 29.5283C60.6134 29.5133 60.7145 29.4984 60.8193 29.4834C60.9242 29.4684 61.0215 29.4535 61.1113 29.4385C61.2012 29.416 61.2648 29.401 61.3022 29.3936C62.0659 29.2214 62.4478 28.7871 62.4478 28.0908V16.2314C62.4478 15.5876 62.1895 15.1309 61.6729 14.8613C61.3659 14.6966 61.0365 14.6143 60.6846 14.6143H60.2578C60.1979 14.6143 60.168 14.5843 60.168 14.5244V14.2549C60.168 14.195 60.2129 14.165 60.3027 14.165L66.4683 13.9966H67.6025C68.9277 14.0864 70.0358 14.5693 70.9268 15.4453C71.8252 16.3138 72.2744 17.3882 72.2744 18.6685C72.2744 19.9412 71.7428 20.9333 70.6797 21.6445C70.3503 21.8617 69.9946 22.0563 69.6128 22.2285L73.0156 27.7876C73.6071 28.7609 74.4007 29.446 75.3965 29.8428C75.4788 29.8652 75.52 29.9176 75.52 30C75.52 30.1872 75.3965 30.2808 75.1494 30.2808C73.4648 30.2808 72.1247 29.6406 71.1289 28.3604C70.9118 28.0758 70.6947 27.7576 70.4775 27.4058L67.5688 22.8462L64.896 22.7227H64.8062C64.6938 22.7227 64.6377 22.7751 64.6377 22.8799V28.0571C64.6377 28.4689 64.7537 28.7759 64.9858 28.978C65.2179 29.1802 65.6185 29.3187 66.1875 29.3936C66.3372 29.416 66.5207 29.4497 66.7378 29.4946C66.9549 29.5321 67.1009 29.5508 67.1758 29.5508C67.2581 29.5508 67.2993 29.5807 67.2993 29.6406V29.9102C67.2993 29.9701 67.2694 30 67.2095 30H60.3027ZM65.5474 14.5918C65.4575 14.5918 65.3602 14.5955 65.2554 14.603C65.158 14.603 65.0308 14.6068 64.8735 14.6143C64.7163 14.6143 64.6377 14.6742 64.6377 14.7939V21.5996L64.6602 21.9365C64.6826 22.0938 64.7537 22.1761 64.8735 22.1836L66.019 22.251C68.1229 22.251 69.3919 21.5023 69.8262 20.0049C69.9684 19.5332 70.0396 18.9941 70.0396 18.3877C70.0396 17.2048 69.6689 16.2726 68.9277 15.5913C68.194 14.91 67.2544 14.5693 66.1089 14.5693C66.0041 14.5693 65.9067 14.5731 65.8169 14.5806C65.7271 14.5806 65.6372 14.5843 65.5474 14.5918Z" fill="#303030"/>
<path d="M81.6406 29.9102C81.6406 29.9701 81.6107 30 81.5508 30H75.812C75.7521 30 75.7222 29.9701 75.7222 29.9102V29.6406C75.7222 29.5807 75.7708 29.5508 75.8682 29.5508C76.8939 29.5059 77.5864 28.9593 77.9458 27.9111L82.5278 14.6479C82.5353 14.633 82.5391 14.6143 82.5391 14.5918L82.4155 14.2212C82.4155 14.1838 82.4305 14.165 82.4604 14.165H84.7065C84.7215 14.1725 84.7402 14.18 84.7627 14.1875C84.7926 14.195 84.8151 14.2174 84.8301 14.2549L89.5806 27.5854C89.6854 27.7876 89.7677 27.971 89.8276 28.1357C89.895 28.3005 89.9699 28.4502 90.0522 28.585C90.2319 28.8919 90.5277 29.1278 90.9395 29.2925C91.2839 29.4647 91.5983 29.5508 91.8828 29.5508C91.9427 29.5508 91.9727 29.5845 91.9727 29.6519V29.9102C91.9727 29.9701 91.9427 30 91.8828 30H85.0098C84.9499 30 84.9199 29.9701 84.9199 29.9102V29.6406C84.9199 29.5807 85.0584 29.5433 85.3354 29.5283C85.6125 29.5133 85.8408 29.4984 86.0205 29.4834C87.0612 29.3711 87.5815 29.0192 87.5815 28.4277C87.5815 28.3828 87.5741 28.3304 87.5591 28.2705L85.8633 23.4863C85.8558 23.4714 85.8408 23.4377 85.8184 23.3853C85.7285 23.1307 85.5713 23.0034 85.3467 23.0034H81.3599C81.1353 23.0034 80.9593 23.127 80.832 23.374C80.8096 23.4264 80.7983 23.4564 80.7983 23.4639L79.1138 28.394V28.4951C79.1138 28.6898 79.2148 28.8657 79.417 29.0229C79.8737 29.3748 80.4876 29.5508 81.2588 29.5508H81.5508C81.6107 29.5508 81.6406 29.5807 81.6406 29.6406V29.9102ZM84.9648 21.7568C85.0996 21.7568 85.167 21.7007 85.167 21.5884C85.167 21.5285 85.152 21.4611 85.1221 21.3862L83.4487 16.7817C83.3739 16.5796 83.3177 16.4785 83.2803 16.4785C83.2428 16.4785 83.1829 16.5833 83.1006 16.793L81.5283 21.3862C81.4984 21.4611 81.4834 21.5435 81.4834 21.6333C81.4834 21.7157 81.5396 21.7568 81.6519 21.7568H84.9648Z" fill="#303030"/>
<path d="M93.1631 30C93.1032 30 93.0732 29.9251 93.0732 29.7754V29.6406C93.0732 29.5807 93.1107 29.5508 93.1855 29.5508C93.2604 29.5508 93.369 29.5283 93.5112 29.4834C93.661 29.4385 93.7733 29.4085 93.8481 29.3936C94.6118 29.2214 94.9937 28.7871 94.9937 28.0908V16.2314C94.9937 15.5426 94.8664 15.1047 94.6118 14.9175C94.3573 14.7228 93.8968 14.6255 93.2305 14.6255H92.7251C92.5679 14.6255 92.4893 14.5356 92.4893 14.356C92.4893 14.2511 92.5379 14.1875 92.6353 14.165H92.7139L99.0142 13.9966H100.148C101.489 14.0864 102.604 14.5693 103.495 15.4453C104.386 16.3213 104.832 17.3732 104.832 18.6011C104.832 19.8215 104.394 20.9295 103.518 21.9253C103.136 22.367 102.705 22.7264 102.226 23.0034C101.747 23.2729 101.275 23.4115 100.811 23.4189L97.4419 23.2842H97.3521C97.2397 23.2842 97.1836 23.3366 97.1836 23.4414V28.0571C97.1836 28.4689 97.2959 28.7721 97.5205 28.9668C97.7451 29.1615 98.2205 29.3149 98.9468 29.4272C99.0441 29.4422 99.2013 29.4684 99.4185 29.5059C99.6356 29.5358 99.7816 29.5508 99.8564 29.5508C99.9313 29.5508 99.9688 29.5807 99.9688 29.6406V29.9102C99.9688 29.9701 99.9388 30 99.8789 30H93.1631ZM98.0933 14.5693C98.0034 14.5693 97.9061 14.5731 97.8013 14.5806C97.7039 14.5806 97.5767 14.5843 97.4194 14.5918C97.2622 14.5918 97.1836 14.6517 97.1836 14.7715V22.0151L97.2061 22.3521C97.2285 22.5093 97.2996 22.5916 97.4194 22.5991L98.5649 22.6665C99.7703 22.6665 100.74 22.2622 101.474 21.4536C102.215 20.645 102.585 19.6305 102.585 18.4102C102.585 17.1823 102.226 16.2314 101.507 15.5576C100.796 14.8838 99.8452 14.5469 98.6548 14.5469C98.55 14.5469 98.4526 14.5506 98.3628 14.5581C98.2729 14.5581 98.1831 14.5618 98.0933 14.5693Z" fill="#303030"/>
<path d="M122.014 27.9673C122.014 28.978 122.714 29.5059 124.114 29.5508C124.174 29.5508 124.204 29.5807 124.204 29.6406V29.9102C124.204 29.9701 124.174 30 124.114 30H116.972C116.912 30 116.882 29.9701 116.882 29.9102V29.6406C116.882 29.5807 117.069 29.5508 117.443 29.5508C117.818 29.5508 118.244 29.4684 118.724 29.3037C119.457 29.0641 119.824 28.6598 119.824 28.0908V22.7339C119.824 22.659 119.813 22.6104 119.791 22.5879C119.768 22.5654 119.719 22.5542 119.645 22.5542H110.795C110.72 22.5542 110.671 22.5654 110.649 22.5879C110.626 22.6104 110.615 22.659 110.615 22.7339V28.2031C110.615 29.1016 111.278 29.5508 112.603 29.5508C112.663 29.5508 112.693 29.5807 112.693 29.6406V29.9102C112.693 29.9701 112.667 30 112.614 30H106.415C106.355 30 106.325 29.9701 106.325 29.9102V29.6406C106.325 29.5807 106.4 29.5508 106.55 29.5508C107.8 29.5508 108.425 29.0155 108.425 27.9448V15.9619C108.425 15.0859 107.905 14.6217 106.864 14.5693C106.707 14.5618 106.628 14.5282 106.628 14.4683V14.2549C106.628 14.195 106.655 14.165 106.707 14.165H112.345C112.405 14.165 112.435 14.195 112.435 14.2549V14.4683C112.435 14.5132 112.363 14.5356 112.221 14.5356C111.151 14.5356 110.615 15.0635 110.615 16.1191V21.3076C110.615 21.3825 110.626 21.4312 110.649 21.4536C110.671 21.4761 110.72 21.4873 110.795 21.4873H119.645C119.719 21.4873 119.768 21.4761 119.791 21.4536C119.813 21.4312 119.824 21.3825 119.824 21.3076V15.9395C119.809 15.8721 119.798 15.8122 119.791 15.7598C119.791 15.6999 119.779 15.61 119.757 15.4902C119.704 15.2357 119.439 15.0298 118.959 14.8726C118.48 14.7078 117.938 14.603 117.331 14.5581C117.271 14.5581 117.241 14.5282 117.241 14.4683V14.2549C117.241 14.195 117.267 14.165 117.32 14.165H123.8C123.86 14.165 123.89 14.195 123.89 14.2549V14.4683C123.89 14.5132 123.819 14.5356 123.676 14.5356C122.568 14.5356 122.014 15.0635 122.014 16.1191V27.9673Z" fill="#303030"/>
<path d="M127.708 15.9619C127.708 15.0635 127.191 14.6143 126.158 14.6143C125.993 14.6143 125.911 14.5843 125.911 14.5244V14.2549C125.911 14.195 125.941 14.165 126.001 14.165H131.627C131.687 14.165 131.717 14.195 131.717 14.2549V14.5244C131.717 14.5843 131.553 14.6143 131.223 14.6143C130.894 14.6143 130.59 14.7191 130.313 14.9287C130.036 15.1383 129.898 15.5688 129.898 16.2202V28.2031C129.898 29.1016 130.418 29.5508 131.459 29.5508C131.616 29.5508 131.695 29.5807 131.695 29.6406V29.9102C131.695 29.9701 131.665 30 131.605 30H125.979C125.919 30 125.889 29.9701 125.889 29.9102V29.6406C125.889 29.5807 126.053 29.5508 126.383 29.5508C126.712 29.5508 127.015 29.446 127.292 29.2363C127.569 29.0267 127.708 28.5962 127.708 27.9448V15.9619Z" fill="#303030"/>
<path d="M138.366 29.5508C138.411 29.5508 138.433 29.5807 138.433 29.6406V29.9102C138.433 29.9701 138.411 30 138.366 30H133.121C133.061 30 133.031 29.9701 133.031 29.9102V29.6406C133.031 29.5807 133.061 29.5508 133.121 29.5508C134.349 29.5508 135.015 29.0229 135.12 27.9673C135.15 27.6603 135.18 27.1512 135.21 26.4399C135.247 25.7212 135.348 24.1826 135.513 21.8242C135.678 19.4583 135.76 17.5454 135.76 16.0854V15.6699C135.76 15.3704 135.588 15.1196 135.244 14.9175C134.907 14.7153 134.66 14.6143 134.502 14.6143C134.345 14.6143 134.267 14.5843 134.267 14.5244V14.2549C134.267 14.195 134.297 14.165 134.356 14.165H137.602C137.744 14.1875 137.86 14.2699 137.95 14.4121L143.217 26.1479C143.255 26.2004 143.285 26.2453 143.307 26.2827C143.33 26.3201 143.386 26.3389 143.476 26.3389C143.565 26.3314 143.633 26.264 143.678 26.1367L148.889 14.6143C149.046 14.3148 149.188 14.165 149.315 14.165H152.583C152.643 14.165 152.673 14.195 152.673 14.2549V14.5244C152.673 14.5843 152.655 14.6143 152.617 14.6143C152.393 14.6143 152.116 14.6891 151.786 14.8389C151.285 15.0635 151.034 15.3966 151.034 15.8384L151.708 28.248C151.722 28.6374 151.925 28.9518 152.314 29.1914C152.703 29.431 153.212 29.5508 153.841 29.5508C153.901 29.5508 153.931 29.5807 153.931 29.6406V29.9102C153.931 29.9701 153.901 30 153.841 30H147.462C147.403 30 147.373 29.9701 147.373 29.9102V29.6406C147.373 29.5807 147.403 29.5508 147.462 29.5508C148.803 29.5508 149.473 29.2251 149.473 28.5737L148.877 17.8486C148.87 17.7738 148.847 17.7363 148.81 17.7363C148.78 17.7363 148.754 17.77 148.731 17.8374L143.15 29.9214C143.12 29.9738 143.034 30 142.892 30C142.749 30 142.667 29.9701 142.645 29.9102L137.142 17.8037C137.097 17.6989 137.052 17.6465 137.007 17.6465C136.969 17.6465 136.951 17.7288 136.951 17.8936C136.951 18.238 136.861 19.8626 136.681 22.7676C136.501 25.6725 136.412 27.4844 136.412 28.2031V28.6636C136.501 29.0903 136.924 29.3674 137.681 29.4946C137.898 29.5321 138.126 29.5508 138.366 29.5508Z" fill="#303030"/>
<path d="M18.6016 12.0684L24.652 16.6415C24.652 16.6415 24.4943 24.3435 27.2581 27.4974C27.7063 28.012 29.7563 29.8296 30.2045 30.1948C30.3373 30.3027 28.6524 28.1116 28.0051 27.1405C26.8265 25.3561 25.9882 22.9077 26.121 18.0856L26.1957 15.6123L18.6016 12.0684Z" fill="#473FEC"/>
<path d="M4.33241 8.43254C11.1132 12.0014 23.7619 17.7115 23.7619 17.7115C13.1798 11.4868 0 0.730469 0 0.730469C0 0.730469 -4.11588e-06 6.15013 4.33241 8.43254Z" fill="#473FEC"/>
<path d="M5.81785 15.8284C10.6482 18.6752 23.5542 19.0653 23.5542 19.0653C13.4867 16.2102 4.6393 12.5584 2.06641 10.8652C2.06641 10.8652 2.98767 14.1602 5.81785 15.8284Z" fill="#473FEC"/>
<path d="M23.9524 20.7483L4.26562 19.2793C4.26562 19.2793 6.06665 21.8439 9.19561 22.068C13.2126 22.3419 23.9524 20.7483 23.9524 20.7483Z" fill="#473FEC"/>
<path d="M24.1846 22.3086C24.1846 22.3086 8.09986 24.9894 8.39864 25.1803C9.295 25.7446 11.4363 26.9066 13.9013 26.1015C20.0264 24.1013 24.1846 22.3086 24.1846 22.3086Z" fill="#473FEC"/>
<path d="M24.2176 23.9023L15.7188 27.9609C15.7188 27.9609 18.69 28.8323 20.2421 27.4463C24.2176 23.9023 24.2176 23.9023 24.2176 23.9023Z" fill="#473FEC"/>
<path d="M21.1719 28.9741C21.1719 28.9741 22.8484 29.497 23.7531 27.7292C24.3921 26.4759 24.8569 25.3555 24.8569 25.3555L21.1719 28.9741Z" fill="#473FEC"/>
</svg>
