<svg width="489" height="497" viewBox="0 0 489 497" fill="none" xmlns="http://www.w3.org/2000/svg">
<g opacity="0.6">
<path d="M235.657 5.69278C235.871 5.26373 235.871 4.94194 236.086 4.51289C236.3 4.08384 236.622 3.76205 236.944 3.44026C237.48 2.90395 238.231 2.68942 238.982 2.68942C240.698 2.68942 241.985 4.94194 242.736 6.22909C244.881 10.4123 245.739 15.2392 246.705 19.7442C246.812 20.3878 247.67 20.8168 248.314 20.6023C249.064 20.3878 249.279 19.7442 249.172 18.9934C248.743 16.0973 247.992 13.0939 247.134 10.3051C246.383 7.83804 245.525 5.26373 244.023 3.11848C242.521 0.973219 240.376 -0.421201 237.802 0.115113C236.729 0.329639 235.657 1.08048 234.906 1.83132C234.048 2.68942 233.189 4.40563 233.94 5.58552C234.262 6.33636 235.335 6.44362 235.657 5.69278Z" fill="white"/>
<path d="M262.042 5.69205C262.793 4.51216 261.935 3.01048 261.184 2.15238C260.433 1.18701 259.361 0.543432 258.181 0.221644C255.607 -0.421933 253.354 1.29428 251.96 3.22501C250.458 5.263 249.6 7.94457 248.849 10.4116C247.991 13.2004 247.24 16.2038 246.811 19.0999C246.704 19.7435 246.918 20.4943 247.669 20.7088C248.313 20.9234 249.064 20.4943 249.278 19.8507C250.243 15.2384 251.209 10.5189 253.247 6.33563C253.89 4.94121 255.07 3.01048 256.787 2.79595C257.537 2.68869 258.288 2.90322 258.932 3.43953C259.254 3.76132 259.575 4.08311 259.897 4.51216C260.219 4.94121 260.219 5.37027 260.433 5.79932C260.648 6.44289 261.613 6.33562 262.042 5.69205Z" fill="white"/>
<path d="M376.974 32.5908C376.766 31.5565 375.513 30.8325 374.47 30.6256C373.322 30.3153 372.07 30.6256 370.922 30.9359C369.775 31.2462 368.731 31.5565 367.583 31.5565C366.436 31.5565 365.288 31.4531 364.244 31.1428C363.514 30.4188 362.888 29.5913 362.262 28.6604C361.531 27.6261 361.323 26.4884 361.01 25.3507C360.697 24.3164 360.384 23.1786 359.653 22.3512C358.923 21.5238 357.671 20.6963 356.523 21.11C355.792 21.3169 355.688 22.2478 356.314 22.6615C356.627 22.8684 357.149 22.9718 357.462 23.1786C357.879 23.4889 358.088 23.7992 358.297 24.3164C358.818 25.2473 358.923 26.4884 359.236 27.5227C359.444 28.4536 359.862 29.281 360.488 30.1085C359.549 29.9016 358.505 29.9016 357.566 30.005C355.166 30.3153 353.184 32.1771 352.036 34.1422C350.993 36.004 350.68 38.2794 351.306 40.348C351.723 41.5892 352.453 42.6235 353.392 43.5544C354.123 44.2784 357.775 46.4504 358.714 46.6573C359.966 47.071 361.323 47.071 362.679 46.8641C364.87 46.5538 366.749 45.0024 367.896 43.1406C369.044 41.1755 369.566 38.6931 368.835 36.5211C368.522 35.4868 367.896 34.556 367.166 33.8319C368.105 33.8319 369.044 33.8319 370.088 33.6251C371.131 33.3148 372.07 32.9011 373.114 32.7976C373.635 32.6942 374.053 32.7976 374.574 32.9011C375.096 33.0045 375.305 33.4182 375.827 33.6251C376.348 33.9354 377.079 33.3148 376.974 32.5908ZM365.705 41.5892C364.975 42.9338 363.723 43.9681 362.157 44.2784C361.218 44.4852 360.279 44.2784 359.444 44.0715C358.714 43.8647 356.105 42.4166 355.584 41.8995C354.853 41.2789 354.227 40.5549 353.914 39.624C353.392 38.176 353.601 36.5211 354.332 35.1765C355.166 33.6251 356.523 32.5908 358.192 32.1771C359.027 31.9702 359.966 31.9702 360.905 32.1771C361.636 32.2805 362.262 32.5908 362.992 32.6942C363.096 32.6942 363.097 32.7976 363.201 32.7976C363.305 32.7976 363.305 32.9011 363.41 32.9011C363.41 32.9011 363.41 32.9011 363.514 32.9011C363.931 33.4182 364.453 33.8319 364.87 34.2457C365.496 34.8662 366.018 35.5902 366.331 36.5211C366.749 38.3829 366.436 40.1412 365.705 41.5892Z" fill="white"/>
<path d="M453.01 122.809C453.098 122.633 453.185 122.457 453.273 122.282C452.834 122.633 452.746 123.336 452.746 123.951C452.746 124.654 452.834 125.357 452.922 126.148C453.098 127.729 453.537 129.223 454.152 130.629C454.767 132.122 455.909 133.353 457.051 134.407C458.106 135.461 459.687 136.604 461.181 135.901C461.708 135.637 461.708 135.022 461.533 134.583C461.181 133.88 460.566 133.616 459.951 133.265C459.424 133.001 459.072 132.562 458.633 132.21C457.579 131.244 456.876 130.189 456.261 128.959C455.734 127.817 455.382 126.411 455.118 125.181C455.031 124.566 455.031 124.039 454.855 123.424C454.679 122.897 454.767 122.457 454.24 122.194C453.8 121.754 453.01 122.106 453.01 122.809Z" fill="white"/>
<path d="M453.976 126.323C453.273 126.499 452.658 127.026 452.043 127.378C451.428 127.729 450.813 128.081 450.11 128.52C448.792 129.223 447.386 129.926 446.068 130.717C445.014 131.332 443.872 131.947 442.729 132.562C441.851 133.001 440.884 133.528 441.06 134.671C441.148 135.286 441.939 135.637 442.466 135.549C443.169 135.373 443.432 134.758 443.344 134.143C443.344 134.319 443.344 134.495 443.344 134.758C443.081 135.11 442.993 135.286 443.169 135.11C443.344 135.022 443.432 134.934 443.608 134.846C443.872 134.671 444.047 134.583 444.311 134.495C445.541 133.792 446.771 133.177 448.001 132.474C449.231 131.771 450.461 131.156 451.604 130.453C452.131 130.102 452.746 129.75 453.273 129.399C453.888 128.959 454.503 128.52 455.03 127.993C455.558 127.026 454.679 126.148 453.976 126.323Z" fill="white"/>
<path d="M457.05 131.683C456.523 131.771 456.083 132.122 455.644 132.298C455.117 132.562 454.59 132.825 454.062 133.089C453.008 133.616 451.954 134.231 450.899 134.846C448.966 135.989 446.857 136.955 444.924 138.097C443.606 138.888 444.749 140.821 446.067 140.118C448.088 139.064 450.108 138.009 452.041 136.955C453.008 136.428 453.974 135.813 454.941 135.198C455.468 134.846 455.907 134.495 456.435 134.231C456.962 133.88 457.489 133.616 457.841 133.089C458.368 132.474 457.928 131.507 457.05 131.683Z" fill="white"/>
<path d="M437.808 133.002C438.16 133.441 438.687 133.705 439.214 133.968C439.741 134.32 440.268 134.583 440.708 134.935C441.586 135.55 442.289 136.516 442.904 137.395C443.432 138.274 443.607 139.328 443.607 140.295C443.607 140.822 443.695 141.349 443.607 141.876C443.519 142.491 443.256 142.931 443.168 143.546C443.08 144.688 444.486 145.039 445.189 144.424C446.243 143.546 446.243 141.788 446.155 140.558C446.068 139.152 445.892 137.834 445.189 136.516C444.574 135.374 443.432 134.232 442.377 133.441C441.762 133.002 441.235 132.65 440.532 132.387C439.917 132.123 439.214 131.684 438.511 131.596C437.72 131.508 437.281 132.387 437.808 133.002Z" fill="white"/>
<path d="M484.878 240.324C485.8 243.807 487.746 247.29 486.517 250.978C485.595 253.642 483.546 256.306 480.677 256.818C479.14 257.125 477.706 256.306 477.091 254.974C476.477 253.54 476.784 252.003 477.809 250.876C478.833 249.749 480.472 250.056 481.497 250.876C482.111 251.388 482.521 252.003 482.726 252.823C482.931 253.642 482.726 254.359 482.521 255.076C482.214 255.896 481.599 256.408 480.984 257.023C480.37 257.74 480.984 258.97 482.009 258.765C483.853 258.457 484.673 256.716 485.083 255.076C485.697 253.232 485.083 251.183 483.853 249.749C482.624 248.315 480.78 247.495 478.833 247.7C477.091 247.905 475.657 249.134 474.94 250.671C474.12 252.208 474.12 254.257 474.735 255.896C475.452 257.638 476.989 258.765 478.731 259.174C482.009 259.994 485.185 257.535 486.927 254.974C488.463 252.823 489.078 250.364 488.976 247.7C488.873 244.831 487.746 241.86 486.312 239.402C486.107 239.094 485.595 238.889 485.185 239.094C484.878 239.299 484.775 239.811 484.878 240.324Z" fill="white"/>
<path d="M473.199 254.564C472.277 251.081 470.33 247.597 471.56 243.909C472.482 241.246 474.531 238.582 477.399 238.07C478.936 237.762 480.37 238.582 480.985 239.914C481.6 241.348 481.292 242.885 480.268 244.012C479.243 245.139 477.604 244.831 476.58 244.012C475.965 243.499 475.555 242.885 475.35 242.065C475.145 241.246 475.35 240.528 475.555 239.811C475.862 238.992 476.477 238.479 477.092 237.865C477.707 237.148 477.092 235.918 476.067 236.123C474.223 236.43 473.404 238.172 472.891 239.811C472.277 241.655 472.891 243.704 474.121 245.139C475.35 246.573 477.194 247.495 479.141 247.188C480.883 246.983 482.317 245.753 483.136 244.217C483.956 242.68 483.956 240.631 483.341 238.992C482.624 237.25 481.087 236.123 479.346 235.713C476.067 234.894 472.891 237.352 471.15 239.914C469.613 242.065 468.998 244.524 469.101 247.188C469.203 250.056 470.33 253.027 471.764 255.486C471.969 255.794 472.482 255.998 472.891 255.794C473.199 255.589 473.404 254.974 473.199 254.564Z" fill="white"/>
<path d="M458.759 370.127C459.02 369.953 459.454 369.779 459.628 369.519C459.889 369.258 460.063 368.997 460.236 368.736C460.584 368.215 460.845 367.52 460.932 366.825C461.105 365.521 460.845 364.13 460.149 363.001C459.367 361.784 458.064 360.915 456.673 360.741C455.196 360.48 453.892 360.915 452.762 361.784C450.937 363.175 450.242 366.042 451.024 368.128C452.067 370.822 455.109 371.952 457.716 370.909C458.238 370.735 458.672 370.475 459.02 370.127C459.454 369.779 459.715 369.345 459.976 368.823C460.236 368.128 459.367 367.52 458.759 367.867C458.324 368.128 457.89 368.476 457.368 368.736C456.934 368.997 456.412 369.084 455.891 369.084C454.935 369.084 454.153 368.736 453.545 368.215C453.11 367.78 452.849 366.998 452.849 366.303C452.849 365.521 453.11 364.826 453.545 364.13C453.892 363.522 454.587 363.175 455.37 363.001C456.239 362.827 457.195 363.175 457.89 363.783C458.585 364.478 458.846 365.434 458.846 366.39C458.846 366.738 458.759 367.172 458.585 367.433C458.498 367.694 458.324 367.867 458.238 368.041C458.064 368.302 457.977 368.563 457.716 368.823C457.282 369.519 457.977 370.735 458.759 370.127Z" fill="white"/>
<path d="M457.456 370.996C458.672 370.822 459.802 370.301 461.019 370.127C461.279 370.127 461.714 370.04 462.148 370.04C462.235 370.04 462.757 370.127 462.496 370.04C462.67 370.04 462.844 370.127 463.018 370.127C463.104 370.127 463.191 370.214 463.191 370.214C463.278 370.301 463.365 370.301 463.452 370.388C463.104 370.127 463.452 370.388 463.539 370.475C463.626 370.562 463.713 370.735 463.539 370.388C463.539 370.475 463.626 370.475 463.626 370.562C463.713 370.822 463.539 370.301 463.626 370.648C463.626 370.735 463.713 371.17 463.626 370.735C463.626 370.822 463.626 370.996 463.626 371.083C463.626 371.17 463.626 371.17 463.626 371.257C463.626 371.431 463.539 371.517 463.539 371.691C463.539 371.778 463.452 371.865 463.452 371.865C463.278 372.126 463.104 372.473 462.931 372.734C462.844 372.821 462.844 372.908 462.757 372.908C462.67 372.995 462.496 373.169 462.409 373.256C462.322 373.342 462.148 373.516 461.975 373.603C461.888 373.69 461.801 373.69 461.801 373.777C462.062 373.603 461.714 373.864 461.627 373.864C460.15 374.82 458.585 375.167 456.76 375.081C455.196 374.994 453.545 374.472 452.241 373.429C450.59 372.213 449.46 370.388 448.504 368.65C447.375 366.564 446.332 363.957 444.072 362.653C443.116 362.132 442.073 361.958 441.03 362.045C439.64 362.219 438.858 363.435 438.25 364.478C437.467 365.869 439.64 367.085 440.335 365.695C440.596 365.086 440.857 364.478 441.639 364.304C442.16 364.217 442.769 364.565 443.203 364.826C444.507 365.695 445.289 367.607 446.071 368.91C447.635 371.691 449.373 374.472 452.154 376.037C455.804 378.035 460.932 377.775 464.06 374.82C465.712 373.256 466.754 370.735 465.277 368.737C464.582 367.781 463.191 367.433 462.062 367.433C460.237 367.433 458.064 367.954 456.587 369.084C456.239 369.345 456.239 369.866 456.413 370.214C456.673 370.909 457.021 371.083 457.456 370.996Z" fill="white"/>
<path d="M376.206 454.72C376.29 455.48 376.29 456.326 376.037 457.002C375.699 457.762 375.192 457.678 374.515 457.34C373.248 456.664 372.233 455.396 371.557 454.381C370.289 452.522 369.022 450.493 368.092 448.465C367.838 447.958 367.077 447.789 366.57 448.042C366.063 448.38 365.894 448.972 366.148 449.564C366.739 450.747 367.416 451.846 368.092 452.945C368.852 454.212 369.613 455.396 370.543 456.579C371.895 458.185 373.755 460.044 376.037 459.706C377.305 459.537 377.812 458.27 378.15 457.171C378.488 456.072 378.234 454.889 377.474 454.043C376.967 453.452 376.121 454.043 376.206 454.72Z" fill="white"/>
<path d="M371.137 457.172C371.306 458.102 371.306 459.201 370.968 460.046C370.798 460.384 370.629 460.807 370.207 460.807C369.784 460.807 369.362 460.384 369.108 460.13C368.263 459.37 367.671 458.355 367.079 457.341C366.403 456.327 365.812 455.228 365.135 454.214C364.459 453.115 363.276 452.185 362.177 451.594C360.487 450.664 358.627 450.41 356.768 450.833C355.331 451.171 355.922 453.369 357.359 453.03C359.05 452.608 360.571 453.115 362.008 454.129C362.093 454.214 362.177 454.298 362.262 454.383C362.431 454.467 362.515 454.636 362.6 454.721C362.769 454.89 363.022 455.144 363.191 455.313C362.938 455.059 363.191 455.313 363.191 455.397C363.36 455.566 363.445 455.82 363.53 456.073C363.952 456.749 364.375 457.341 364.797 458.017C365.474 459.116 366.234 460.215 367.079 461.229C367.925 462.243 369.023 463.089 370.376 463.089C371.897 463.089 372.827 461.736 373.25 460.468C373.672 459.285 373.419 457.933 372.996 456.749C372.489 455.651 370.968 455.989 371.137 457.172Z" fill="white"/>
<path d="M363.952 456.073C363.698 456.411 363.783 456.749 363.783 457.171C363.783 457.171 363.698 457.425 363.698 457.51C363.783 457.341 363.529 457.763 363.614 457.594C363.614 457.594 363.276 457.848 363.445 457.763C363.36 457.848 363.191 457.932 363.107 457.932C363.36 457.848 363.022 457.932 362.938 457.932C362.769 458.017 363.107 457.932 362.853 457.932C362.769 457.932 362.769 457.848 362.684 457.848C362.515 457.763 362.853 458.017 362.6 457.763C362.515 457.679 362.431 457.594 362.346 457.51C362.177 457.256 362.346 457.594 362.261 457.425C362.092 457.171 362.008 457.002 361.923 456.749C362.008 456.918 361.923 456.58 361.839 456.58C361.754 456.411 361.754 456.242 361.67 456.157C361.585 455.819 361.501 455.566 361.501 455.227C361.416 454.298 361.501 453.368 361.585 452.438C361.839 450.748 362.769 449.311 363.36 447.705C363.614 447.113 363.107 446.437 362.515 446.268C361.839 446.099 361.332 446.522 361.078 447.113C360.74 448.043 360.317 448.973 359.979 449.903C359.557 451.001 359.388 452.016 359.303 453.199C359.134 454.974 359.303 457.087 360.317 458.608C360.994 459.623 362.177 460.383 363.445 460.045C364.206 459.876 364.882 459.285 365.304 458.608C365.558 458.186 365.642 457.679 365.642 457.256C365.558 456.58 365.389 456.073 364.713 455.819C364.544 455.566 364.121 455.819 363.952 456.073Z" fill="white"/>
<path d="M380.348 454.382C380.263 455.058 380.348 456.072 379.756 456.326C380.01 456.242 380.179 456.326 380.348 456.411C380.179 456.326 380.01 456.157 379.925 455.988C379.756 455.734 379.502 455.565 379.333 455.312C379.249 455.143 379.08 455.058 378.995 454.889C378.995 454.889 378.742 454.636 378.995 454.805C378.911 454.72 378.911 454.636 378.826 454.551C378.319 453.875 377.812 453.199 377.305 452.438C375.699 450.156 374.177 447.789 372.741 445.423C372.149 445.845 371.642 446.268 371.05 446.69C371.219 446.859 371.388 446.944 371.557 447.029C372.149 447.198 372.741 446.775 372.825 446.268C372.994 445.676 372.656 445.169 372.064 445C372.064 445 372.064 445 371.98 445C372.233 445.169 372.403 445.338 372.656 445.507C371.811 444.408 370.12 445.338 370.797 446.521C372.233 449.057 373.839 451.593 375.53 453.959C376.375 455.227 377.305 456.58 378.404 457.678C378.826 458.016 379.333 458.439 379.925 458.439C381.362 458.355 382.207 456.918 382.292 455.565C382.376 454.974 382.207 454.382 381.954 453.79C381.616 453.114 380.348 453.621 380.348 454.382Z" fill="white"/>
<path d="M264.127 485.369C264.572 485.48 263.794 485.258 263.571 485.258C263.127 485.147 262.793 485.147 262.349 485.147C261.348 485.147 260.459 485.036 259.57 485.036C258.681 485.036 255.568 484.924 255.457 484.924C255.013 484.924 255.791 485.036 255.902 485.036C255.235 484.702 254.457 484.813 254.123 485.48C253.79 486.036 253.901 487.036 254.568 487.259C255.124 487.481 255.68 487.481 256.235 487.481C257.125 487.481 258.125 487.481 259.014 487.481C260.015 487.481 261.015 487.481 262.015 487.37C262.46 487.37 262.904 487.37 263.349 487.259C263.46 487.259 263.571 487.259 263.682 487.147C263.794 487.147 264.349 486.925 263.905 487.036C265.016 486.925 265.127 485.702 264.127 485.369Z" fill="white"/>
<path d="M254.011 486.035C253.9 486.814 254.122 487.592 254.011 488.37C253.9 489.259 253.455 490.037 253.01 490.704C252.01 492.149 250.454 493.038 248.675 493.26C247.897 493.371 247.23 493.816 247.23 494.705C247.23 495.372 247.897 496.15 248.675 496.15C251.454 495.928 253.566 494.594 255.233 492.371C255.9 491.482 256.456 490.259 256.678 489.148C256.901 488.036 256.901 486.48 256.011 485.591C255.345 484.924 254.122 485.146 254.011 486.035Z" fill="white"/>
<path d="M233.226 487.259C232.781 487.148 233.559 487.37 233.782 487.37C234.226 487.481 234.671 487.481 235.116 487.481C236.116 487.592 237.116 487.592 238.117 487.592C239.117 487.592 240.006 487.592 241.007 487.592C241.562 487.592 242.229 487.703 242.785 487.37C243.452 487.036 243.563 486.147 243.23 485.592C242.785 484.925 242.118 484.813 241.451 485.147C241.451 485.147 242.34 484.925 242.007 485.036C241.896 485.036 241.785 485.036 241.673 485.036C241.34 485.036 236.116 485.147 235.116 485.147C234.671 485.147 234.337 485.147 233.893 485.258C233.782 485.258 233.671 485.258 233.559 485.258C233.448 485.258 232.892 485.48 233.337 485.369C232.226 485.703 232.337 486.925 233.226 487.259Z" fill="white"/>
<path d="M241.339 485.481C240.449 486.37 240.561 487.926 240.672 489.037C240.894 490.149 241.45 491.26 242.117 492.261C243.673 494.484 245.896 495.818 248.675 496.04C249.453 496.04 250.12 495.373 250.12 494.595C250.12 493.817 249.453 493.261 248.675 493.15C246.896 493.039 245.451 492.039 244.34 490.594C243.895 489.927 243.562 489.26 243.339 488.482C243.117 487.592 243.451 486.814 243.228 485.925C243.228 485.147 241.894 484.925 241.339 485.481Z" fill="white"/>
<path d="M264.237 480.145C262.903 479.7 261.235 479.923 259.902 479.923C257.567 479.923 235.56 480.367 234.226 480.367C232.336 480.367 232.336 483.368 234.226 483.368C237.227 483.368 240.228 483.146 243.118 483.035C248.12 482.813 260.569 482.479 261.791 482.368C262.68 482.368 263.458 482.257 264.237 482.035C265.237 481.701 265.237 480.367 264.237 480.145Z" fill="white"/>
<path d="M139.992 460.408C138.913 460.624 137.942 461.163 136.971 461.487C136.324 461.703 135.785 462.026 135.137 462.242C134.814 462.35 134.274 462.566 134.059 462.35C133.304 461.271 133.951 459.977 134.49 459.006C134.814 458.359 135.137 457.604 135.461 456.849C135.785 456.093 136.324 455.446 136.755 454.691C137.618 453.289 138.374 451.779 139.236 450.376C139.992 449.082 140.747 447.787 141.502 446.385C141.718 445.846 141.718 445.199 141.286 444.875C140.855 444.443 139.884 444.336 139.452 444.875C138.374 446.277 137.511 448.003 136.648 449.621C136.216 450.376 135.785 451.131 135.353 451.887C134.598 453.181 133.735 454.475 133.088 455.77C132.656 456.525 132.441 457.388 132.009 458.143C131.578 459.006 131.254 459.761 131.146 460.732C131.038 462.242 131.578 464.076 132.98 464.723C134.49 465.478 136.216 464.615 137.618 463.86C138.697 463.321 140.531 462.889 141.07 461.703C141.286 460.948 140.747 460.3 139.992 460.408Z" fill="white"/>
<path d="M132.547 457.604C131.252 458.144 130.173 459.223 128.663 458.791C128.232 458.683 127.8 458.252 127.692 457.928C127.477 457.497 127.477 457.173 127.369 456.634C127.369 455.663 127.8 454.476 128.124 453.721C128.771 452.211 129.634 450.916 130.389 449.514C131.36 447.788 132.331 446.17 133.194 444.444C133.949 443.042 134.704 441.424 134.596 439.806C134.488 437.972 133.194 436.678 131.468 436.246C129.742 435.815 128.124 436.354 126.829 437.325C125.535 438.188 126.614 440.237 128.016 439.482C128.987 438.943 130.497 438.296 131.468 439.159C132.439 439.914 131.576 441.747 131.144 442.61C129.526 445.847 127.369 448.975 125.859 452.211C124.888 454.476 124.025 457.281 125.427 459.546C126.398 460.948 127.908 461.704 129.634 461.596C131.36 461.488 133.194 460.517 133.733 458.791C133.949 458.144 133.194 457.281 132.547 457.604Z" fill="white"/>
<path d="M130.39 439.806C130.066 438.943 129.311 438.835 128.556 438.619C128.232 438.511 127.477 438.511 127.369 438.295C127.477 438.403 127.585 438.619 127.585 438.727C127.585 438.835 127.585 438.835 127.585 438.943C127.585 438.835 127.693 438.727 127.693 438.727C127.801 438.511 128.017 438.187 128.124 437.972C128.448 437.432 128.772 437.001 129.095 436.462C129.742 435.383 128.232 434.304 127.369 435.167C126.722 435.814 126.291 436.569 125.967 437.432C125.643 438.187 125.212 439.05 125.859 439.806C126.291 440.345 126.938 440.453 127.585 440.561C128.232 440.669 128.987 440.884 129.635 440.884C130.066 440.776 130.605 440.345 130.39 439.806Z" fill="white"/>
<path d="M141.715 466.342C141.175 466.558 140.744 466.881 140.205 466.989C139.989 467.097 139.773 467.097 139.557 467.097C139.234 466.989 139.018 466.666 139.234 467.097C139.234 467.205 139.342 467.852 139.342 467.529C139.449 467.313 139.557 466.989 139.665 466.666C139.773 466.45 139.881 466.018 139.989 465.911C140.205 465.479 140.42 465.048 140.636 464.508C141.068 463.537 141.607 462.459 142.146 461.488C143.98 458.036 145.814 454.8 147.756 451.348C147.756 451.24 147.756 451.24 147.756 451.24C148.726 449.622 146.353 448.328 145.382 449.838C143.549 453.074 141.715 455.986 139.989 459.223C139.018 461.056 138.047 462.89 137.184 464.832C136.861 465.479 136.645 466.126 136.537 466.881C136.321 468.176 136.968 469.039 138.263 469.47C139.989 470.118 142.038 469.147 143.117 467.744C143.872 466.881 142.578 465.911 141.715 466.342Z" fill="white"/>
<path d="M49.2623 373.276C48.6069 373.088 47.9514 372.807 47.296 372.62C45.7978 372.152 44.2996 371.684 42.895 371.216C39.0559 370.092 23.5122 365.41 23.5122 365.41C23.4186 365.316 24.2613 365.691 23.4186 365.41C22.7631 365.129 22.014 365.691 21.8268 366.346C21.6395 367.096 22.1077 367.657 22.7631 367.938C23.325 368.126 23.9804 368.313 24.6359 368.5C26.1341 368.968 44.3932 374.212 46.266 374.68C47.2023 374.867 48.1387 375.148 49.0751 375.242C50.1051 375.148 50.386 373.463 49.2623 373.276Z" fill="white"/>
<path d="M28.1004 371.029C27.9132 370.655 27.6322 370.374 27.3513 369.999C26.7895 369.344 26.1341 368.782 25.5722 368.22C24.7295 367.377 23.8868 366.535 22.9504 365.692C22.7631 366.347 22.5759 367.003 22.3886 367.658C24.6359 367.096 26.9768 366.441 29.2241 365.879C30.6286 365.505 30.0668 363.257 28.6623 363.632C26.415 364.194 24.0741 364.755 21.8268 365.411C20.984 365.598 20.7031 366.722 21.2649 367.377C22.1077 368.22 23.044 369.063 23.8868 369.905C24.4486 370.467 25.0104 371.029 25.6659 371.591C26.0404 371.872 26.3213 372.246 26.7895 372.34C27.6322 372.621 28.475 371.872 28.1004 371.029Z" fill="white"/>
<path d="M39.711 375.897C39.9919 375.429 40.1792 374.774 40.3664 374.212C40.6473 373.463 40.9283 372.62 41.2092 371.871C41.4901 371.122 42.1455 369.062 42.2392 368.875C42.3328 368.594 42.5201 368.407 42.2392 368.781C43.0819 367.283 40.741 365.972 39.9919 367.47C39.8046 367.845 39.6173 368.407 39.5237 368.781C39.2428 369.53 39.0555 370.279 38.8682 371.122C38.681 371.965 38.4001 372.807 38.2128 373.65C38.1192 374.306 37.9319 374.961 38.0255 375.71C38.2128 376.553 39.3364 376.553 39.711 375.897Z" fill="white"/>
<path d="M3.98707 255.875C3.57858 255.569 3.17009 255.365 2.7616 254.956C2.65948 254.854 2.65948 254.752 2.65948 254.65C2.65948 254.446 2.65948 254.446 2.65948 254.548C2.55736 254.752 3.06797 254.344 2.86372 254.446C3.06797 254.344 3.37433 254.344 3.57858 254.241C4.19131 254.139 4.90617 254.037 5.5189 253.935C8.88894 253.424 12.3611 253.833 15.7311 253.833C15.629 253.016 15.5269 252.199 15.4248 251.28C15.1184 251.28 14.9142 251.484 14.812 251.688C14.3014 252.199 14.3014 253.016 14.812 253.527C15.3227 254.037 16.0375 253.935 16.6502 253.527C16.6502 253.527 16.6502 253.527 16.7524 253.527C16.446 253.629 16.1396 253.731 15.8333 253.935C17.4672 253.731 17.5693 251.382 15.8333 251.382C13.6887 251.28 11.442 251.178 9.29744 251.178C7.15287 251.178 5.11041 251.382 3.06797 251.688C1.43401 251.995 0.106415 252.914 0.00429306 254.65C-0.0978293 256.488 1.63825 258.02 3.47646 258.122C4.5998 257.918 4.80405 256.386 3.98707 255.875Z" fill="white"/>
<path d="M6.7436 251.28C5.51814 250.668 3.9863 250.361 3.16932 249.136C2.35234 248.012 3.16932 246.889 4.29266 246.481C6.13087 245.766 8.17331 245.97 10.1136 245.97C12.054 245.97 13.8922 246.174 15.8325 245.766C17.3643 245.459 18.794 244.949 19.611 243.519C20.428 241.885 19.9174 240.047 18.5898 238.821C17.2622 237.698 15.3219 237.392 13.8922 238.617C12.7688 239.536 12.3603 241.068 12.5646 242.498C12.7688 244.03 13.5858 245.357 15.0155 246.174C16.5474 247.093 18.3856 246.889 20.1216 246.991C21.5513 247.093 22.7768 247.502 23.798 248.523C24.2065 248.931 24.615 249.442 24.9214 250.055C25.2278 250.77 25.2278 251.485 25.2278 252.199C25.2278 253.935 27.9851 253.935 27.9851 252.199C27.9851 250.157 27.4744 248.523 26.1469 246.991C24.9214 245.561 23.1853 244.642 21.3471 244.336C20.428 244.234 19.5089 244.132 18.5898 244.132C17.7728 244.132 16.8537 244.132 16.241 243.621C15.7304 243.213 15.424 242.702 15.3219 242.089C15.3219 242.294 15.3219 241.885 15.3219 241.885C15.3219 241.885 15.3219 241.374 15.3219 241.681C15.424 241.272 15.424 241.17 15.5261 240.864C15.6283 240.762 15.7304 240.66 15.8325 240.557C16.1389 240.353 15.7304 240.557 16.0367 240.455C15.8325 240.455 16.3431 240.455 16.3431 240.455C16.9558 240.455 17.3643 241.068 17.5686 241.477C18.1813 242.6 16.4452 243.315 15.6282 243.417C15.0155 243.519 14.1985 243.417 13.5858 243.417C12.4625 243.417 11.3391 243.417 10.2158 243.315C8.17331 243.213 6.13087 243.213 4.19054 243.723C1.73961 244.336 -0.302843 246.685 0.718381 249.238C1.53536 251.587 4.08842 252.608 6.43723 252.914C7.25421 253.221 7.56058 251.689 6.7436 251.28Z" fill="white"/>
<path d="M26.3267 139.141C25.5482 137.695 24.6586 136.361 24.2138 134.692C24.1025 134.136 23.9913 133.358 24.2138 132.802C24.325 132.468 24.325 132.58 24.5474 132.691C24.9922 132.802 25.3258 133.136 25.6594 133.358C26.4379 133.914 27.2163 134.581 28.2172 134.804C29.3292 135.026 30.4413 134.359 30.8861 133.358C31.6646 131.69 30.9973 129.466 30.3301 127.909C29.7741 126.463 28.8844 125.018 29.1068 123.461C29.1068 123.238 29.218 122.905 29.3292 122.793C29.7741 122.237 29.4404 122.682 29.4404 122.682C29.6629 122.682 29.7741 122.793 29.9965 122.905C30.3301 123.127 30.6637 123.461 30.9973 123.683C32.443 124.906 34.5559 125.574 36.0016 123.905C37.3361 122.349 36.8913 120.013 36.1128 118.345C35.7792 117.455 35.3344 116.677 35.112 115.787C35.0008 115.454 35.0008 115.12 35.0008 114.787C35.0008 115.009 35.112 114.453 35.112 114.453C35.112 114.564 35.112 114.564 35.112 114.453C35.4456 114.119 34.8896 114.564 35.3344 114.342C35.668 114.231 35.7792 114.342 36.224 114.564C37.3361 115.009 38.1145 115.899 39.3378 116.121C41.1171 116.566 41.8955 113.897 40.3387 113.118C38.4482 112.118 36.7801 110.561 34.4447 111.117C32.5542 111.673 31.5534 113.563 31.6646 115.454C31.7758 117.233 32.999 118.79 33.4439 120.569C33.5551 120.792 33.5551 121.237 33.5551 121.348C33.5551 121.348 33.4439 121.904 33.5551 121.57C33.4439 122.015 33.7775 121.459 33.4439 121.681C33.5551 121.57 33.8887 121.459 33.5551 121.57C33.6663 121.57 33.8887 121.57 33.5551 121.459C33.3327 121.348 33.2215 121.125 32.999 121.014C31.5534 119.902 29.8853 118.901 27.9948 119.902C26.2155 120.903 25.9931 123.127 26.3267 124.906C26.6603 126.686 27.5499 128.131 28.106 129.799C28.3284 130.467 28.4396 131.245 28.3284 131.912C28.3284 132.024 28.106 132.135 28.4396 131.912C28.5508 131.801 28.662 131.912 28.4396 131.801C27.9948 131.579 27.6611 131.356 27.2163 131.023C26.1043 130.244 24.6586 129.466 23.3241 130.022C21.9896 130.578 21.4336 132.135 21.4336 133.469C21.4336 136.027 22.9905 138.251 24.4362 140.142C25.3258 141.587 27.1051 140.475 26.3267 139.141Z" fill="white"/>
<path d="M36.1121 146.592C35.3337 144.701 34.1104 143.144 33.888 141.031C33.888 140.809 33.888 140.698 33.888 140.475C33.888 140.364 33.9992 140.364 33.7768 140.475C33.888 140.364 34.1104 140.475 34.3328 140.586C35 140.809 35.5561 141.254 36.1121 141.587C37.7802 142.477 39.8931 142.366 40.6716 140.364C41.45 138.362 40.4492 136.027 39.7819 134.137C39.4483 133.136 39.1147 132.246 38.8923 131.245C38.7811 130.912 38.7811 130.578 38.8923 130.244C38.8923 130.356 38.7811 130.356 39.0035 130.244L38.8923 130.356C39.1147 130.356 39.1147 130.244 38.8923 130.356C39.2259 130.244 39.2259 130.356 39.5595 130.356C39.8931 130.467 39.8931 130.467 40.2267 130.578C41.1164 131.023 41.8948 131.579 43.0069 131.69C45.3422 131.801 46.0095 129.132 45.5646 127.242C45.3422 126.352 45.0086 125.685 44.675 124.906C44.3414 124.35 44.0077 123.461 43.8965 123.016C43.7853 122.46 43.7853 122.126 43.8965 121.793C43.8965 121.681 43.8965 121.57 44.0077 121.459C43.8965 121.793 44.119 121.348 44.119 121.237C44.3414 120.903 43.8965 121.348 44.2302 121.125C44.0078 121.237 44.2302 121.125 44.2302 121.125C44.5638 121.125 44.8974 121.348 45.231 121.459C46.0095 121.793 46.7879 122.349 47.4551 122.793C48.2336 123.238 49.2344 122.793 49.6793 122.015C50.1241 121.125 49.6793 120.347 48.9008 119.791C47.2327 118.679 45.1198 117.344 43.0069 118.234C41.3388 118.901 40.7828 120.792 40.7828 122.46C40.7828 124.128 41.7836 125.462 42.4509 127.019C42.5621 127.353 42.6733 127.687 42.7845 127.909C42.7845 128.131 42.7845 128.354 42.7845 128.465C42.7845 128.354 42.6733 128.799 42.7845 128.576C42.6733 128.799 42.6733 128.687 42.7845 128.687C42.8957 128.576 43.1181 128.687 43.0069 128.576C42.5621 128.354 42.1172 128.131 41.7836 127.909C40.4491 127.131 38.5586 126.908 37.2242 127.909C35.3337 129.355 35.8897 131.801 36.5569 133.692C36.8905 134.693 37.2242 135.693 37.5578 136.583C37.8914 137.473 38.1138 138.362 38.0026 139.252C38.3362 139.252 37.8914 139.141 37.7802 139.141C38.0026 139.252 37.5578 139.03 37.5578 139.03C36.8906 138.696 36.3345 138.251 35.6673 138.029C34.6664 137.584 33.4432 137.473 32.4423 137.918C31.219 138.585 30.8854 140.03 30.9966 141.254C31.219 143.589 32.5535 146.147 34.2216 147.704C35.1113 148.482 36.5569 147.592 36.1121 146.592Z" fill="white"/>
<path d="M112.812 31.5836C113.558 32.4365 114.411 33.1827 115.157 34.0356C116.01 34.8885 116.863 35.7413 117.609 36.5942C119.208 38.4066 120.488 40.3256 121.767 42.3511C123.046 44.3767 124.112 46.5089 124.965 48.6411C125.392 49.7072 125.605 50.7733 125.925 51.946C126.031 52.4791 126.138 53.0121 126.245 53.5452C126.351 54.1848 126.351 54.8245 126.778 55.3575C127.417 56.2104 128.59 56.317 129.23 55.3575C129.976 54.2914 129.55 52.6923 129.336 51.5196C129.123 50.3469 128.803 49.1742 128.377 48.0015C127.524 45.5494 126.245 43.0974 124.752 40.8586C123.366 38.6198 121.767 36.4876 119.848 34.6752C118.889 33.8224 117.929 32.9695 116.97 32.2232C116.01 31.477 114.944 30.5175 113.665 30.1976C112.812 30.091 112.385 31.0505 112.812 31.5836Z" fill="white"/>
<path d="M123.581 24.547C123.261 25.7197 123.474 26.8925 123.688 28.0652C123.794 29.3445 124.114 30.6238 124.327 31.9031C124.86 34.4617 126.033 36.9138 127.206 39.2592C128.378 41.6046 129.871 43.8434 131.577 45.9756C132.323 46.9351 133.176 47.7879 134.135 48.6408C135.095 49.4937 136.268 50.773 137.654 50.6664C138.72 50.5598 139.359 49.6003 138.826 48.5342C138.4 47.5747 137.227 46.9351 136.374 46.2954C135.521 45.5491 134.775 44.6963 134.029 43.8434C132.43 42.031 131.257 40.0054 130.084 37.9799C128.912 35.9543 127.952 33.7155 127.099 31.5833C126.673 30.4106 126.353 29.3445 126.14 28.1718C125.82 26.9991 125.607 25.8264 125.18 24.6537C124.86 23.8008 123.794 23.8008 123.581 24.547Z" fill="white"/>
<path d="M117.609 44.8033C117.609 45.443 118.356 45.9761 118.995 45.9761C119.528 45.9761 120.168 45.6562 120.701 45.3364C121.234 44.9099 121.874 44.5901 122.407 44.2703C123.58 43.4174 124.859 42.7778 126.032 42.1381C127.311 41.3918 128.59 40.7522 129.869 40.1125C130.509 39.7927 131.149 39.4729 131.895 39.153C132.215 39.0464 132.428 38.8332 132.748 38.7266C132.748 38.7266 133.388 38.5134 133.174 38.5134C135.093 37.9803 134.347 34.9953 132.428 35.5283C131.895 35.6349 131.362 35.9547 130.829 36.2746C130.189 36.5944 129.55 36.9142 128.91 37.2341C127.524 37.9803 126.138 38.62 124.859 39.4729C123.686 40.2191 122.407 40.9654 121.234 41.7117C120.594 42.1381 120.061 42.5645 119.528 43.0976C119.102 43.524 118.569 43.9505 118.249 44.4835C118.782 44.3769 119.315 44.1637 119.848 44.0571H119.528C118.889 43.4174 117.609 43.9505 117.609 44.8033Z" fill="white"/>
</g>
</svg>
